<svg xmlns="http://www.w3.org/2000/svg" xmlns:xlink="http://www.w3.org/1999/xlink" width="49" height="27" viewBox="0 0 36.75 20.25"><defs><path id="b" d="M3.375-4.687H1.469v1.312h1.844v.781H1.469V0H.656v-5.453h2.719Zm0 0"/><path id="c" d="M2.5-2.328 4.188 0h-1L1.625-2.234h-.156V0H.656v-5.453h.969q1.078.001 1.547.406c.351.305.531.7.531 1.188q0 .578-.328 1a1.42 1.42 0 0 1-.875.53m-1.031-.625h.265q1.172 0 1.172-.89c0-.563-.383-.844-1.14-.844h-.297Zm0 0"/><path id="d" d="m.469 0 1.14-5.86 1.875 4.235 1.938-4.234L6.453 0H5.61l-.53-3.297L3.468.25 1.906-3.297 1.313 0Zm0 0"/><path id="e" d="M1.469-5.453V0H.656v-5.453Zm0 0"/><path id="f" d="M.656 0v-5.828l3.969 4.172v-3.797h.828V.328L1.47-3.812V0Zm0 0"/><path id="h" d="M3.453-2.844H5.72v.188q-.002.609-.157 1.078-.14.44-.468.828-.767.86-1.938.86a2.62 2.62 0 0 1-1.954-.83 2.7 2.7 0 0 1-.828-2q0-1.183.844-2.015a2.74 2.74 0 0 1 2.015-.828q.638.001 1.188.265c.351.18.703.461 1.047.844l-.594.562Q4.2-4.78 3.25-4.78q-.879.001-1.453.593c-.399.399-.594.887-.594 1.47q0 .907.656 1.5.609.547 1.329.546.608.002 1.093-.406.482-.405.532-.984h-1.36Zm0 0"/><path id="j" d="m1.484-5.453.938 3.516 1.156-3.516h1.125L5.86-1.937l.954-3.516h1.484L6.657 0H5.218L4.14-3.156 3.078 0H1.625L0-5.453Zm0 0"/><path id="l" d="M1.984-3.016h.266c.281 0 .492-.054.64-.171q.235-.172.235-.5a.59.59 0 0 0-.234-.5q-.221-.171-.641-.172h-.266ZM5.11 0H3.344l-1.36-2.094V0H.578v-5.453h2.203q.453 0 .781.14.34.127.563.36.233.235.344.547c.07.199.11.414.11.64 0 .418-.102.758-.298 1.016q-.299.375-.89.516Zm0 0"/><path id="m" d="M1.984-5.453v4.25h1.704V0H.578v-5.453Zm0 0"/><path id="n" d="M1.984-1.203h.329q.374.001.656-.11c.195-.082.36-.19.484-.328a1.4 1.4 0 0 0 .313-.468 1.76 1.76 0 0 0 0-1.22 1.5 1.5 0 0 0-.313-.483 1.45 1.45 0 0 0-.5-.313 1.6 1.6 0 0 0-.64-.125h-.329ZM.578-5.453h2.094q.545 0 1.031.234c.332.149.617.344.86.594q.373.362.578.86a2.6 2.6 0 0 1 0 2.078q-.204.485-.578.859-.364.375-.844.61A2.5 2.5 0 0 1 2.672 0H.578Zm0 0"/><path id="o" d="M3.563-4.062a1.6 1.6 0 0 0-.47-.266 1.1 1.1 0 0 0-.437-.094.76.76 0 0 0-.453.125.4.4 0 0 0-.172.344.34.34 0 0 0 .078.234q.094.095.235.172c.094.043.195.078.312.11.125.03.242.07.36.109q.7.236 1.015.625.328.377.328 1c0 .281-.046.539-.14.766a1.56 1.56 0 0 1-.422.593q-.268.236-.672.36-.394.14-.875.14Q1.2.157.328-.469l.61-1.14q.31.28.625.422.31.14.609.14.357.001.515-.156a.5.5 0 0 0 .172-.36.5.5 0 0 0-.046-.218.4.4 0 0 0-.141-.172 1 1 0 0 0-.266-.14q-.157-.06-.39-.141l-.532-.188Q1.215-2.527 1-2.703a1.2 1.2 0 0 1-.328-.438q-.127-.262-.125-.671a2 2 0 0 1 .125-.735q.141-.328.375-.562c.164-.157.363-.274.594-.36a2.2 2.2 0 0 1 .797-.14q.403.001.843.125.434.112.844.312Zm0 0"/><clipPath id="a"><path d="M.535 6H4v7H.535Zm0 0"/></clipPath><clipPath id="g"><path d="M30 6h5.973v7H30Zm0 0"/></clipPath><clipPath id="i"><path d="M.535 13H9v6H.535Zm0 0"/></clipPath><clipPath id="k"><path d="M16 12h19.973v7H16Zm0 0"/></clipPath><clipPath id="p"><path d="M11 19h3v.527h-3Zm0 0"/></clipPath><clipPath id="q"><path d="M11 19h3v.527h-3Zm0 0"/></clipPath></defs><g clip-path="url(#a)"><use xlink:href="#b" x=".001" y="12.07" fill="#0072a1"/></g><use xlink:href="#c" x="10.373" y="12.07" fill="#0072a1"/><use xlink:href="#d" x="14.727" y="12.07" fill="#0072a1"/><use xlink:href="#e" x="21.68" y="12.07" fill="#0072a1"/><use xlink:href="#f" x="23.813" y="12.07" fill="#0072a1"/><g clip-path="url(#g)"><use xlink:href="#h" x="29.976" y="12.07" fill="#0072a1"/></g><g clip-path="url(#i)"><use xlink:href="#j" x=".536" y="18.579" fill="#fff"/></g><g fill="#fff" clip-path="url(#k)"><use xlink:href="#l" x="16.201" y="18.579"/><use xlink:href="#m" x="21.328" y="18.579"/><use xlink:href="#n" x="25.176" y="18.579"/><use xlink:href="#o" x="30.86" y="18.579"/></g><path fill="#0072a1" d="M9.273 16.04h.504c.153 0 .313-.009.47-.009.128 0 .257-.008.386-.008.14 0 .285-.007.422-.007.14 0 .277-.008.414-.008.152 0 .316-.008.469-.008.164 0 .332-.012.496-.012h.113-.227c-.21 0-.422-.008-.625-.008-.144 0-.293-.007-.43-.007-.144 0-.28-.008-.43-.008-.12 0-.233-.008-.355-.008-.136 0-.265-.008-.406-.008-.168 0-.347-.008-.515-.008-.098 0-.196-.007-.293-.007h.324c.144 0 .293-.008.437-.008h.18c.16 0 .313-.008.477-.008h.175c.133 0 .262-.008.391-.008.172 0 .348-.008.52-.008.152 0 .296-.007.453-.007.062 0 .12 0 .187-.008h-.246c-.144 0-.297-.008-.445-.008-.13 0-.266 0-.395-.008-.156 0-.308-.008-.465-.008-.136 0-.273-.008-.41-.008-.129 0-.261-.011-.383-.011q-.193.002-.386-.008c-.137 0-.278-.008-.414-.008h.504c.152 0 .304-.008.46-.008.13 0 .258-.008.387-.008.14 0 .278-.007.414-.007.137 0 .266-.008.406-.008.16 0 .333-.008.493-.008.129 0 .27 0 .398-.008h.082c-.058 0-.105 0-.164-.008-.144 0-.3-.007-.445-.007q-.147.002-.293-.008h-.274c-.12 0-.242-.008-.363-.008q-.186.002-.367-.008c-.168 0-.332-.008-.5-.008-.164 0-.324-.007-.488-.007-.079 0-.16-.008-.243-.008h.512c.137 0 .266-.008.402-.008.133 0 .262-.012.391-.012.145 0 .293-.008.445-.008.122 0 .235-.007.356-.007.129 0 .27-.008.398-.008.203 0 .414-.008.614-.008h.02-.15c-.152 0-.3-.008-.452-.008q-.134.002-.274-.008h-.277c-.145 0-.301-.007-.445-.007q-.172.002-.333-.008c-.128 0-.265-.008-.398-.008-.121 0-.234-.008-.355-.008-.145 0-.29-.008-.438-.008h.488c.13 0 .258-.008.387-.008.121 0 .25 0 .375-.007.113 0 .219-.008.332-.008.2 0 .395-.008.598-.008.144 0 .293-.008.445-.008.18 0 .363-.011.543-.011h.023c-.082 0-.152 0-.234-.008-.121 0-.234 0-.355-.008-.18 0-.356-.008-.536-.008-.16 0-.324-.008-.484-.008q-.133.002-.277-.008c-.13 0-.25-.007-.38-.007h-.179c-.137 0-.285 0-.422-.008-.113 0-.218-.008-.332-.008h.512c.129 0 .258-.008.379-.008.156 0 .316-.008.473-.008.136 0 .28-.007.418-.007.14 0 .269-.008.406-.008.16 0 .324-.008.484-.008.18 0 .36-.008.535-.008h.594c.227 0 .453.008.672.008.168 0 .34.008.508.008.14 0 .277.008.414.008s.277.007.414.007c.152 0 .3.008.453.008.187 0 .363.008.55.008h.016c-.09 0-.16.008-.242.008-.137 0-.285 0-.422.008-.144 0-.3.007-.445.007-.121 0-.242.008-.371.008-.113 0-.234.008-.348.008-.117 0-.238.008-.351.008-.098 0-.192 0-.29.008h-.171c-.188 0-.364.008-.551.008h.355c.141 0 .286.011.422.011.172 0 .34.008.512.008.145 0 .29.008.43.008.152 0 .297.008.453.008.12 0 .25.007.37.007.18 0 .349.008.528.008h.121c-.082 0-.16.008-.242.008q-.205-.002-.422.008c-.136 0-.28.008-.422.008-.144 0-.289.008-.437.008-.121 0-.25.007-.371.007-.137 0-.277.008-.414.008-.16 0-.324.008-.485.008-.113 0-.226.008-.34.008h.297q.16-.002.309.008c.098 0 .188 0 .285.007.121 0 .242.008.371.008.157 0 .301.012.453.012.149 0 .293.008.43.008s.285.008.422.008c.195 0 .379.007.574.007h-.055c-.164 0-.324.008-.488.008-.12 0-.242.008-.37.008-.165 0-.325.008-.497.008-.145 0-.289.008-.437.008-.153 0-.305.007-.461.007-.137 0-.266.008-.403.008-.125 0-.246.008-.367.008H13h.25c.156 0 .309.008.46.008h.122c.125 0 .254 0 .375.008.137 0 .281.008.422.008.144 0 .297.007.445.007.121 0 .242.008.371.008.18 0 .364.008.543.008h.121c-.054 0-.113 0-.16.008-.105 0-.219 0-.324.011-.098 0-.187 0-.285.008-.098 0-.188 0-.281.008-.133 0-.262.008-.383.008-.114 0-.235.008-.348.008-.152 0-.308.008-.46.008q-.208-.002-.415.007c-.129 0-.265.008-.398.008h-.106.293c.106 0 .219 0 .324.008.106 0 .204 0 .309.008.121 0 .25.008.371.008s.234.007.356.007c.171 0 .351.008.52.008.155 0 .308.008.46.008a7 7 0 0 1 .535.016c-.047 0-.105 0-.152.007-.164 0-.332.008-.496.008-.153 0-.297.012-.453.012-.137 0-.266.008-.403.008-.148 0-.293.008-.449.008h-.25c-.105 0-.203.007-.309.007h-.25c-.168 0-.347.008-.52.008h-.023.376c.12 0 .25 0 .37.008h.25c.141 0 .278.008.422.008.145 0 .301.008.446.008.136 0 .277.008.422.008s.293.007.437.007c.195 0 .38.008.574.008-.129 0-.257.008-.386.008-.141 0-.286.008-.422.008h-.27c-.12 0-.242.008-.363.008-.152 0-.316.007-.469.007-.129 0-.261.008-.39.008-.153 0-.297.008-.454.008-.187 0-.37.008-.55.008h-.52c-.16 0-.332-.008-.492-.008-.145 0-.293-.008-.43-.008-.136 0-.265-.008-.406-.008-.152 0-.305-.007-.46-.007-.145 0-.302-.008-.446-.008q-.181.002-.364-.008c-.156-.04-.285-.04-.414-.047m3.313-.052h.016Zm-3.289-.608h.172c.16 0 .324-.008.492-.008h.254c.129 0 .25-.008.379-.008.152 0 .3-.008.453-.008.121 0 .242-.007.363-.007.133 0 .262-.008.39-.008.122 0 .235 0 .356-.008h1.153c.168 0 .34.008.5.008.148 0 .293.008.43.008.136 0 .277.007.413.007.137 0 .266.008.407.008.152 0 .304.008.453.008.183 0 .37.008.55.008h.008c-.129 0-.261.008-.39.008-.145 0-.29.008-.438.008h-.25c-.12 0-.234.007-.355.007-.157 0-.309.008-.461.008-.133 0-.262.008-.383.008-.137 0-.273.012-.414.012-.145 0-.297.008-.445.008h-.567c-.187 0-.37-.008-.566-.008-.18 0-.356-.012-.535-.012-.243-.008-.477-.008-.72-.016-.171 0-.35-.007-.519-.007-.172 0-.347-.008-.52-.008-.062 0-.136-.008-.21-.008m0 0"/><path fill="#0072a1" d="M9.305 16.152c.156 0 .3 0 .457-.007.144 0 .289-.012.425-.012.157 0 .31-.008.465-.008.145 0 .282-.008.426-.008.133 0 .262-.008.39-.008.145 0 .294-.007.438-.007.137 0 .285-.008.422-.008h.996c.16 0 .324.008.492.008.149 0 .293.007.43.007s.27.008.406.008c.137 0 .282.008.422.008.145 0 .29.008.438.008.191 0 .379.012.574.012h.016c-.055 0-.114 0-.16.007-.133 0-.27.008-.399.008-.137 0-.277.008-.414.008h-.152c-.114 0-.235.008-.348.008s-.227.008-.34.008q-.135-.002-.27.007h-.226c-.234 0-.477.008-.711.008h-.594c-.21 0-.422-.008-.629-.008-.14 0-.285 0-.421-.007-.114 0-.227-.008-.34-.008-.164 0-.332-.008-.496-.008-.188 0-.372-.008-.559-.008-.121 0-.234 0-.355-.008-.137.008-.262 0-.383 0m.019-.886h.297c.156 0 .3-.008.453-.008.203 0 .406-.008.602-.008.144 0 .281-.008.43-.008.136 0 .28-.008.421-.008.176 0 .364 0 .54-.007q.497-.012.995 0c.204 0 .407.007.602.007.188 0 .371.008.559.008.136 0 .273.008.414.008.136 0 .281.008.422.008.152 0 .296.008.453.008.183 0 .37.007.566.007h-.074q-.238.01-.477.008c-.082 0-.172 0-.25.012-.09 0-.18 0-.261.008-.13 0-.258.008-.387.008-.156 0-.316.007-.473.007-.152 0-.297.008-.453.008-.203 0-.402.008-.605.008-.243.008-.489 0-.723 0-.203 0-.402-.008-.613-.008-.149 0-.301-.008-.446-.008-.156 0-.308-.007-.464-.007h-.2c-.14 0-.27-.008-.406-.008-.187 0-.371-.008-.566-.008-.121-.02-.242-.02-.356-.027m0 0"/><path fill="#0072a1" d="M16.07 16.254c-.05 0-.105 0-.156.008-.176 0-.348.008-.523.008-.157 0-.301.011-.457.011-.153 0-.297.008-.454.008-.128 0-.257.008-.386.008-.164 0-.324.008-.489.008-.199 0-.41.008-.613.008h-.617c-.184 0-.371 0-.55-.008-.153 0-.317-.008-.47-.008-.136 0-.277-.008-.414-.008-.144 0-.289-.008-.43-.008-.152 0-.296-.011-.452-.011-.168 0-.34-.008-.5-.008-.082 0-.164-.008-.246-.008h.195c.113 0 .219 0 .332-.008q.135.002.27-.008c.097 0 .19 0 .288-.008.09 0 .188 0 .278-.007.113 0 .226-.008.34-.008.129 0 .257-.008.386-.008.141 0 .278-.008.414-.008h.235c.172 0 .34-.008.504-.008h.582c.21 0 .414.008.625.008.152 0 .3.008.453.008.129 0 .265.008.398.008.137 0 .282.008.418.008.156 0 .309.007.465.007.2.024.387.024.574.024m-6.746-1.098h.395c.187 0 .37-.008.558-.008.149 0 .293-.011.446-.011.136 0 .277-.008.414-.008.152 0 .308-.008.46-.008.137 0 .286-.008.423-.008.18 0 .347-.008.527-.008h.543c.21 0 .422.008.629.008.156 0 .308.008.465.008.152 0 .296.008.453.008.12 0 .25.008.37.008.138 0 .27.011.407.011.152 0 .3.008.453.008h.219c-.059 0-.113 0-.172.008-.105 0-.21.008-.324.008-.176 0-.356.008-.543.008-.184 0-.371.008-.55.008q-.183-.002-.364.007c-.137 0-.266.008-.403.008-.164 0-.332.008-.496.008-.21 0-.43.008-.64.008q-.342.002-.672-.008c-.152 0-.317-.008-.469-.008-.156 0-.316-.008-.469-.008-.156 0-.3-.008-.457-.008-.144 0-.289-.007-.437-.007-.168 0-.328-.008-.5-.008-.106-.008-.188-.008-.266-.016m0 0"/><path fill="#0072a1" d="M9.332 16.367h.332c.106 0 .211 0 .324-.008q.13.002.266-.007c.137 0 .273-.008.414-.008.152 0 .309-.008.46-.008.153 0 .31-.008.462-.008.137 0 .285-.008.422-.008.258 0 .511-.008.77-.008h.323c.211 0 .422.008.633.008.137 0 .282.008.418.008.164 0 .332.008.496.008.114 0 .22 0 .332.008.137 0 .282.008.422.008.145 0 .281.007.43.007.062 0 .137 0 .2.008h-.04c-.137.008-.281.008-.422.008-.183 0-.37.008-.558.008-.184 0-.364.008-.551.008-.145 0-.3.007-.445.007q-.133-.002-.266.008c-.149 0-.293.008-.438.008H12.11c-.12 0-.25 0-.375-.008h-.289c-.156 0-.308-.008-.46-.008-.141 0-.27-.007-.407-.007-.129 0-.27-.008-.398-.008-.137 0-.266-.008-.403-.008h-.21c-.09 0-.165-.008-.235-.008m6.702-1.317c-.137 0-.265.009-.402.009-.149 0-.293.007-.438.007h-.261c-.13 0-.258.008-.387.008-.164 0-.317.008-.477.008-.14 0-.277.008-.422.008-.171 0-.332.008-.503.008h-.614q-.328.002-.656-.008c-.164 0-.332-.008-.496-.008-.145 0-.29-.008-.445-.008-.13 0-.266-.008-.395-.008-.164 0-.316-.007-.48-.007-.145 0-.282 0-.43-.008-.106 0-.203-.008-.305-.008h.508c.137 0 .277-.008.414-.008.16 0 .324-.008.484-.008.157 0 .301-.007.454-.007.156 0 .316-.008.472-.008.25 0 .492-.008.742-.008h.489c.21 0 .414 0 .625.008.183 0 .37.008.55.008.16 0 .32.007.493.007.16 0 .332.008.492.008h.219c.125 0 .238 0 .359.008q.194-.002.387.008Zm-.015 1.43c-.176 0-.348.008-.524.008-.113 0-.23 0-.332.008h-.254c-.12 0-.25.008-.37.008-.18 0-.364.008-.544.008-.152 0-.316.008-.469.008-.18 0-.347 0-.527.007h-.746c-.188 0-.363-.007-.55-.007h-.196c-.153 0-.305-.008-.461-.008q-.147.002-.29-.008c-.14 0-.277-.008-.413-.008h-.196q-.203.002-.414-.008c-.12 0-.25-.008-.37-.008.136 0 .28 0 .421-.007.192 0 .38-.008.574-.008.145 0 .286-.008.43-.008s.281-.008.43-.008c.152 0 .308-.008.46-.008.235 0 .477-.007.712-.007h.488a21 21 0 0 1 .664.007c.195 0 .387.008.582.008.145 0 .293.008.438.008.144 0 .285.008.43.008.152 0 .308.008.46.008.18 0 .375 0 .567.007m-.008-1.542h-.098c-.152 0-.316.007-.469.007-.12 0-.25.008-.37.008-.212 0-.415.008-.626.008-.129 0-.258.008-.379.008q-.236-.002-.472.008a64 64 0 0 1-1.223.007h-.387c-.18 0-.36-.007-.535-.007-.121 0-.234 0-.355-.008-.18 0-.352-.008-.528-.008-.144 0-.293-.008-.445-.008-.172 0-.348-.008-.52-.008-.082 0-.152-.008-.234-.008h.504c.137 0 .273-.007.41-.007.172 0 .332-.008.504-.008h.445q.147.002.293-.008c.227 0 .461-.008.688-.008h1.336c.168 0 .34.008.511.008.153 0 .305.008.461.008.137 0 .282.008.422.008.168 0 .332.008.5.008.114 0 .235 0 .348.007q.112-.01.219-.008m-.032 1.657c-.136 0-.265.008-.406.008-.144 0-.289.007-.43.007-.097 0-.19 0-.289.008-.14 0-.277.008-.414.008s-.265.008-.406.008c-.105 0-.203 0-.305.008-.156 0-.308 0-.464.007h-.832q-.38.002-.754-.007c-.196 0-.399-.008-.59-.008-.149 0-.3 0-.445-.008-.172 0-.336-.008-.504-.008q-.17.002-.34-.008c-.13 0-.27-.007-.399-.007h.496c.137 0 .274-.008.41-.008.165 0 .325-.008.497-.008.113 0 .234 0 .347-.008.172 0 .332-.008.504-.008.235 0 .461-.011.696-.011h1.078c.195 0 .386.011.582.011.172 0 .332.008.504.008.152 0 .297.008.453.008.144 0 .289.008.445.008.176-.008.371-.008.566 0 0-.008 0 0 0 0m-6.593-1.77c.136 0 .277 0 .414-.008.195 0 .386-.007.582-.007.156 0 .308-.008.46-.008.157 0 .317-.008.473-.008.176 0 .356-.008.543-.008h1.563c.191 0 .387.008.582.008.152 0 .3.008.453.008.164 0 .324.008.488.008.153 0 .297.007.453.007.192 0 .387.008.582.008-.128 0-.257.008-.39.008h-.313c-.156 0-.3.008-.457.008-.152 0-.312.008-.468.008-.153 0-.301.011-.454.011-.136 0-.273.008-.414.008-.257 0-.515.008-.785.008h-.613c-.133 0-.27 0-.399-.008-.105 0-.218 0-.324-.008-.105 0-.203 0-.308-.011-.153 0-.309-.008-.461-.008-.137 0-.285-.008-.422-.008-.184 0-.371-.008-.559-.008a1 1 0 0 1-.226 0c0 .008 0 0 0 0m0 0"/><path fill="#0072a1" d="M15.965 16.695c-.203 0-.406.012-.602.012-.191 0-.379.008-.574.008-.152 0-.316.008-.469.008-.172 0-.332.007-.504.007-.257 0-.507.008-.77.008h-.573c-.235 0-.461 0-.696-.008-.203 0-.398-.007-.601-.007-.168 0-.332-.008-.5-.008-.164 0-.317-.008-.48-.008-.176 0-.356-.012-.532-.012-.082 0-.156-.008-.238-.008h.527c.156 0 .309-.007.461-.007.156 0 .309-.008.465-.008.144 0 .289-.008.437-.008q.266.002.532-.008c.367-.008.738-.008 1.101-.008h.496c.188 0 .371.008.559.008.144 0 .293.008.437.008.153 0 .309.008.461.008.157 0 .301.008.453.008.196.008.407.015.61.015m-6.539-1.972h.52c.171 0 .331-.012.503-.012.153 0 .309-.008.461-.008.16 0 .324-.008.492-.008.211 0 .422 0 .625-.008.332-.007.657-.007.989 0 .25 0 .511.008.761.008.203 0 .414.008.618.008.152 0 .304.008.46.008.153 0 .31.012.461.012.211 0 .414.007.625.007h.016-.156c-.184 0-.371.008-.567.008-.152 0-.308.008-.46.008-.172 0-.348.008-.52.008q-.206-.002-.41.008c-.172 0-.332.008-.504.008h-.965c-.195 0-.379 0-.574-.008-.211 0-.422-.008-.633-.008q-.194.002-.387-.008c-.129 0-.254-.008-.383-.008-.203 0-.41-.008-.613-.008-.113 0-.234-.007-.36-.007m.001 2.086h.36q.18.002.362-.008h.293c.137 0 .266-.008.403-.008.14 0 .277-.008.414-.008.09 0 .18 0 .258-.008.164 0 .324 0 .496-.007.324 0 .656-.008.98 0 .258 0 .52.007.778.007.203 0 .406.008.597.008.156 0 .309.008.465.008.16 0 .332.008.492.008.196 0 .38.008.574.008h.008-.062q-.26.009-.52.007c-.097 0-.187 0-.285.008-.105 0-.2 0-.305.008-.148 0-.293.008-.437.008-.156 0-.309.012-.465.012-.129 0-.266.007-.395.007h-.996c-.234 0-.46 0-.695-.007-.203 0-.398-.012-.601-.012q-.219.002-.438-.008c-.16 0-.324-.008-.492-.008-.18 0-.36-.008-.535-.008-.059 0-.157-.007-.254-.007m6.48-2.192c-.176 0-.355.008-.535.008-.105 0-.2 0-.305.008q-.146-.002-.293.008c-.136 0-.277 0-.414.007-.168 0-.332.008-.5.008q-.54.01-1.062.008h-1.035c-.188 0-.375-.008-.559-.008-.098 0-.203 0-.3-.008-.098 0-.204 0-.301-.007-.098 0-.204 0-.301-.008-.153 0-.313-.008-.469-.008-.121 0-.242-.008-.371-.008h.559c.16 0 .324-.008.484-.008.172 0 .332-.007.504-.007.168 0 .332-.008.5-.008.254 0 .504-.008.754-.008h.754c.226 0 .453 0 .672.008.218 0 .437.008.656.008.164 0 .332.007.496.007.152 0 .312.008.469.008a5 5 0 0 1 .597 0q0-.012 0 0m-6.414 2.297h.551c.098 0 .187 0 .285-.008.168 0 .332-.008.5-.008q.159.002.317-.007h.332c.21 0 .414-.008.625-.008h.953c.21 0 .422 0 .625.008.21 0 .422.007.633.007.16 0 .324.008.484.008.164 0 .324.008.496.008.184 0 .371.008.559.008h.015-.082c-.16 0-.324.008-.484.008-.098 0-.203 0-.301.008q-.181-.002-.363.007c-.172 0-.332.008-.504.008-.203 0-.403.008-.606.008q-.597.012-1.199 0h-.437c-.157 0-.317 0-.47-.008-.187 0-.374-.008-.57-.008-.183 0-.37-.008-.558-.008-.191 0-.395-.007-.59-.007-.074-.008-.144-.008-.21-.016m6.382-2.41h-.09c-.16 0-.332.008-.492.008-.14 0-.277.008-.414.008-.195 0-.39.007-.582.007-.203 0-.399.008-.602.008-.363 0-.734.008-1.101.008h-.711c-.188 0-.383-.008-.567-.008-.164 0-.324-.008-.488-.008-.144 0-.289-.007-.445-.007-.153 0-.301 0-.453-.008-.145 0-.293-.008-.438-.008h.567c.171 0 .34-.008.504-.008.16 0 .332-.008.492-.008.187 0 .375-.008.558-.008.246 0 .489-.007.723-.007h1.133c.234 0 .46.007.695.007.164 0 .316.008.48.008.196 0 .387.008.583.008.21 0 .414.008.625.008q.01-.012.023 0m-.023 2.523c-.043 0-.09 0-.13.008-.156 0-.308.008-.464.008q-.17-.002-.34.008h-.29c-.163 0-.323.008-.487.008-.153 0-.309.007-.461.007-.188 0-.371 0-.567.008h-.672q-.392.002-.777-.008c-.219 0-.437-.007-.664-.007-.187 0-.375-.008-.559-.008-.21 0-.421-.008-.632-.008-.09 0-.172-.008-.258-.008h.515c.149 0 .293-.008.446-.008.148 0 .3-.007.445-.007.121 0 .238-.008.36-.008h.25c.226 0 .445-.008.671-.008h1.426c.16 0 .324.008.492.008q.222-.002.438.008c.148 0 .293.007.437.007.227 0 .465.008.692.008.039-.008.078-.008.129-.008M9.559 14.39h.558c.168 0 .348-.007.516-.007.172 0 .344-.008.512-.008.203 0 .414-.008.617-.008.402-.008.8-.008 1.207-.008h.574q.216-.002.437.008c.122 0 .243.008.372.008h.316c.187 0 .371.008.559.008q.193-.002.382.008c.063 0 .137 0 .2.007h-.086c-.211 0-.43.008-.641.008-.172 0-.34.008-.504.008-.183 0-.371.008-.566.008-.196 0-.387 0-.582.008q-.562.016-1.117 0c-.235 0-.481-.008-.715-.008-.176 0-.356-.008-.536-.008h-.175c-.18 0-.348-.008-.528-.008s-.347-.008-.527-.008c-.098 0-.187-.007-.273-.007m6.234 2.749c-.203 0-.395.008-.598.008q-.17-.002-.34.008H14.7c-.226 0-.46.008-.687.008s-.453.008-.68.008c-.27 0-.527.008-.793 0-.254 0-.496 0-.746-.008h-.285c-.184 0-.371 0-.551-.008-.184 0-.371-.008-.566-.008-.121 0-.235 0-.356-.007-.16 0-.324-.012-.484-.012h.55c.153 0 .305-.008.461-.008.196 0 .395-.008.59-.008.075 0 .157 0 .227-.008h.324c.406-.007.82-.007 1.223-.007h.574c.203 0 .414.007.617.007.18 0 .348.008.528.008.168 0 .34.008.507.008.22.008.43.008.641.02m-6.196-2.864h.574c.172 0 .348-.007.52-.007.195 0 .386-.008.581-.008q.196.002.391-.008c.219 0 .445-.008.664-.008h.996c.235 0 .461.008.696.008.187 0 .375.008.558.008.18 0 .348.008.527.008.211 0 .422.007.625.007h.008-.097c-.157 0-.301.008-.453.008-.114 0-.22 0-.333.012h-.195c-.172 0-.332.008-.504.008h-.25c-.187 0-.37.008-.566.008h-1.063q-.327.002-.656-.008c-.234 0-.469-.008-.703-.008-.172 0-.34-.012-.512-.012-.183 0-.37-.008-.558-.008-.063.008-.16.008-.25 0m6.148 2.973h-.129c-.156 0-.3.008-.453.008-.133 0-.27 0-.398.008h-.301c-.195 0-.395.011-.59.011-.324 0-.64.008-.965.008h-1.19c-.176 0-.364 0-.543-.008-.219 0-.446-.011-.664-.011-.211 0-.422-.008-.63-.008-.081 0-.163-.008-.245-.008h.55c.165 0 .325-.008.497-.008.195 0 .394-.008.59-.008s.39-.007.585-.007c.297 0 .59 0 .891-.008h.574c.176 0 .348 0 .528.008.218 0 .437.007.656.007.191 0 .387.008.582.008q.316-.002.656.008m-.009-3.074c-.226 0-.453.008-.672.008-.195 0-.398.007-.593.007-.16 0-.325.008-.485.008-.3 0-.601.008-.898.008h-1.16c-.16 0-.325 0-.485-.008h-.39c-.153 0-.317-.008-.47-.008-.218 0-.429-.007-.648-.007-.097 0-.187-.008-.28-.008h.28c.165 0 .325-.008.489-.008h.332c.176 0 .347-.008.523-.008.188 0 .367-.008.551-.008h1.184c.293 0 .59 0 .882.008.204 0 .407.008.61.008.183 0 .363.008.55.008.22 0 .438.008.657.008q.012-.022.023-.008c0-.008 0 0 0 0m-.05 3.187c-.22 0-.438.008-.657.008-.105 0-.21 0-.304.008q-.187-.002-.368.008c-.129 0-.25 0-.379.008h-.437q-.53-.002-1.063.007h-.535c-.265 0-.523-.007-.793-.007-.187 0-.37-.008-.558-.008-.211 0-.422-.008-.633-.008-.078 0-.16-.008-.242-.008h.566c.18 0 .367-.008.543-.008.203 0 .414-.008.617-.008.282 0 .567-.007.86-.007h.515c.278 0 .543 0 .82.007h.243c.21 0 .43.008.64.008.16 0 .332.008.493.008.21-.023.437-.016.672-.008q0-.012 0 0m-5.978-3.3h.407q.194.002.387-.008h.398c.16 0 .325-.008.493-.008.253 0 .503-.008.753-.008h1.614q.242-.002.484.008c.219 0 .445.008.664.008.188 0 .375 0 .55.008q.092-.002.18.007h-.074c-.168.008-.347.008-.52.008-.12 0-.25 0-.37.008h-.317c-.195 0-.386.008-.582.008-.242 0-.476.008-.722.008h-1.23c-.227 0-.446 0-.673-.008-.187 0-.379-.008-.566-.008-.203 0-.406-.008-.61-.008a3 3 0 0 0-.265-.015m.051 3.406h.265c.18 0 .364-.008.543-.008h.348c.219 0 .437-.008.656-.008.274 0 .543-.008.817-.008h1.347c.168 0 .34 0 .5.008.188 0 .375.008.551.008.219 0 .445.008.664.008h.164-.09c-.156 0-.308.008-.46.008h-.278c-.176 0-.355.007-.535.007-.234 0-.469.008-.703.008h-1.403q-.365.002-.718-.008c-.262 0-.512-.007-.77-.007-.21 0-.422-.008-.633-.008-.082.008-.172 0-.265 0m5.812-3.519c-.07 0-.136 0-.21.007-.122 0-.235 0-.356.008q-.196-.002-.38.008-.199-.002-.382.007-.25-.002-.5.008h-1.379c-.265 0-.543-.008-.808-.008h-.235c-.12 0-.246 0-.367-.007h-.2c-.23 0-.456-.008-.675-.008-.105 0-.207-.008-.305-.008h.621c.165 0 .317 0 .48-.008.235 0 .477-.008.712-.008.21 0 .422-.007.633-.007h.859q.35-.002.711.007.244-.002.488.008c.207 0 .418.008.63.008.171 0 .347 0 .519.008.039-.016.097-.016.144-.016m-.031 3.633h-.195c-.22 0-.43.008-.649.008-.176 0-.355.008-.535.008-.273 0-.55.007-.824.007h-1.887c-.226 0-.453-.007-.672-.007s-.445-.008-.664-.008c-.097 0-.187-.008-.285-.008h.61c.21 0 .417-.008.62-.008.235 0 .473-.008.708-.008.183 0 .363 0 .55-.007h1.172c.219 0 .438.007.664.007q.283-.002.559.008c.187 0 .375.008.562.008a1.5 1.5 0 0 1 .266 0c0-.008 0 0 0 0m-.008-3.738h-.172c-.226 0-.453.008-.672.008-.218 0-.437.007-.656.007-.355 0-.703.012-1.058.012h-.368c-.355 0-.71 0-1.066-.012q-.304.002-.61-.007c-.273 0-.542-.008-.816-.008-.082 0-.164-.008-.234-.008h.62c.165 0 .317 0 .481-.008.258 0 .516-.008.778-.008.324 0 .636 0 .96-.008h.544c.27 0 .535.008.804.008.2 0 .403.008.598.008.242 0 .484.008.73.008q.06-.002.137.008m-5.645 3.84h.65c.218 0 .437-.008.663-.008.29 0 .574-.008.863-.008h1.024q.351-.002.703.008h.3q.217-.002.438.008c.153 0 .301.007.453.007h.493c-.07 0-.145 0-.22.012-.175 0-.347.008-.523.008-.187 0-.375.008-.558.008h-.254q-.329-.002-.656.008h-1.66c-.243 0-.485-.008-.72-.008-.226 0-.46-.008-.69-.008-.094-.02-.2-.02-.305-.027m5.569-3.95h-.194c-.176 0-.364.008-.54.008-.246 0-.496.008-.738.008-.406 0-.808.008-1.207.008h-.922c-.23 0-.457-.008-.683-.008h-.2c-.23 0-.456-.008-.683-.008-.121 0-.234-.008-.355-.008h.624c.211 0 .422-.007.633-.007.176 0 .348 0 .524-.012h2.09c.254 0 .496.012.746.012.293 0 .59.007.883.007Zm-.046 4.063q-.098-.002-.195.008c-.219 0-.438.008-.656.008-.235 0-.477 0-.711.007-.528.008-1.055.008-1.59.008h-.965c-.176 0-.356 0-.531-.008q-.244.002-.489-.008c-.097 0-.203-.007-.3-.007h.472c.145 0 .29-.008.438-.008h.445c.273 0 .543-.008.816-.008h.926c.281 0 .574 0 .856.008.234 0 .465.008.699.008.25 0 .508.008.762.008.015-.016.015-.016.023-.016m-5.418-4.176h.727c.195 0 .382 0 .574-.008.254 0 .504-.008.754-.008h1.742c.258 0 .512.008.77.008.257 0 .511.008.769.008h.016-.153c-.25 0-.504.008-.754.008-.203 0-.406.008-.617.008-.332 0-.672.008-1.004.008h-.98c-.227 0-.453-.008-.68-.008-.234 0-.469-.008-.703-.008q-.234.002-.46-.008m.077 4.281h.664q.419.002.836-.007c.52-.008 1.028-.008 1.547-.008h.617c.211 0 .418 0 .63.008.245 0 .487.007.737.007h.211c-.09 0-.18.008-.277.008q-.228-.002-.46.008c-.177 0-.356.008-.544.008h-1.933c-.211 0-.415 0-.625-.008-.204 0-.399 0-.598-.008h-.406c-.13 0-.258 0-.399-.008.008.008 0 .008 0 0m.016-4.394h.488c.188 0 .363-.008.55-.008h.552q.422.002.851-.008h1.082c.278 0 .563.008.836.008.211 0 .43.008.64.008h.204c-.148 0-.293.008-.438.008q-.28-.002-.566.007c-.332 0-.664.008-1.008.008H12.2c-.277 0-.55 0-.828-.008-.219 0-.43-.007-.648-.007h-.332q-.145.002-.301-.008m.065 4.508h.73c.31 0 .606-.008.915-.008h1.71c.192 0 .38 0 .575.008.195 0 .387.007.582.007h.543H15c-.285 0-.566.008-.852.008-.289 0-.574.008-.867.008h-1.738c-.3 0-.602-.008-.898-.008-.172-.008-.325-.008-.489-.015m5.032-4.614q-.137-.002-.262.008c-.258 0-.516.008-.785.008-.29 0-.582.008-.875.008h-1.75q-.375.002-.75-.008c-.188 0-.375-.008-.559-.008h.734c.254 0 .504-.008.754-.008h1.586c.285 0 .563 0 .844.008.348 0 .695.008 1.047.008 0-.016.008-.016.015-.016m-4.925 4.727h.8c.27 0 .543-.012.813-.012h1.086c.363 0 .719 0 1.082.012.277 0 .559.008.836.008.074 0 .144 0 .219.008h-.227c-.234 0-.469 0-.715.007q-.955.01-1.918.008h-.687c-.27 0-.535-.008-.805-.008-.16 0-.32-.007-.484-.007.008-.016 0-.016 0-.016m4.812-4.839h-.195c-.195 0-.39.01-.582.01h-.39c-.56.009-1.126.009-1.684.009h-.672c-.254 0-.504-.008-.754-.008-.164 0-.324-.012-.488-.012h.859c.559 0 1.117-.008 1.668-.008h1.086c.316 0 .633.008.95.008Zm-4.699 4.948h.836c.219 0 .445-.008.664-.008h1.059c.375 0 .738 0 1.109.008.227 0 .465 0 .691.008q.119-.002.243.008-.133-.002-.278.008c-.25 0-.508.011-.761.011-.208 0-.426 0-.637.008h-1.215c-.375 0-.738 0-1.11-.008-.156 0-.316-.011-.472-.011-.031-.024-.078-.024-.129-.024m.059-5.058q2.244-.024 4.5 0h-.168c-.211 0-.414.008-.625.008h-2.274c-.226 0-.465 0-.691-.008h-.38q-.193.012-.362 0m.086 5.164q2.18-.024 4.343 0h-.234c-.219 0-.438.008-.656.008h-2.18c-.3 0-.61 0-.906-.008a3 3 0 0 1-.367 0m.035-5.27c1.418-.015 2.843-.015 4.258 0h-.2c-.117 0-.238 0-.351.008h-2c-.348 0-.688 0-1.035-.008-.22.008-.446 0-.672 0m.097 5.383q2.027-.024 4.055 0h-.273c-.356 0-.715.008-1.063.008h-1.976c-.25 0-.493 0-.743-.008m.048-5.497c.308-.007 3.605-.007 3.952 0h-.226c-.375.009-.746.009-1.117.009h-2.204c-.12 0-.253-.008-.375-.008Zm.12 5.61c.325-.008 3.328-.008 3.727 0h-.266c-.324 0-.656.008-.98.008h-2.02c-.16-.008-.304-.008-.46-.008m3.659-5.722h-.175c-.172 0-.332.007-.504.007h-2.485c-.148 0-.3-.007-.445-.007a278 278 0 0 1 3.61 0m-.129 5.824c-.43.015-2.688.015-3.375 0q1.698-.012 3.375 0m-.039-5.926q-1.618.024-3.235 0c.09-.008 3.07-.008 3.235 0m-3.11 6.039a181 181 0 0 1 2.945 0h-.21q-.206-.002-.41.008h-1.532c-.172 0-.34 0-.512-.008Zm.078-6.152q1.402-.012 2.805 0c-.309 0-.625.008-.934.008h-.93c-.316 0-.624-.008-.94-.008m.148 6.265q1.224-.01 2.453 0-1.23.012-2.453 0m.16-6.378h2.226c-.734.007-1.48.007-2.226 0m0 0"/><g clip-path="url(#p)"><path fill="#0072a1" d="M11.816 19.004h1.735a64 64 0 0 1-1.735 0m0 0"/></g><path fill="#0072a1" d="M11.98 12.406h1.399c-.469.008-.938.008-1.399 0M9.273 16.04h.504c.153 0 .313-.009.47-.009.128 0 .257-.008.386-.008.14 0 .285-.007.422-.007.14 0 .277-.008.414-.008.152 0 .316-.008.469-.008.164 0 .332-.012.496-.012h.113-.227c-.21 0-.422-.008-.625-.008-.144 0-.293-.007-.43-.007-.144 0-.28-.008-.43-.008-.12 0-.233-.008-.355-.008-.136 0-.265-.008-.406-.008-.168 0-.347-.008-.515-.008-.098 0-.196-.007-.293-.007h.324c.144 0 .293-.008.437-.008h.18c.16 0 .313-.008.477-.008h.175c.133 0 .262-.008.391-.008.172 0 .348-.008.52-.008.152 0 .296-.007.453-.007.062 0 .12 0 .187-.008h-.246c-.144 0-.297-.008-.445-.008-.13 0-.266 0-.395-.008-.156 0-.308-.008-.465-.008-.136 0-.273-.008-.41-.008-.129 0-.261-.011-.383-.011q-.193.002-.386-.008c-.137 0-.278-.008-.414-.008h.504c.152 0 .304-.008.46-.008.13 0 .258-.008.387-.008.14 0 .278-.007.414-.007.137 0 .266-.008.406-.008.16 0 .333-.008.493-.008.129 0 .27 0 .398-.008h.082c-.058 0-.105 0-.164-.008-.144 0-.3-.007-.445-.007q-.147.002-.293-.008h-.274c-.12 0-.242-.008-.363-.008q-.186.002-.367-.008c-.168 0-.332-.008-.5-.008-.164 0-.324-.007-.488-.007-.079 0-.16-.008-.243-.008h.512c.137 0 .266-.008.402-.008.133 0 .262-.012.391-.012.145 0 .293-.008.445-.008.122 0 .235-.007.356-.007.129 0 .27-.008.398-.008.203 0 .414-.008.614-.008h.02-.15c-.152 0-.3-.008-.452-.008q-.134.002-.274-.008h-.277c-.145 0-.301-.007-.445-.007q-.172.002-.333-.008c-.128 0-.265-.008-.398-.008-.121 0-.234-.008-.355-.008-.145 0-.29-.008-.438-.008h.488c.13 0 .258-.008.387-.008.121 0 .25 0 .375-.007.113 0 .219-.008.332-.008.2 0 .395-.008.598-.008.144 0 .293-.008.445-.008.18 0 .363-.011.543-.011h.023c-.082 0-.152 0-.234-.008-.121 0-.234 0-.355-.008-.18 0-.356-.008-.536-.008-.16 0-.324-.008-.484-.008q-.133.002-.277-.008c-.13 0-.25-.007-.38-.007h-.179c-.137 0-.285 0-.422-.008-.113 0-.218-.008-.332-.008h.512c.129 0 .258-.008.379-.008.156 0 .316-.008.473-.008.136 0 .28-.007.418-.007.14 0 .269-.008.406-.008.16 0 .324-.008.484-.008.18 0 .36-.008.535-.008h.594c.227 0 .453.008.672.008.168 0 .34.008.508.008.14 0 .277.008.414.008s.277.007.414.007c.152 0 .3.008.453.008.187 0 .363.008.55.008h.016c-.09 0-.16.008-.242.008-.137 0-.285 0-.422.008-.144 0-.3.007-.445.007-.121 0-.242.008-.371.008-.113 0-.234.008-.348.008-.117 0-.238.008-.351.008-.098 0-.192 0-.29.008h-.171c-.188 0-.364.008-.551.008h.355c.141 0 .286.011.422.011.172 0 .34.008.512.008.145 0 .29.008.43.008.152 0 .297.008.453.008.12 0 .25.007.37.007.18 0 .349.008.528.008h.121c-.082 0-.16.008-.242.008q-.205-.002-.422.008c-.136 0-.28.008-.422.008-.144 0-.289.008-.437.008-.121 0-.25.007-.371.007-.137 0-.277.008-.414.008-.16 0-.324.008-.485.008-.113 0-.226.008-.34.008h.297q.16-.002.309.008c.098 0 .188 0 .285.007.121 0 .242.008.371.008.157 0 .301.012.453.012.149 0 .293.008.43.008s.285.008.422.008c.195 0 .379.007.574.007h-.055c-.164 0-.324.008-.488.008-.12 0-.242.008-.37.008-.165 0-.325.008-.497.008-.145 0-.289.008-.437.008-.153 0-.305.007-.461.007-.137 0-.266.008-.403.008-.125 0-.246.008-.367.008H13h.25c.156 0 .309.008.46.008h.122c.125 0 .254 0 .375.008.137 0 .281.008.422.008.144 0 .297.007.445.007.121 0 .242.008.371.008.18 0 .364.008.543.008h.121c-.054 0-.113 0-.16.008-.105 0-.219 0-.324.011-.098 0-.187 0-.285.008-.098 0-.188 0-.281.008-.133 0-.262.008-.383.008-.114 0-.235.008-.348.008-.152 0-.308.008-.46.008q-.208-.002-.415.007c-.129 0-.265.008-.398.008h-.106.293c.106 0 .219 0 .324.008.106 0 .204 0 .309.008.121 0 .25.008.371.008s.234.007.356.007c.171 0 .351.008.52.008.155 0 .308.008.46.008a7 7 0 0 1 .535.016c-.047 0-.105 0-.152.007-.164 0-.332.008-.496.008-.153 0-.297.012-.453.012-.137 0-.266.008-.403.008-.148 0-.293.008-.449.008h-.25c-.105 0-.203.007-.309.007h-.25c-.168 0-.347.008-.52.008h-.023.376c.12 0 .25 0 .37.008h.25c.141 0 .278.008.422.008.145 0 .301.008.446.008.136 0 .277.008.422.008s.293.007.437.007c.195 0 .38.008.574.008-.129 0-.257.008-.386.008-.141 0-.286.008-.422.008h-.27c-.12 0-.242.008-.363.008-.152 0-.316.007-.469.007-.129 0-.261.008-.39.008-.153 0-.297.008-.454.008-.187 0-.37.008-.55.008h-.52c-.16 0-.332-.008-.492-.008-.145 0-.293-.008-.43-.008-.136 0-.265-.008-.406-.008-.152 0-.305-.007-.46-.007-.145 0-.302-.008-.446-.008q-.181.002-.364-.008c-.156-.04-.285-.04-.414-.047m3.313-.052h.016Zm-3.289-.608h.172c.16 0 .324-.008.492-.008h.254c.129 0 .25-.008.379-.008.152 0 .3-.008.453-.008.121 0 .242-.007.363-.007.133 0 .262-.008.39-.008.122 0 .235 0 .356-.008h1.153c.168 0 .34.008.5.008.148 0 .293.008.43.008.136 0 .277.007.413.007.137 0 .266.008.407.008.152 0 .304.008.453.008.183 0 .37.008.55.008h.008c-.129 0-.261.008-.39.008-.145 0-.29.008-.438.008h-.25c-.12 0-.234.007-.355.007-.157 0-.309.008-.461.008-.133 0-.262.008-.383.008-.137 0-.273.012-.414.012-.145 0-.297.008-.445.008h-.567c-.187 0-.37-.008-.566-.008-.18 0-.356-.012-.535-.012-.243-.008-.477-.008-.72-.016-.171 0-.35-.007-.519-.007-.172 0-.347-.008-.52-.008-.062 0-.136-.008-.21-.008m0 0"/><path fill="#0072a1" d="M9.305 16.152c.156 0 .3 0 .457-.007.144 0 .289-.012.425-.012.157 0 .31-.008.465-.008.145 0 .282-.008.426-.008.133 0 .262-.008.39-.008.145 0 .294-.007.438-.007.137 0 .285-.008.422-.008h.996c.16 0 .324.008.492.008.149 0 .293.007.43.007s.27.008.406.008c.137 0 .282.008.422.008.145 0 .29.008.438.008.191 0 .379.012.574.012h.016c-.055 0-.114 0-.16.007-.133 0-.27.008-.399.008-.137 0-.277.008-.414.008h-.152c-.114 0-.235.008-.348.008s-.227.008-.34.008q-.135-.002-.27.007h-.226c-.234 0-.477.008-.711.008h-.594c-.21 0-.422-.008-.629-.008-.14 0-.285 0-.421-.007-.114 0-.227-.008-.34-.008-.164 0-.332-.008-.496-.008-.188 0-.372-.008-.559-.008-.121 0-.234 0-.355-.008-.137.008-.262 0-.383 0m.019-.886h.297c.156 0 .3-.008.453-.008.203 0 .406-.008.602-.008.144 0 .281-.008.43-.008.136 0 .28-.008.421-.008.176 0 .364 0 .54-.007q.497-.012.995 0c.204 0 .407.007.602.007.188 0 .371.008.559.008.136 0 .273.008.414.008.136 0 .281.008.422.008.152 0 .296.008.453.008.183 0 .37.007.566.007h-.074q-.238.01-.477.008c-.082 0-.172 0-.25.012-.09 0-.18 0-.261.008-.13 0-.258.008-.387.008-.156 0-.316.007-.473.007-.152 0-.297.008-.453.008-.203 0-.402.008-.605.008-.243.008-.489 0-.723 0-.203 0-.402-.008-.613-.008-.149 0-.301-.008-.446-.008-.156 0-.308-.007-.464-.007h-.2c-.14 0-.27-.008-.406-.008-.187 0-.371-.008-.566-.008-.121-.02-.242-.02-.356-.027m0 0"/><path fill="#0072a1" d="M16.07 16.254c-.05 0-.105 0-.156.008-.176 0-.348.008-.523.008-.157 0-.301.011-.457.011-.153 0-.297.008-.454.008-.128 0-.257.008-.386.008-.164 0-.324.008-.489.008-.199 0-.41.008-.613.008h-.617c-.184 0-.371 0-.55-.008-.153 0-.317-.008-.47-.008-.136 0-.277-.008-.414-.008-.144 0-.289-.008-.43-.008-.152 0-.296-.011-.452-.011-.168 0-.34-.008-.5-.008-.082 0-.164-.008-.246-.008h.195c.113 0 .219 0 .332-.008q.135.002.27-.008c.097 0 .19 0 .288-.008.09 0 .188 0 .278-.007.113 0 .226-.008.34-.008.129 0 .257-.008.386-.008.141 0 .278-.008.414-.008h.235c.172 0 .34-.008.504-.008h.582c.21 0 .414.008.625.008.152 0 .3.008.453.008.129 0 .265.008.398.008.137 0 .282.008.418.008.156 0 .309.007.465.007.2.024.387.024.574.024m-6.746-1.098h.395c.187 0 .37-.008.558-.008.149 0 .293-.011.446-.011.136 0 .277-.008.414-.008.152 0 .308-.008.46-.008.137 0 .286-.008.423-.008.18 0 .347-.008.527-.008h.543c.21 0 .422.008.629.008.156 0 .308.008.465.008.152 0 .296.008.453.008.12 0 .25.008.37.008.138 0 .27.011.407.011.152 0 .3.008.453.008h.219c-.059 0-.113 0-.172.008-.105 0-.21.008-.324.008-.176 0-.356.008-.543.008-.184 0-.371.008-.55.008q-.183-.002-.364.007c-.137 0-.266.008-.403.008-.164 0-.332.008-.496.008-.21 0-.43.008-.64.008q-.342.002-.672-.008c-.152 0-.317-.008-.469-.008-.156 0-.316-.008-.469-.008-.156 0-.3-.008-.457-.008-.144 0-.289-.007-.437-.007-.168 0-.328-.008-.5-.008-.106-.008-.188-.008-.266-.016m0 0"/><path fill="#0072a1" d="M9.332 16.367h.332c.106 0 .211 0 .324-.008q.13.002.266-.007c.137 0 .273-.008.414-.008.152 0 .309-.008.46-.008.153 0 .31-.008.462-.008.137 0 .285-.008.422-.008.258 0 .511-.008.77-.008h.323c.211 0 .422.008.633.008.137 0 .282.008.418.008.164 0 .332.008.496.008.114 0 .22 0 .332.008.137 0 .282.008.422.008.145 0 .281.007.43.007.062 0 .137 0 .2.008h-.04c-.137.008-.281.008-.422.008-.183 0-.37.008-.558.008-.184 0-.364.008-.551.008-.145 0-.3.007-.445.007q-.133-.002-.266.008c-.149 0-.293.008-.438.008H12.11c-.12 0-.25 0-.375-.008h-.289c-.156 0-.308-.008-.46-.008-.141 0-.27-.007-.407-.007-.129 0-.27-.008-.398-.008-.137 0-.266-.008-.403-.008h-.21c-.09 0-.165-.008-.235-.008m6.702-1.317c-.137 0-.265.009-.402.009-.149 0-.293.007-.438.007h-.261c-.13 0-.258.008-.387.008-.164 0-.317.008-.477.008-.14 0-.277.008-.422.008-.171 0-.332.008-.503.008h-.614q-.328.002-.656-.008c-.164 0-.332-.008-.496-.008-.145 0-.29-.008-.445-.008-.13 0-.266-.008-.395-.008-.164 0-.316-.007-.48-.007-.145 0-.282 0-.43-.008-.106 0-.203-.008-.305-.008h.508c.137 0 .277-.008.414-.008.16 0 .324-.008.484-.008.157 0 .301-.007.454-.007.156 0 .316-.008.472-.008.25 0 .492-.008.742-.008h.489c.21 0 .414 0 .625.008.183 0 .37.008.55.008.16 0 .32.007.493.007.16 0 .332.008.492.008h.219c.125 0 .238 0 .359.008q.194-.002.387.008Zm-.015 1.43c-.176 0-.348.008-.524.008-.113 0-.23 0-.332.008h-.254c-.12 0-.25.008-.37.008-.18 0-.364.008-.544.008-.152 0-.316.008-.469.008-.18 0-.347 0-.527.007h-.746c-.188 0-.363-.007-.55-.007h-.196c-.153 0-.305-.008-.461-.008q-.147.002-.29-.008c-.14 0-.277-.008-.413-.008h-.196q-.203.002-.414-.008c-.12 0-.25-.008-.37-.008.136 0 .28 0 .421-.007.192 0 .38-.008.574-.008.145 0 .286-.008.43-.008s.281-.008.43-.008c.152 0 .308-.008.46-.008.235 0 .477-.007.712-.007h.488a21 21 0 0 1 .664.007c.195 0 .387.008.582.008.145 0 .293.008.438.008.144 0 .285.008.43.008.152 0 .308.008.46.008.18 0 .375 0 .567.007m-.008-1.542h-.098c-.152 0-.316.007-.469.007-.12 0-.25.008-.37.008-.212 0-.415.008-.626.008-.129 0-.258.008-.379.008q-.236-.002-.472.008a64 64 0 0 1-1.223.007h-.387c-.18 0-.36-.007-.535-.007-.121 0-.234 0-.355-.008-.18 0-.352-.008-.528-.008-.144 0-.293-.008-.445-.008-.172 0-.348-.008-.52-.008-.082 0-.152-.008-.234-.008h.504c.137 0 .273-.007.41-.007.172 0 .332-.008.504-.008h.445q.147.002.293-.008c.227 0 .461-.008.688-.008h1.336c.168 0 .34.008.511.008.153 0 .305.008.461.008.137 0 .282.008.422.008.168 0 .332.008.5.008.114 0 .235 0 .348.007q.112-.01.219-.008m-.032 1.657c-.136 0-.265.008-.406.008-.144 0-.289.007-.43.007-.097 0-.19 0-.289.008-.14 0-.277.008-.414.008s-.265.008-.406.008c-.105 0-.203 0-.305.008-.156 0-.308 0-.464.007h-.832q-.38.002-.754-.007c-.196 0-.399-.008-.59-.008-.149 0-.3 0-.445-.008-.172 0-.336-.008-.504-.008q-.17.002-.34-.008c-.13 0-.27-.007-.399-.007h.496c.137 0 .274-.008.41-.008.165 0 .325-.008.497-.008.113 0 .234 0 .347-.008.172 0 .332-.008.504-.008.235 0 .461-.011.696-.011h1.078c.195 0 .386.011.582.011.172 0 .332.008.504.008.152 0 .297.008.453.008.144 0 .289.008.445.008.176-.008.371-.008.566 0 0-.008 0 0 0 0m-6.593-1.77c.136 0 .277 0 .414-.008.195 0 .386-.007.582-.007.156 0 .308-.008.46-.008.157 0 .317-.008.473-.008.176 0 .356-.008.543-.008h1.563c.191 0 .387.008.582.008.152 0 .3.008.453.008.164 0 .324.008.488.008.153 0 .297.007.453.007.192 0 .387.008.582.008-.128 0-.257.008-.39.008h-.313c-.156 0-.3.008-.457.008-.152 0-.312.008-.468.008-.153 0-.301.011-.454.011-.136 0-.273.008-.414.008-.257 0-.515.008-.785.008h-.613c-.133 0-.27 0-.399-.008-.105 0-.218 0-.324-.008-.105 0-.203 0-.308-.011-.153 0-.309-.008-.461-.008-.137 0-.285-.008-.422-.008-.184 0-.371-.008-.559-.008a1 1 0 0 1-.226 0c0 .008 0 0 0 0m0 0"/><path fill="#0072a1" d="M15.965 16.695c-.203 0-.406.012-.602.012-.191 0-.379.008-.574.008-.152 0-.316.008-.469.008-.172 0-.332.007-.504.007-.257 0-.507.008-.77.008h-.573c-.235 0-.461 0-.696-.008-.203 0-.398-.007-.601-.007-.168 0-.332-.008-.5-.008-.164 0-.317-.008-.48-.008-.176 0-.356-.012-.532-.012-.082 0-.156-.008-.238-.008h.527c.156 0 .309-.007.461-.007.156 0 .309-.008.465-.008.144 0 .289-.008.437-.008q.266.002.532-.008c.367-.008.738-.008 1.101-.008h.496c.188 0 .371.008.559.008.144 0 .293.008.437.008.153 0 .309.008.461.008.157 0 .301.008.453.008.196.008.407.015.61.015m-6.539-1.972h.52c.171 0 .331-.012.503-.012.153 0 .309-.008.461-.008.16 0 .324-.008.492-.008.211 0 .422 0 .625-.008.332-.007.657-.007.989 0 .25 0 .511.008.761.008.203 0 .414.008.618.008.152 0 .304.008.46.008.153 0 .31.012.461.012.211 0 .414.007.625.007h.016-.156c-.184 0-.371.008-.567.008-.152 0-.308.008-.46.008-.172 0-.348.008-.52.008q-.206-.002-.41.008c-.172 0-.332.008-.504.008h-.965c-.195 0-.379 0-.574-.008-.211 0-.422-.008-.633-.008q-.194.002-.387-.008c-.129 0-.254-.008-.383-.008-.203 0-.41-.008-.613-.008-.113 0-.234-.007-.36-.007m.001 2.086h.36q.18.002.362-.008h.293c.137 0 .266-.008.403-.008.14 0 .277-.008.414-.008.09 0 .18 0 .258-.008.164 0 .324 0 .496-.007.324 0 .656-.008.98 0 .258 0 .52.007.778.007.203 0 .406.008.597.008.156 0 .309.008.465.008.16 0 .332.008.492.008.196 0 .38.008.574.008h.008-.062q-.26.009-.52.007c-.097 0-.187 0-.285.008-.105 0-.2 0-.305.008-.148 0-.293.008-.437.008-.156 0-.309.012-.465.012-.129 0-.266.007-.395.007h-.996c-.234 0-.46 0-.695-.007-.203 0-.398-.012-.601-.012q-.219.002-.438-.008c-.16 0-.324-.008-.492-.008-.18 0-.36-.008-.535-.008-.059 0-.157-.007-.254-.007m6.48-2.192c-.176 0-.355.008-.535.008-.105 0-.2 0-.305.008q-.146-.002-.293.008c-.136 0-.277 0-.414.007-.168 0-.332.008-.5.008q-.54.01-1.062.008h-1.035c-.188 0-.375-.008-.559-.008-.098 0-.203 0-.3-.008-.098 0-.204 0-.301-.007-.098 0-.204 0-.301-.008-.153 0-.313-.008-.469-.008-.121 0-.242-.008-.371-.008h.559c.16 0 .324-.008.484-.008.172 0 .332-.007.504-.007.168 0 .332-.008.5-.008.254 0 .504-.008.754-.008h.754c.226 0 .453 0 .672.008.218 0 .437.008.656.008.164 0 .332.007.496.007.152 0 .312.008.469.008a5 5 0 0 1 .597 0q0-.012 0 0m-6.414 2.297h.551c.098 0 .187 0 .285-.008.168 0 .332-.008.5-.008q.159.002.317-.007h.332c.21 0 .414-.008.625-.008h.953c.21 0 .422 0 .625.008.21 0 .422.007.633.007.16 0 .324.008.484.008.164 0 .324.008.496.008.184 0 .371.008.559.008h.015-.082c-.16 0-.324.008-.484.008-.098 0-.203 0-.301.008q-.181-.002-.363.007c-.172 0-.332.008-.504.008-.203 0-.403.008-.606.008q-.597.012-1.199 0h-.437c-.157 0-.317 0-.47-.008-.187 0-.374-.008-.57-.008-.183 0-.37-.008-.558-.008-.191 0-.395-.007-.59-.007-.074-.008-.144-.008-.21-.016m6.382-2.41h-.09c-.16 0-.332.008-.492.008-.14 0-.277.008-.414.008-.195 0-.39.007-.582.007-.203 0-.399.008-.602.008-.363 0-.734.008-1.101.008h-.711c-.188 0-.383-.008-.567-.008-.164 0-.324-.008-.488-.008-.144 0-.289-.007-.445-.007-.153 0-.301 0-.453-.008-.145 0-.293-.008-.438-.008h.567c.171 0 .34-.008.504-.008.16 0 .332-.008.492-.008.187 0 .375-.008.558-.008.246 0 .489-.007.723-.007h1.133c.234 0 .46.007.695.007.164 0 .316.008.48.008.196 0 .387.008.583.008.21 0 .414.008.625.008q.01-.012.023 0m-.023 2.523c-.043 0-.09 0-.13.008-.156 0-.308.008-.464.008q-.17-.002-.34.008h-.29c-.163 0-.323.008-.487.008-.153 0-.309.007-.461.007-.188 0-.371 0-.567.008h-.672q-.392.002-.777-.008c-.219 0-.437-.007-.664-.007-.187 0-.375-.008-.559-.008-.21 0-.421-.008-.632-.008-.09 0-.172-.008-.258-.008h.515c.149 0 .293-.008.446-.008.148 0 .3-.007.445-.007.121 0 .238-.008.36-.008h.25c.226 0 .445-.008.671-.008h1.426c.16 0 .324.008.492.008q.222-.002.438.008c.148 0 .293.007.437.007.227 0 .465.008.692.008.039-.008.078-.008.129-.008M9.559 14.39h.558c.168 0 .348-.007.516-.007.172 0 .344-.008.512-.008.203 0 .414-.008.617-.008.402-.008.8-.008 1.207-.008h.574q.216-.002.437.008c.122 0 .243.008.372.008h.316c.187 0 .371.008.559.008q.193-.002.382.008c.063 0 .137 0 .2.007h-.086c-.211 0-.43.008-.641.008-.172 0-.34.008-.504.008-.183 0-.371.008-.566.008-.196 0-.387 0-.582.008q-.562.016-1.117 0c-.235 0-.481-.008-.715-.008-.176 0-.356-.008-.536-.008h-.175c-.18 0-.348-.008-.528-.008s-.347-.008-.527-.008c-.098 0-.187-.007-.273-.007m6.234 2.749c-.203 0-.395.008-.598.008q-.17-.002-.34.008H14.7c-.226 0-.46.008-.687.008s-.453.008-.68.008c-.27 0-.527.008-.793 0-.254 0-.496 0-.746-.008h-.285c-.184 0-.371 0-.551-.008-.184 0-.371-.008-.566-.008-.121 0-.235 0-.356-.007-.16 0-.324-.012-.484-.012h.55c.153 0 .305-.008.461-.008.196 0 .395-.008.59-.008.075 0 .157 0 .227-.008h.324c.406-.007.82-.007 1.223-.007h.574c.203 0 .414.007.617.007.18 0 .348.008.528.008.168 0 .34.008.507.008.22.008.43.008.641.02m-6.196-2.864h.574c.172 0 .348-.007.52-.007.195 0 .386-.008.581-.008q.196.002.391-.008c.219 0 .445-.008.664-.008h.996c.235 0 .461.008.696.008.187 0 .375.008.558.008.18 0 .348.008.527.008.211 0 .422.007.625.007h.008-.097c-.157 0-.301.008-.453.008-.114 0-.22 0-.333.012h-.195c-.172 0-.332.008-.504.008h-.25c-.187 0-.37.008-.566.008h-1.063q-.327.002-.656-.008c-.234 0-.469-.008-.703-.008-.172 0-.34-.012-.512-.012-.183 0-.37-.008-.558-.008-.063.008-.16.008-.25 0m6.148 2.973h-.129c-.156 0-.3.008-.453.008-.133 0-.27 0-.398.008h-.301c-.195 0-.395.011-.59.011-.324 0-.64.008-.965.008h-1.19c-.176 0-.364 0-.543-.008-.219 0-.446-.011-.664-.011-.211 0-.422-.008-.63-.008-.081 0-.163-.008-.245-.008h.55c.165 0 .325-.008.497-.008.195 0 .394-.008.59-.008s.39-.007.585-.007c.297 0 .59 0 .891-.008h.574c.176 0 .348 0 .528.008.218 0 .437.007.656.007.191 0 .387.008.582.008q.316-.002.656.008m-.009-3.074c-.226 0-.453.008-.672.008-.195 0-.398.007-.593.007-.16 0-.325.008-.485.008-.3 0-.601.008-.898.008h-1.16c-.16 0-.325 0-.485-.008h-.39c-.153 0-.317-.008-.47-.008-.218 0-.429-.007-.648-.007-.097 0-.187-.008-.28-.008h.28c.165 0 .325-.008.489-.008h.332c.176 0 .347-.008.523-.008.188 0 .367-.008.551-.008h1.184c.293 0 .59 0 .882.008.204 0 .407.008.61.008.183 0 .363.008.55.008.22 0 .438.008.657.008q.012-.022.023-.008c0-.008 0 0 0 0m-.05 3.187c-.22 0-.438.008-.657.008-.105 0-.21 0-.304.008q-.187-.002-.368.008c-.129 0-.25 0-.379.008h-.437q-.53-.002-1.063.007h-.535c-.265 0-.523-.007-.793-.007-.187 0-.37-.008-.558-.008-.211 0-.422-.008-.633-.008-.078 0-.16-.008-.242-.008h.566c.18 0 .367-.008.543-.008.203 0 .414-.008.617-.008.282 0 .567-.007.86-.007h.515c.278 0 .543 0 .82.007h.243c.21 0 .43.008.64.008.16 0 .332.008.493.008.21-.023.437-.016.672-.008q0-.012 0 0m-5.978-3.3h.407q.194.002.387-.008h.398c.16 0 .325-.008.493-.008.253 0 .503-.008.753-.008h1.614q.242-.002.484.008c.219 0 .445.008.664.008.188 0 .375 0 .55.008q.092-.002.18.007h-.074c-.168.008-.347.008-.52.008-.12 0-.25 0-.37.008h-.317c-.195 0-.386.008-.582.008-.242 0-.476.008-.722.008h-1.23c-.227 0-.446 0-.673-.008-.187 0-.379-.008-.566-.008-.203 0-.406-.008-.61-.008a3 3 0 0 0-.265-.015m.051 3.406h.265c.18 0 .364-.008.543-.008h.348c.219 0 .437-.008.656-.008.274 0 .543-.008.817-.008h1.347c.168 0 .34 0 .5.008.188 0 .375.008.551.008.219 0 .445.008.664.008h.164-.09c-.156 0-.308.008-.46.008h-.278c-.176 0-.355.007-.535.007-.234 0-.469.008-.703.008h-1.403q-.365.002-.718-.008c-.262 0-.512-.007-.77-.007-.21 0-.422-.008-.633-.008-.082.008-.172 0-.265 0m5.812-3.519c-.07 0-.136 0-.21.007-.122 0-.235 0-.356.008q-.196-.002-.38.008-.199-.002-.382.007-.25-.002-.5.008h-1.379c-.265 0-.543-.008-.808-.008h-.235c-.12 0-.246 0-.367-.007h-.2c-.23 0-.456-.008-.675-.008-.105 0-.207-.008-.305-.008h.621c.165 0 .317 0 .48-.008.235 0 .477-.008.712-.008.21 0 .422-.007.633-.007h.859q.35-.002.711.007.244-.002.488.008c.207 0 .418.008.63.008.171 0 .347 0 .519.008.039-.016.097-.016.144-.016m-.031 3.633h-.195c-.22 0-.43.008-.649.008-.176 0-.355.008-.535.008-.273 0-.55.007-.824.007h-1.887c-.226 0-.453-.007-.672-.007s-.445-.008-.664-.008c-.097 0-.187-.008-.285-.008h.61c.21 0 .417-.008.62-.008.235 0 .473-.008.708-.008.183 0 .363 0 .55-.007h1.172c.219 0 .438.007.664.007q.283-.002.559.008c.187 0 .375.008.562.008a1.5 1.5 0 0 1 .266 0c0-.008 0 0 0 0m-.008-3.738h-.172c-.226 0-.453.008-.672.008-.218 0-.437.007-.656.007-.355 0-.703.012-1.058.012h-.368c-.355 0-.71 0-1.066-.012q-.304.002-.61-.007c-.273 0-.542-.008-.816-.008-.082 0-.164-.008-.234-.008h.62c.165 0 .317 0 .481-.008.258 0 .516-.008.778-.008.324 0 .636 0 .96-.008h.544c.27 0 .535.008.804.008.2 0 .403.008.598.008.242 0 .484.008.73.008q.06-.002.137.008m-5.645 3.84h.65c.218 0 .437-.008.663-.008.29 0 .574-.008.863-.008h1.024q.351-.002.703.008h.3q.217-.002.438.008c.153 0 .301.007.453.007h.493c-.07 0-.145 0-.22.012-.175 0-.347.008-.523.008-.187 0-.375.008-.558.008h-.254q-.329-.002-.656.008h-1.66c-.243 0-.485-.008-.72-.008-.226 0-.46-.008-.69-.008-.094-.02-.2-.02-.305-.027m5.569-3.95h-.194c-.176 0-.364.008-.54.008-.246 0-.496.008-.738.008-.406 0-.808.008-1.207.008h-.922c-.23 0-.457-.008-.683-.008h-.2c-.23 0-.456-.008-.683-.008-.121 0-.234-.008-.355-.008h.624c.211 0 .422-.007.633-.007.176 0 .348 0 .524-.012h2.09c.254 0 .496.012.746.012.293 0 .59.007.883.007Zm-.046 4.063q-.098-.002-.195.008c-.219 0-.438.008-.656.008-.235 0-.477 0-.711.007-.528.008-1.055.008-1.59.008h-.965c-.176 0-.356 0-.531-.008q-.244.002-.489-.008c-.097 0-.203-.007-.3-.007h.472c.145 0 .29-.008.438-.008h.445c.273 0 .543-.008.816-.008h.926c.281 0 .574 0 .856.008.234 0 .465.008.699.008.25 0 .508.008.762.008.015-.016.015-.016.023-.016m-5.418-4.176h.727c.195 0 .382 0 .574-.008.254 0 .504-.008.754-.008h1.742c.258 0 .512.008.77.008.257 0 .511.008.769.008h.016-.153c-.25 0-.504.008-.754.008-.203 0-.406.008-.617.008-.332 0-.672.008-1.004.008h-.98c-.227 0-.453-.008-.68-.008-.234 0-.469-.008-.703-.008q-.234.002-.46-.008m.077 4.281h.664q.419.002.836-.007c.52-.008 1.028-.008 1.547-.008h.617c.211 0 .418 0 .63.008.245 0 .487.007.737.007h.211c-.09 0-.18.008-.277.008q-.228-.002-.46.008c-.177 0-.356.008-.544.008h-1.933c-.211 0-.415 0-.625-.008-.204 0-.399 0-.598-.008h-.406c-.13 0-.258 0-.399-.008.008.008 0 .008 0 0m.016-4.394h.488c.188 0 .363-.008.55-.008h.552q.422.002.851-.008h1.082c.278 0 .563.008.836.008.211 0 .43.008.64.008h.204c-.148 0-.293.008-.438.008q-.28-.002-.566.007c-.332 0-.664.008-1.008.008H12.2c-.277 0-.55 0-.828-.008-.219 0-.43-.007-.648-.007h-.332q-.145.002-.301-.008m.065 4.508h.73c.31 0 .606-.008.915-.008h1.71c.192 0 .38 0 .575.008.195 0 .387.007.582.007h.543H15c-.285 0-.566.008-.852.008-.289 0-.574.008-.867.008h-1.738c-.3 0-.602-.008-.898-.008-.172-.008-.325-.008-.489-.015m.106.113h.8c.27 0 .543-.012.813-.012h1.086c.363 0 .719 0 1.082.012.277 0 .559.008.836.008.074 0 .144 0 .219.008h-.227c-.234 0-.469 0-.715.007q-.955.01-1.918.008h-.687c-.27 0-.535-.008-.805-.008-.16 0-.32-.007-.484-.007.008-.016 0-.016 0-.016m.113.109h.836c.219 0 .445-.008.664-.008h1.059c.375 0 .738 0 1.109.008.227 0 .465 0 .691.008q.119-.002.243.008-.133-.002-.278.008c-.25 0-.508.011-.761.011-.208 0-.426 0-.637.008h-1.215c-.375 0-.738 0-1.11-.008-.156 0-.316-.011-.472-.011-.031-.024-.078-.024-.129-.024m.059-5.058q2.244-.024 4.5 0h-.168c-.211 0-.414.008-.625.008h-2.274c-.226 0-.465 0-.691-.008h-.38q-.193.012-.362 0m.086 5.164q2.18-.024 4.343 0h-.234c-.219 0-.438.008-.656.008h-2.18c-.3 0-.61 0-.906-.008a3 3 0 0 1-.367 0m.035-5.27c1.418-.015 2.843-.015 4.258 0h-.2c-.117 0-.238 0-.351.008h-2c-.348 0-.688 0-1.035-.008-.22.008-.446 0-.672 0m.097 5.383q2.027-.024 4.055 0h-.273c-.356 0-.715.008-1.063.008h-1.976c-.25 0-.493 0-.743-.008m.048-5.497c.308-.007 3.605-.007 3.952 0h-.226c-.375.009-.746.009-1.117.009h-2.204c-.12 0-.253-.008-.375-.008Zm.12 5.61c.325-.008 3.328-.008 3.727 0h-.266c-.324 0-.656.008-.98.008h-2.02c-.16-.008-.304-.008-.46-.008m3.659-5.722h-.175c-.172 0-.332.007-.504.007h-2.485c-.148 0-.3-.007-.445-.007a278 278 0 0 1 3.61 0m-.129 5.824c-.43.015-2.688.015-3.375 0q1.698-.012 3.375 0m-.039-5.926q-1.618.024-3.235 0c.09-.008 3.07-.008 3.235 0m-3.11 6.039a181 181 0 0 1 2.945 0h-.21q-.206-.002-.41.008h-1.532c-.172 0-.34 0-.512-.008Zm.078-6.152q1.402-.012 2.805 0c-.309 0-.625.008-.934.008h-.93c-.316 0-.624-.008-.94-.008m.148 6.265q1.224-.01 2.453 0-1.23.012-2.453 0m.16-6.378h2.226c-.734.007-1.48.007-2.226 0m0 0"/><g clip-path="url(#q)"><path fill="#0072a1" d="M11.816 19.004h1.735a64 64 0 0 1-1.735 0m0 0"/></g><path fill="#0072a1" d="M11.98 12.406h1.399c-.469.008-.938.008-1.399 0m1.43 1.641c.453.195.813.555.992 1.004a1.78 1.78 0 0 1-1.015 2.347c-.418.16-.88.165-1.305.012a1.88 1.88 0 0 1-1.102-1.047A1.78 1.78 0 0 1 12 14.016a1.9 1.9 0 0 1 1.41.03m-2.004 1.11c-.144.331-.148.71-.008 1.046a1.426 1.426 0 0 0 1.82.785 1.35 1.35 0 0 0 .77-1.777 1.42 1.42 0 0 0-1.82-.781 1.34 1.34 0 0 0-.762.726m0 0"/><path fill="#fff" fill-rule="evenodd" d="M12.691 14.297a1.413 1.413 0 1 1 .003 2.826 1.413 1.413 0 0 1-.003-2.826m0 0"/><path fill="none" stroke="#0072a1" stroke-linecap="round" stroke-linejoin="round" stroke-miterlimit="10" stroke-width=".434" d="M3.953.219c3.008 7.207 2.992 7.176 2.992 7.176m-3.476-5.29c2.5 6 2.492 5.973 2.492 5.973M5.66 1.23l2.492 5.973M3.059 4.11l1.859 4.456"/><path fill="#fff" d="M8.598 7.89c.449.192.808.555.992 1.005a1.783 1.783 0 0 1-1.02 2.347c-.414.16-.879.164-1.304.008a1.87 1.87 0 0 1-1.102-1.043 1.8 1.8 0 0 1 .012-1.39 1.77 1.77 0 0 1 1.008-.958 1.87 1.87 0 0 1 1.414.032M6.59 8.997a1.34 1.34 0 0 0-.008 1.05 1.43 1.43 0 0 0 1.82.782 1.346 1.346 0 0 0 .77-1.773 1.4 1.4 0 0 0-.836-.793 1.4 1.4 0 0 0-.984.008 1.36 1.36 0 0 0-.762.726m0 0"/><path fill="none" stroke="#0072a1" stroke-linecap="round" stroke-linejoin="round" stroke-miterlimit="10" stroke-width=".434" d="M3.953.219c3.008 7.207 2.992 7.176 2.992 7.176m-3.476-5.29c2.5 6 2.492 5.973 2.492 5.973M5.66 1.23l2.492 5.973"/><path fill="#0072a1" fill-rule="evenodd" d="M7.191 2.367a.2.2 0 0 1-.015-.07c0-.106.09-.195.195-.195.082 0 .149.046.18.117q.007.001.008.008l2.671 6.43a2.486 2.486 0 0 1-1.418 3.269 2.63 2.63 0 0 1-1.82.015 2.6 2.6 0 0 1-1.535-1.457L2.91 4.274a.22.22 0 0 1-.05-.141c0-.121.1-.219.222-.219.106 0 .195.074.219.172v.004l2.562 6.238c.211.52.625.942 1.149 1.164a2.16 2.16 0 0 0 1.636.035A2.06 2.06 0 0 0 9.824 8.81L7.191 2.375zm0 0"/><path fill="#0072a1" fill-rule="evenodd" d="M7.875 8.137a1.413 1.413 0 1 1 .002 2.823 1.413 1.413 0 0 1-.002-2.823m0 0"/></svg>