<?xml version="1.0" encoding="UTF-8"?>
<svg id="Layer_2" data-name="Layer 2" xmlns="http://www.w3.org/2000/svg" viewBox="0 0 534.77 535.08">
  <defs>
    <style>
      .cls-1 {
        fill: #33062a;
      }
    </style>
  </defs>
  <g id="Layer_1-2" data-name="Layer 1">
    <path class="cls-1" d="M267.47,0C47.31-.78-79.53,256.29,55.61,430.54c16.36,21.82,38.01,23.4,40.02-8.26,3.14-38.24-9.12-90.04,28.43-114.5,39.04-23.82,72.55,14.74,104.37,32.43,61.21,34.74,134.65-14.4,126.08-84.07-5.27-47.04-54.55-82.04-100.55-71.06-30.05,5.76-51.73,30.35-78.42,43.09-20.61,10.3-47.84,7.41-62.23-11.57-11.75-14.84-12.93-35.73-5.23-53.05,10.17-23.37,32.16-37.36,56.53-41.56,15.05-2.81,31.34-3.02,46.82-3.12,25.86.15,51.64-.55,77.62.55,97.42,3.19,161.16,58.19,158,152.89-2.69,96.24-73.17,139.36-163.27,142.41-33.33,2.6-59.28,13.08-73.65,44.78-8.24,18.04-20.68,41.12-7.47,58.79,8.48,10.46,22.81,13.54,35.64,15.12,54.68,6.41,114.46-5.95,161.44-33.18C636.94,361.28,541.93,3.9,267.84,0h-.37ZM262.94,234.61c25.46-4.89,46.48,20.63,37.61,44.74-6.26,18.96-30.01,28.05-47.34,18.13-27.99-14.86-21.68-56.83,9.38-62.8l.35-.07Z"/>
  </g>
</svg>