<?xml version="1.0" encoding="UTF-8"?>
<svg id="Layer_2" data-name="Layer 2" xmlns="http://www.w3.org/2000/svg" viewBox="0 0 917.23 225.7">
  <defs>
    <style>
      .cls-1 {
        fill: #33062a;
      }

      .cls-2 {
        fill: #b41e8e;
      }
    </style>
  </defs>
  <g id="Layer_1-2" data-name="Layer 1">
    <g>
      <path class="cls-2" d="M112.82,0C19.96-.33-33.55,108.11,23.46,181.61c6.9,9.21,16.03,9.87,16.88-3.48,1.32-16.13-3.85-37.98,11.99-48.3,16.47-10.05,30.6,6.22,44.03,13.68,25.82,14.65,56.8-6.07,53.18-35.46-2.22-19.84-23.01-34.6-42.42-29.97-12.67,2.43-21.82,12.8-33.08,18.17-8.7,4.34-20.18,3.13-26.25-4.88-4.96-6.26-5.46-15.07-2.2-22.38,4.29-9.86,13.57-15.76,23.84-17.53,6.35-1.19,13.22-1.27,19.75-1.32,10.91.06,21.78-.23,32.74.23,41.09,1.35,67.98,24.54,66.65,64.49-1.13,40.59-30.86,58.79-68.87,60.07-14.06,1.1-25,5.52-31.07,18.89-3.48,7.61-8.72,17.34-3.15,24.8,3.58,4.41,9.62,5.71,15.03,6.38,23.06,2.7,48.28-2.51,68.1-13.99C268.67,152.39,228.59,1.65,112.98,0h-.16ZM110.91,98.96c10.74-2.06,19.61,8.7,15.86,18.87-2.64,8-12.66,11.83-19.97,7.65-11.81-6.27-9.15-23.97,3.95-26.49l.15-.03Z"/>
      <g>
        <path class="cls-1" d="M280.15,70.44c0-.63.51-1.14,1.14-1.14h64.69c22.48,0,32.98,9.72,32.98,28.5v.6c0,18.72-10.5,28.45-32.98,28.45h-42.15c-.63,0-1.14.51-1.14,1.14v27.24c0,.63-.51,1.14-1.14,1.14h-20.26c-.63,0-1.14-.51-1.14-1.14v-84.78ZM339.61,111.58c10.79,0,16.7-3.46,16.7-13.3v-.42c0-9.9-5.96-13.24-16.7-13.24h-35.77c-.63,0-1.14.51-1.14,1.14v24.67c0,.63.51,1.14,1.14,1.14h35.77Z"/>
        <path class="cls-1" d="M387.34,70.44c0-.63.51-1.14,1.14-1.14h72.86c20.1,0,30.11,8.41,30.11,23.79v.48c0,10.73-5.61,19.62-19.44,21.95v.24c13.24,1.67,19.8,7.87,19.8,20.87v2.86c0,5.13.6,10.37,1.76,15.48.16.72-.37,1.4-1.11,1.4h-20.12c-.51,0-.96-.34-1.1-.83-1.39-4.96-2.03-9.85-2.03-15.33v-3.52c0-9.72-4.05-13.06-15.03-13.06h-43.17c-.63,0-1.14.51-1.14,1.14v30.46c0,.63-.51,1.14-1.14,1.14h-20.26c-.63,0-1.14-.51-1.14-1.14v-84.78ZM454.31,108.72c10.91,0,14.43-3.76,14.43-12.11v-.36c0-7.99-3.88-11.45-14.43-11.45h-43.29c-.63,0-1.14.51-1.14,1.14v21.63c0,.63.51,1.14,1.14,1.14h43.29Z"/>
        <path class="cls-1" d="M504.81,69.3h86.93c.63,0,1.14.51,1.14,1.14v13.16c0,.63-.51,1.14-1.14,1.14h-64.39c-.63,0-1.14.51-1.14,1.14v17.64c0,.63.51,1.14,1.14,1.14h64.39c.63,0,1.14.51,1.14,1.14v12.51c0,.63-.51,1.14-1.14,1.14h-64.39c-.63,0-1.14.51-1.14,1.14v19.19c0,.63.51,1.14,1.14,1.14h64.39c.63,0,1.14.51,1.14,1.14v13.16c0,.63-.51,1.14-1.14,1.14h-86.93c-.63,0-1.14-.51-1.14-1.14v-84.78c0-.63.51-1.14,1.14-1.14Z"/>
        <path class="cls-1" d="M829.16,69.3h86.93c.63,0,1.14.51,1.14,1.14v13.16c0,.63-.51,1.14-1.14,1.14h-64.39c-.63,0-1.14.51-1.14,1.14v17.64c0,.63.51,1.14,1.14,1.14h64.39c.63,0,1.14.51,1.14,1.14v12.51c0,.63-.51,1.14-1.14,1.14h-64.39c-.63,0-1.14.51-1.14,1.14v19.19c0,.63.51,1.14,1.14,1.14h64.39c.63,0,1.14.51,1.14,1.14v13.16c0,.63-.51,1.14-1.14,1.14h-86.93c-.63,0-1.14-.51-1.14-1.14v-84.78c0-.63.51-1.14,1.14-1.14Z"/>
        <path class="cls-1" d="M607.9,69.3h20.26c.63,0,1.14.51,1.14,1.14v68.26c0,.63.51,1.14,1.14,1.14h53.54c.63,0,1.14.51,1.14,1.14v14.24c0,.63-.51,1.14-1.14,1.14h-76.08c-.63,0-1.14-.51-1.14-1.14v-84.78c0-.63.51-1.14,1.14-1.14Z"/>
        <path class="cls-1" d="M695.34,69.3h20.26c.63,0,1.14.51,1.14,1.14v84.78c0,.63-.51,1.14-1.14,1.14h-20.26c-.63,0-1.14-.51-1.14-1.14v-84.78c0-.63.51-1.14,1.14-1.14Z"/>
        <path class="cls-1" d="M730.47,69.3h86.51c.63,0,1.14.51,1.14,1.14v13.16c0,.63-.51,1.14-1.14,1.14h-63.97c-.63,0-1.14.51-1.14,1.14v19.19c0,.63.51,1.14,1.14,1.14h63.97c.63,0,1.14.51,1.14,1.14v12.87c0,.63-.51,1.14-1.14,1.14h-63.97c-.63,0-1.14.51-1.14,1.14v32.72c0,.63-.51,1.14-1.14,1.14h-20.26c-.63,0-1.14-.51-1.14-1.14v-84.78c0-.63.51-1.14,1.14-1.14Z"/>
      </g>
    </g>
  </g>
</svg>