<?xml version="1.0" encoding="UTF-8" standalone="no"?>
<!DOCTYPE svg PUBLIC "-//W3C//DTD SVG 1.1//EN" "http://www.w3.org/Graphics/SVG/1.1/DTD/svg11.dtd">
<svg width="100%" height="100%" viewBox="0 0 49 27" version="1.1" xmlns="http://www.w3.org/2000/svg" xmlns:xlink="http://www.w3.org/1999/xlink" xml:space="preserve" xmlns:serif="http://www.serif.com/" style="fill-rule:evenodd;clip-rule:evenodd;stroke-linecap:round;stroke-linejoin:round;stroke-miterlimit:1.5;">
    <g transform="matrix(1,0,0,1,-48.3887,-20.6693)">
        <text x="47.65px" y="37.359px" style="font-family:'Futura-Medium', 'Futura', sans-serif;font-weight:500;font-size:10px;fill:rgb(0,114,161);">F   RMING</text>
        <text x="48.389px" y="46.359px" style="font-family:'Futura-Bold', 'Futura', sans-serif;font-weight:700;font-size:10px;fill:white;">W   RLDS</text>
    </g>
    <g transform="matrix(1,0,0,1,-269.836,-60.7814)">
        <g transform="matrix(0.111995,0,0,0.111079,281.045,76.8929)">
            <path d="M7.8,54.6L14,54.6C15.9,54.6 17.9,54.5 19.8,54.5C21.4,54.5 23,54.4 24.6,54.4C26.3,54.4 28.1,54.3 29.8,54.3C31.5,54.3 33.2,54.2 34.9,54.2C36.8,54.2 38.8,54.1 40.7,54.1C42.7,54.1 44.8,54 46.8,54L48.2,54L45.4,54C42.8,54 40.2,53.9 37.7,53.9C35.9,53.9 34.1,53.8 32.4,53.8C30.6,53.8 28.9,53.7 27.1,53.7C25.6,53.7 24.2,53.6 22.7,53.6C21,53.6 19.4,53.5 17.7,53.5C15.6,53.5 13.4,53.4 11.3,53.4C10.1,53.4 8.9,53.3 7.7,53.3L11.7,53.3C13.5,53.3 15.3,53.2 17.1,53.2L19.3,53.2C21.3,53.2 23.2,53.1 25.2,53.1L27.4,53.1C29,53.1 30.6,53 32.2,53C34.3,53 36.5,52.9 38.6,52.9C40.5,52.9 42.3,52.8 44.2,52.8C45,52.8 45.7,52.8 46.5,52.7L43.5,52.7C41.7,52.7 39.8,52.6 38,52.6C36.4,52.6 34.7,52.6 33.1,52.5C31.2,52.5 29.3,52.4 27.4,52.4C25.7,52.4 24,52.3 22.3,52.3C20.7,52.3 19.1,52.2 17.6,52.2C16,52.2 14.4,52.2 12.8,52.1C11.1,52.1 9.4,52 7.7,52L13.9,52C15.8,52 17.7,51.9 19.6,51.9C21.2,51.9 22.8,51.8 24.4,51.8C26.1,51.8 27.8,51.7 29.5,51.7C31.2,51.7 32.8,51.6 34.5,51.6C36.5,51.6 38.6,51.5 40.6,51.5C42.2,51.5 43.9,51.5 45.5,51.4L46.5,51.4C45.8,51.4 45.2,51.4 44.5,51.3C42.7,51.3 40.8,51.2 39,51.2C37.8,51.2 36.6,51.2 35.4,51.1L32,51.1C30.5,51.1 29,51 27.5,51C26,51 24.5,51 23,50.9C20.9,50.9 18.9,50.8 16.8,50.8C14.8,50.8 12.8,50.7 10.8,50.7C9.8,50.7 8.8,50.6 7.8,50.6L14.1,50.6C15.8,50.6 17.4,50.5 19.1,50.5C20.7,50.5 22.3,50.4 23.9,50.4C25.7,50.4 27.5,50.3 29.4,50.3C30.9,50.3 32.3,50.2 33.8,50.2C35.4,50.2 37.1,50.1 38.7,50.1C41.2,50.1 43.8,50 46.3,50L46.5,50L44.7,50C42.8,50 41,49.9 39.1,49.9C38,49.9 36.9,49.9 35.7,49.8L32.3,49.8C30.5,49.8 28.6,49.7 26.8,49.7C25.4,49.7 24,49.7 22.7,49.6C21.1,49.6 19.4,49.5 17.8,49.5C16.3,49.5 14.9,49.4 13.4,49.4C11.6,49.4 9.8,49.3 8,49.3L14,49.3C15.6,49.3 17.2,49.2 18.8,49.2C20.3,49.2 21.9,49.2 23.4,49.1C24.8,49.1 26.1,49 27.5,49C30,49 32.4,48.9 34.9,48.9C36.7,48.9 38.5,48.8 40.4,48.8C42.6,48.8 44.9,48.7 47.1,48.7L47.4,48.7C46.4,48.7 45.5,48.7 44.5,48.6C43,48.6 41.6,48.6 40.1,48.5C37.9,48.5 35.7,48.4 33.5,48.4C31.5,48.4 29.5,48.3 27.5,48.3C26.4,48.3 25.3,48.3 24.1,48.2C22.5,48.2 21,48.1 19.4,48.1L17.2,48.1C15.5,48.1 13.7,48.1 12,48C10.6,48 9.3,47.9 7.9,47.9L14.2,47.9C15.8,47.9 17.4,47.8 18.9,47.8C20.8,47.8 22.8,47.7 24.7,47.7C26.4,47.7 28.2,47.6 29.9,47.6C31.6,47.6 33.2,47.5 34.9,47.5C36.9,47.5 38.9,47.4 40.9,47.4C43.1,47.4 45.3,47.3 47.5,47.3L54.8,47.3C57.6,47.3 60.4,47.4 63.1,47.4C65.2,47.4 67.3,47.5 69.4,47.5C71.1,47.5 72.8,47.6 74.5,47.6C76.2,47.6 77.9,47.7 79.6,47.7C81.5,47.7 83.3,47.8 85.2,47.8C87.5,47.8 89.7,47.9 92,47.9L92.2,47.9C91.1,47.9 90.2,48 89.2,48C87.5,48 85.7,48 84,48.1C82.2,48.1 80.3,48.2 78.5,48.2C77,48.2 75.5,48.3 73.9,48.3C72.5,48.3 71,48.4 69.6,48.4C68.2,48.4 66.7,48.5 65.3,48.5C64.1,48.5 62.9,48.5 61.7,48.6L59.6,48.6C57.3,48.6 55.1,48.7 52.8,48.7L57.2,48.7C58.9,48.7 60.7,48.8 62.4,48.8C64.5,48.8 66.6,48.9 68.7,48.9C70.5,48.9 72.3,49 74,49C75.9,49 77.7,49.1 79.6,49.1C81.1,49.1 82.7,49.2 84.2,49.2C86.4,49.2 88.5,49.3 90.7,49.3L92.2,49.3C91.2,49.3 90.2,49.4 89.2,49.4C87.5,49.4 85.8,49.4 84,49.5C82.3,49.5 80.5,49.6 78.8,49.6C77,49.6 75.2,49.7 73.4,49.7C71.9,49.7 70.3,49.8 68.8,49.8C67.1,49.8 65.4,49.9 63.7,49.9C61.7,49.9 59.7,50 57.7,50C56.3,50 54.9,50.1 53.5,50.1L57.2,50.1C58.5,50.1 59.8,50.1 61,50.2C62.2,50.2 63.3,50.2 64.5,50.3C66,50.3 67.5,50.4 69.1,50.4C71,50.4 72.8,50.5 74.7,50.5C76.5,50.5 78.3,50.6 80,50.6C81.7,50.6 83.5,50.7 85.2,50.7C87.6,50.7 89.9,50.8 92.3,50.8L91.6,50.8C89.6,50.8 87.6,50.9 85.6,50.9C84.1,50.9 82.6,51 81,51C79,51 77,51.1 74.9,51.1C73.1,51.1 71.3,51.2 69.5,51.2C67.6,51.2 65.7,51.3 63.8,51.3C62.1,51.3 60.5,51.4 58.8,51.4C57.3,51.4 55.8,51.5 54.3,51.5L53.8,51.5L56.9,51.5C58.8,51.5 60.7,51.6 62.6,51.6L64.1,51.6C65.6,51.6 67.2,51.6 68.7,51.7C70.4,51.7 72.2,51.8 73.9,51.8C75.7,51.8 77.6,51.9 79.4,51.9C80.9,51.9 82.4,52 84,52C86.2,52 88.5,52.1 90.7,52.1L92.2,52.1C91.5,52.1 90.8,52.1 90.2,52.2C88.9,52.2 87.5,52.2 86.2,52.3C85,52.3 83.9,52.3 82.7,52.4C81.5,52.4 80.4,52.4 79.2,52.5C77.6,52.5 76,52.6 74.5,52.6C73.1,52.6 71.6,52.7 70.2,52.7C68.3,52.7 66.4,52.8 64.5,52.8C62.8,52.8 61.1,52.8 59.4,52.9C57.8,52.9 56.1,53 54.5,53L53.2,53L56.8,53C58.1,53 59.5,53 60.8,53.1C62.1,53.1 63.3,53.1 64.6,53.2C66.1,53.2 67.7,53.3 69.2,53.3C70.7,53.3 72.1,53.4 73.6,53.4C75.7,53.4 77.9,53.5 80,53.5C81.9,53.5 83.8,53.6 85.7,53.6C87.4,53.6 89.1,53.6 90.8,53.7C91.3,53.7 91.8,53.7 92.3,53.8C91.7,53.8 91,53.8 90.4,53.9C88.4,53.9 86.3,54 84.3,54C82.4,54 80.6,54.1 78.7,54.1C77,54.1 75.4,54.2 73.7,54.2C71.9,54.2 70.1,54.3 68.2,54.3L65.1,54.3C63.8,54.3 62.6,54.4 61.3,54.4L58.2,54.4C56.1,54.4 53.9,54.5 51.8,54.5L51.5,54.5L56.1,54.5C57.6,54.5 59.2,54.5 60.7,54.6L63.8,54.6C65.5,54.6 67.2,54.7 69,54.7C70.8,54.7 72.7,54.8 74.5,54.8C76.2,54.8 77.9,54.9 79.7,54.9C81.5,54.9 83.3,55 85.1,55C87.5,55 89.8,55.1 92.2,55.1C90.6,55.1 89,55.2 87.4,55.2C85.7,55.2 83.9,55.3 82.2,55.3L78.9,55.3C77.4,55.3 75.9,55.4 74.4,55.4C72.5,55.4 70.5,55.5 68.6,55.5C67,55.5 65.4,55.6 63.8,55.6C61.9,55.6 60.1,55.7 58.2,55.7C55.9,55.7 53.6,55.8 51.4,55.8L45,55.8C43,55.8 40.9,55.7 38.9,55.7C37.1,55.7 35.3,55.6 33.6,55.6C31.9,55.6 30.3,55.5 28.6,55.5C26.7,55.5 24.8,55.4 22.9,55.4C21.1,55.4 19.2,55.3 17.4,55.3C15.9,55.3 14.4,55.3 12.9,55.2C11,54.7 9.4,54.7 7.8,54.6ZM48.7,54L48.9,54L48.7,54Z" style="fill:rgb(0,114,161);fill-rule:nonzero;"/>
        </g>
        <g transform="matrix(0.111995,0,0,0.111079,281.045,76.8929)">
            <path d="M8.1,46.4L10.2,46.4C12.2,46.4 14.2,46.3 16.3,46.3L19.4,46.3C21,46.3 22.5,46.2 24.1,46.2C26,46.2 27.8,46.1 29.7,46.1C31.2,46.1 32.7,46 34.2,46C35.8,46 37.4,45.9 39,45.9C40.5,45.9 41.9,45.9 43.4,45.8L57.6,45.8C59.7,45.8 61.8,45.9 63.8,45.9C65.6,45.9 67.4,46 69.1,46C70.8,46 72.5,46.1 74.2,46.1C75.9,46.1 77.5,46.2 79.2,46.2C81.1,46.2 83,46.3 84.8,46.3C87.1,46.3 89.4,46.4 91.6,46.4L91.7,46.4C90.1,46.4 88.5,46.5 86.9,46.5C85.1,46.5 83.3,46.6 81.5,46.6L78.4,46.6C76.9,46.6 75.5,46.7 74,46.7C72.1,46.7 70.2,46.8 68.3,46.8C66.7,46.8 65.1,46.9 63.6,46.9C61.9,46.9 60.2,47 58.5,47C56.7,47 54.8,47.1 53,47.1L46,47.1C43.7,47.1 41.4,47 39,47C36.8,47 34.6,46.9 32.4,46.9C29.4,46.8 26.5,46.8 23.5,46.7C21.4,46.7 19.2,46.6 17.1,46.6C15,46.6 12.8,46.5 10.7,46.5C9.9,46.5 9,46.4 8.1,46.4Z" style="fill:rgb(0,114,161);fill-rule:nonzero;"/>
        </g>
        <g transform="matrix(0.111995,0,0,0.111079,281.045,76.8929)">
            <path d="M8.2,56C10.1,56 11.9,56 13.8,55.9C15.6,55.9 17.4,55.8 19.1,55.8C21,55.8 22.9,55.7 24.8,55.7C26.6,55.7 28.3,55.6 30.1,55.6C31.7,55.6 33.3,55.5 34.9,55.5C36.7,55.5 38.5,55.4 40.3,55.4C42,55.4 43.8,55.3 45.5,55.3L57.8,55.3C59.8,55.3 61.8,55.4 63.9,55.4C65.7,55.4 67.5,55.5 69.2,55.5C70.9,55.5 72.5,55.6 74.2,55.6C75.9,55.6 77.7,55.7 79.4,55.7C81.2,55.7 83,55.8 84.8,55.8C87.2,55.8 89.5,55.9 91.9,55.9L92.1,55.9C91.4,55.9 90.7,55.9 90.1,56C88.5,56 86.8,56.1 85.2,56.1C83.5,56.1 81.8,56.2 80.1,56.2L78.2,56.2C76.8,56.2 75.3,56.3 73.9,56.3C72.5,56.3 71.1,56.4 69.7,56.4C68.6,56.4 67.5,56.4 66.4,56.5L63.6,56.5C60.7,56.5 57.7,56.6 54.8,56.6L47.5,56.6C44.9,56.6 42.3,56.5 39.7,56.5C38,56.5 36.2,56.5 34.5,56.4C33.1,56.4 31.7,56.3 30.3,56.3C28.3,56.3 26.2,56.2 24.2,56.2C21.9,56.2 19.6,56.1 17.3,56.1C15.8,56.1 14.4,56.1 12.9,56C11.2,56.1 9.7,56 8.2,56Z" style="fill:rgb(0,114,161);fill-rule:nonzero;"/>
        </g>
        <g transform="matrix(0.111995,0,0,0.111079,281.045,76.8929)">
            <path d="M8.4,45L12.1,45C14,45 15.8,44.9 17.7,44.9C20.2,44.9 22.7,44.8 25.1,44.8C26.9,44.8 28.6,44.7 30.4,44.7C32.1,44.7 33.9,44.6 35.6,44.6C37.8,44.6 40.1,44.6 42.3,44.5C46.4,44.4 50.5,44.4 54.6,44.5C57.1,44.5 59.6,44.6 62,44.6C64.3,44.6 66.6,44.7 68.9,44.7C70.6,44.7 72.3,44.8 74,44.8C75.7,44.8 77.5,44.9 79.2,44.9C81.1,44.9 82.9,45 84.8,45C87.1,45 89.4,45.1 91.8,45.1L90.9,45.1C88.9,45.2 87,45.2 85,45.2C84,45.2 82.9,45.2 81.9,45.3C80.8,45.3 79.7,45.3 78.7,45.4C77.1,45.4 75.5,45.5 73.9,45.5C72,45.5 70,45.6 68.1,45.6C66.2,45.6 64.4,45.7 62.5,45.7C60,45.7 57.5,45.8 55,45.8C52,45.9 49,45.8 46.1,45.8C43.6,45.8 41.1,45.7 38.5,45.7C36.7,45.7 34.8,45.6 33,45.6C31.1,45.6 29.2,45.5 27.3,45.5L24.8,45.5C23.1,45.5 21.5,45.4 19.8,45.4C17.5,45.4 15.2,45.3 12.8,45.3C11.3,45.1 9.8,45.1 8.4,45Z" style="fill:rgb(0,114,161);fill-rule:nonzero;"/>
        </g>
        <g transform="matrix(0.111995,0,0,0.111079,281.045,76.8929)">
            <path d="M91.7,57.3C91.1,57.3 90.4,57.3 89.8,57.4C87.6,57.4 85.5,57.5 83.3,57.5C81.4,57.5 79.6,57.6 77.7,57.6C75.8,57.6 74,57.7 72.1,57.7C70.5,57.7 68.9,57.8 67.3,57.8C65.3,57.8 63.3,57.9 61.3,57.9C58.8,57.9 56.2,58 53.7,58L46.1,58C43.8,58 41.5,58 39.3,57.9C37.4,57.9 35.4,57.8 33.5,57.8C31.8,57.8 30.1,57.7 28.4,57.7C26.6,57.7 24.8,57.6 23.1,57.6C21.2,57.6 19.4,57.5 17.5,57.5C15.4,57.5 13.3,57.4 11.3,57.4C10.3,57.4 9.3,57.3 8.3,57.3L10.7,57.3C12.1,57.3 13.4,57.3 14.8,57.2C15.9,57.2 17,57.2 18.1,57.1C19.3,57.1 20.5,57.1 21.7,57C22.8,57 24,57 25.1,56.9C26.5,56.9 27.9,56.8 29.3,56.8C30.9,56.8 32.5,56.7 34.1,56.7C35.8,56.7 37.5,56.6 39.2,56.6L42.1,56.6C44.2,56.6 46.3,56.5 48.3,56.5L55.5,56.5C58.1,56.5 60.6,56.6 63.2,56.6C65.1,56.6 66.9,56.7 68.8,56.7C70.4,56.7 72.1,56.8 73.7,56.8C75.4,56.8 77.2,56.9 78.9,56.9C80.8,56.9 82.7,57 84.6,57C87.1,57.3 89.4,57.3 91.7,57.3Z" style="fill:rgb(0,114,161);fill-rule:nonzero;"/>
        </g>
        <g transform="matrix(0.111995,0,0,0.111079,281.045,76.8929)">
            <path d="M8.4,43.6L13.3,43.6C15.6,43.6 17.9,43.5 20.2,43.5C22,43.5 23.8,43.4 25.7,43.4C27.4,43.4 29.1,43.3 30.8,43.3C32.7,43.3 34.6,43.2 36.5,43.2C38.2,43.2 40,43.1 41.7,43.1C43.9,43.1 46,43 48.2,43L54.9,43C57.5,43 60.1,43.1 62.7,43.1C64.6,43.1 66.5,43.2 68.4,43.2C70.3,43.2 72.1,43.3 74,43.3C75.5,43.3 77.1,43.4 78.6,43.4C80.3,43.4 81.9,43.5 83.6,43.5C85.5,43.5 87.3,43.6 89.2,43.6L91.9,43.6C91.2,43.6 90.5,43.6 89.8,43.7C88.5,43.7 87.2,43.8 85.8,43.8C83.6,43.8 81.4,43.9 79.1,43.9C76.8,43.9 74.5,44 72.3,44C70.8,44 69.3,44 67.8,44.1C66.1,44.1 64.5,44.2 62.8,44.2C60.8,44.2 58.7,44.3 56.7,44.3C54.1,44.3 51.4,44.4 48.8,44.4C46,44.4 43.2,44.4 40.5,44.3C38.6,44.3 36.6,44.2 34.7,44.2C32.8,44.2 30.8,44.1 28.9,44.1C27,44.1 25.2,44 23.3,44C21.5,44 19.7,43.9 17.9,43.9C15.8,43.9 13.8,43.8 11.7,43.8C10.4,43.7 9.4,43.7 8.4,43.6Z" style="fill:rgb(0,114,161);fill-rule:nonzero;"/>
        </g>
        <g transform="matrix(0.111995,0,0,0.111079,281.045,76.8929)">
            <path d="M8.5,58.7L12.6,58.7C13.9,58.7 15.2,58.7 16.6,58.6C17.7,58.6 18.8,58.6 19.9,58.5C21.6,58.5 23.3,58.4 25,58.4C26.9,58.4 28.8,58.3 30.7,58.3C32.6,58.3 34.5,58.2 36.4,58.2C38.1,58.2 39.9,58.1 41.6,58.1C44.8,58.1 47.9,58 51.1,58L55.1,58C57.7,58 60.3,58.1 62.9,58.1C64.6,58.1 66.4,58.2 68.1,58.2C70.1,58.2 72.2,58.3 74.2,58.3C75.6,58.3 76.9,58.3 78.3,58.4C80,58.4 81.8,58.5 83.5,58.5C85.3,58.5 87,58.6 88.8,58.6C89.6,58.6 90.5,58.6 91.3,58.7L90.8,58.7C89.1,58.8 87.3,58.8 85.6,58.8C83.3,58.8 81,58.9 78.7,58.9C76.4,58.9 74.2,59 71.9,59C70.1,59 68.2,59.1 66.4,59.1C65.3,59.1 64.2,59.1 63.1,59.2C61.3,59.2 59.5,59.3 57.7,59.3L42.8,59.3C41.3,59.3 39.7,59.3 38.2,59.2L34.6,59.2C32.7,59.2 30.8,59.1 28.9,59.1C27.2,59.1 25.6,59 23.9,59C22.3,59 20.6,58.9 19,58.9C17.3,58.9 15.7,58.8 14,58.8L11.4,58.8C10.3,58.8 9.4,58.7 8.5,58.7Z" style="fill:rgb(0,114,161);fill-rule:nonzero;"/>
        </g>
        <g transform="matrix(0.111995,0,0,0.111079,281.045,76.8929)">
            <path d="M91.3,42.3C89.6,42.3 88,42.4 86.3,42.4C84.5,42.4 82.7,42.5 80.9,42.5L77.7,42.5C76.1,42.5 74.5,42.6 72.9,42.6C70.9,42.6 69,42.7 67,42.7C65.3,42.7 63.6,42.8 61.8,42.8C59.7,42.8 57.7,42.9 55.6,42.9L48,42.9C45.3,42.9 42.6,42.9 39.9,42.8C37.9,42.8 35.8,42.7 33.8,42.7C32,42.7 30.2,42.6 28.3,42.6C26.7,42.6 25,42.5 23.4,42.5C21.4,42.5 19.5,42.4 17.5,42.4C15.7,42.4 14,42.4 12.2,42.3C10.9,42.3 9.7,42.2 8.4,42.2L14.7,42.2C16.4,42.2 18.1,42.1 19.8,42.1C21.8,42.1 23.8,42 25.8,42C27.7,42 29.5,41.9 31.4,41.9C33.3,41.9 35.3,41.8 37.2,41.8C40.3,41.8 43.3,41.7 46.4,41.7L52.4,41.7C55,41.7 57.5,41.7 60.1,41.8C62.4,41.8 64.7,41.9 66.9,41.9C68.9,41.9 70.9,42 73,42C75,42 77.1,42.1 79.1,42.1L81.8,42.1C83.3,42.1 84.7,42.1 86.2,42.2C87.8,42.2 89.4,42.2 91,42.3L91.3,42.3Z" style="fill:rgb(0,114,161);fill-rule:nonzero;"/>
        </g>
        <g transform="matrix(0.111995,0,0,0.111079,281.045,76.8929)">
            <path d="M91.1,60.1C88.9,60.1 86.8,60.2 84.6,60.2C83.2,60.2 81.8,60.2 80.5,60.3L77.4,60.3C75.9,60.3 74.3,60.4 72.8,60.4C70.6,60.4 68.3,60.5 66.1,60.5C64.2,60.5 62.2,60.6 60.3,60.6C58.1,60.6 56,60.6 53.8,60.7L44.6,60.7C42.3,60.7 40.1,60.6 37.8,60.6L35.4,60.6C33.5,60.6 31.6,60.5 29.7,60.5C28.5,60.5 27.3,60.5 26.1,60.4C24.4,60.4 22.7,60.3 21,60.3L18.6,60.3C16.9,60.3 15.2,60.3 13.5,60.2C12,60.2 10.4,60.1 8.9,60.1C10.6,60.1 12.4,60.1 14.1,60C16.5,60 18.8,59.9 21.2,59.9C23,59.9 24.7,59.8 26.5,59.8C28.3,59.8 30,59.7 31.8,59.7C33.7,59.7 35.6,59.6 37.5,59.6C40.4,59.6 43.4,59.5 46.3,59.5L52.3,59.5C55,59.5 57.8,59.5 60.5,59.6C62.9,59.6 65.3,59.7 67.7,59.7C69.5,59.7 71.3,59.8 73.1,59.8C74.9,59.8 76.6,59.9 78.4,59.9C80.3,59.9 82.2,60 84.1,60C86.3,60 88.7,60 91.1,60.1Z" style="fill:rgb(0,114,161);fill-rule:nonzero;"/>
        </g>
        <g transform="matrix(0.111995,0,0,0.111079,281.045,76.8929)">
            <path d="M91,40.9L89.8,40.9C87.9,40.9 85.9,41 84,41C82.5,41 80.9,41.1 79.4,41.1C76.8,41.1 74.3,41.2 71.7,41.2C70.1,41.2 68.5,41.3 67,41.3C65.1,41.3 63.1,41.3 61.2,41.4C56.2,41.5 51.1,41.5 46.1,41.5L41.3,41.5C39.1,41.5 36.9,41.4 34.7,41.4C33.2,41.4 31.8,41.4 30.3,41.3C28.1,41.3 26,41.2 23.8,41.2C22,41.2 20.2,41.1 18.3,41.1C16.2,41.1 14,41 11.9,41C10.9,41 10,40.9 9,40.9L15.2,40.9C16.9,40.9 18.6,40.8 20.3,40.8C22.4,40.8 24.4,40.7 26.5,40.7L32,40.7C33.2,40.7 34.4,40.7 35.6,40.6C38.4,40.6 41.3,40.5 44.1,40.5L60.6,40.5C62.7,40.5 64.8,40.6 66.9,40.6C68.8,40.6 70.7,40.7 72.6,40.7C74.3,40.7 76.1,40.8 77.8,40.8C79.9,40.8 81.9,40.9 84,40.9C85.4,40.9 86.9,40.9 88.3,41C89.2,40.9 90.1,40.9 91,40.9Z" style="fill:rgb(0,114,161);fill-rule:nonzero;"/>
        </g>
        <g transform="matrix(0.111995,0,0,0.111079,281.045,76.8929)">
            <path d="M90.6,61.5C88.9,61.5 87.3,61.6 85.6,61.6C83.8,61.6 82,61.7 80.3,61.7C79.1,61.7 77.9,61.7 76.7,61.8C75,61.8 73.3,61.9 71.6,61.9C69.9,61.9 68.3,62 66.6,62C65.3,62 64.1,62 62.8,62.1C60.9,62.1 59,62.1 57.1,62.2L46.8,62.2C43.7,62.2 40.6,62.2 37.5,62.1C35.1,62.1 32.6,62 30.2,62C28.4,62 26.5,62 24.7,61.9C22.6,61.9 20.6,61.8 18.5,61.8C17.1,61.8 15.7,61.8 14.3,61.7C12.7,61.7 11,61.6 9.4,61.6L15.5,61.6C17.2,61.6 18.9,61.5 20.6,61.5C22.6,61.5 24.6,61.4 26.7,61.4C28.1,61.4 29.6,61.4 31,61.3C33.1,61.3 35.1,61.2 37.2,61.2C40.1,61.2 42.9,61.1 45.8,61.1L59.1,61.1C61.5,61.1 63.9,61.2 66.3,61.2C68.4,61.2 70.4,61.3 72.5,61.3C74.4,61.3 76.2,61.4 78.1,61.4C79.9,61.4 81.7,61.5 83.6,61.5C85.8,61.4 88.2,61.4 90.6,61.5C90.6,61.4 90.6,61.5 90.6,61.5Z" style="fill:rgb(0,114,161);fill-rule:nonzero;"/>
        </g>
        <g transform="matrix(0.111995,0,0,0.111079,281.045,76.8929)">
            <path d="M9.2,39.5C10.9,39.5 12.6,39.5 14.3,39.4C16.7,39.4 19.1,39.3 21.5,39.3C23.4,39.3 25.3,39.2 27.2,39.2C29.1,39.2 31.1,39.1 33,39.1C35.2,39.1 37.4,39 39.7,39L59,39C61.4,39 63.8,39.1 66.2,39.1C68.1,39.1 69.9,39.2 71.8,39.2C73.8,39.2 75.8,39.3 77.8,39.3C79.7,39.3 81.5,39.4 83.4,39.4C85.8,39.4 88.2,39.5 90.6,39.5C89,39.5 87.4,39.6 85.8,39.6L81.9,39.6C80,39.6 78.2,39.7 76.3,39.7C74.4,39.7 72.4,39.8 70.5,39.8C68.6,39.8 66.8,39.9 64.9,39.9C63.2,39.9 61.5,40 59.8,40C56.6,40 53.4,40.1 50.1,40.1L42.5,40.1C40.9,40.1 39.2,40.1 37.6,40C36.3,40 34.9,40 33.6,39.9C32.3,39.9 31.1,39.9 29.8,39.8C27.9,39.8 26,39.7 24.1,39.7C22.4,39.7 20.6,39.6 18.9,39.6C16.6,39.6 14.3,39.5 12,39.5C11.2,39.6 10.2,39.6 9.2,39.5C9.2,39.6 9.2,39.5 9.2,39.5Z" style="fill:rgb(0,114,161);fill-rule:nonzero;"/>
        </g>
        <g transform="matrix(0.111995,0,0,0.111079,281.045,76.8929)">
            <path d="M90.4,62.8C87.9,62.8 85.4,62.9 83,62.9C80.6,62.9 78.3,63 75.9,63C74,63 72,63.1 70.1,63.1C68,63.1 66,63.2 63.9,63.2C60.7,63.2 57.6,63.3 54.4,63.3L47.3,63.3C44.4,63.3 41.6,63.3 38.7,63.2C36.2,63.2 33.8,63.1 31.3,63.1C29.2,63.1 27.2,63 25.1,63C23.1,63 21.2,62.9 19.2,62.9C17,62.9 14.8,62.8 12.6,62.8C11.6,62.8 10.7,62.7 9.7,62.7L16.2,62.7C18.1,62.7 20,62.6 21.9,62.6C23.8,62.6 25.7,62.5 27.6,62.5C29.4,62.5 31.2,62.4 33,62.4C35.2,62.4 37.4,62.4 39.6,62.3C44.1,62.2 48.7,62.2 53.2,62.2L59.3,62.2C61.6,62.2 63.9,62.3 66.2,62.3C68,62.3 69.8,62.4 71.6,62.4C73.5,62.4 75.4,62.5 77.3,62.5C79.2,62.5 81,62.6 82.9,62.6C85.3,62.7 87.9,62.8 90.4,62.8Z" style="fill:rgb(0,114,161);fill-rule:nonzero;"/>
        </g>
        <g transform="matrix(0.111995,0,0,0.111079,281.045,76.8929)">
            <path d="M9.7,38.2L16.1,38.2C18.2,38.2 20.2,38.1 22.3,38.1C24.2,38.1 26.1,38 28,38C30,38 32,37.9 34.1,37.9C36.7,37.9 39.3,37.9 41.8,37.8C45.9,37.7 49.9,37.7 54,37.8C57.1,37.8 60.3,37.9 63.4,37.9C65.9,37.9 68.5,38 71,38C72.9,38 74.8,38.1 76.7,38.1C78.6,38.1 80.5,38.2 82.4,38.2C85,38.2 87.5,38.3 90.1,38.3L90.3,38.3L88.4,38.3C86.1,38.3 83.8,38.4 81.4,38.4C79.5,38.4 77.6,38.5 75.7,38.5C73.6,38.5 71.4,38.6 69.3,38.6C67.6,38.6 65.9,38.6 64.2,38.7C62.1,38.7 60.1,38.8 58,38.8L46.1,38.8C43.7,38.8 41.4,38.8 39,38.7C36.4,38.7 33.8,38.6 31.2,38.6C29.6,38.6 28,38.6 26.4,38.5C24.8,38.5 23.3,38.4 21.7,38.4C19.2,38.4 16.6,38.3 14.1,38.3C12.7,38.3 11.2,38.2 9.7,38.2Z" style="fill:rgb(0,114,161);fill-rule:nonzero;"/>
        </g>
        <g transform="matrix(0.111995,0,0,0.111079,281.045,76.8929)">
            <path d="M9.7,64.2L14.1,64.2C15.6,64.2 17.1,64.2 18.6,64.1L22.2,64.1C23.9,64.1 25.5,64 27.2,64C28.9,64 30.6,63.9 32.3,63.9C33.4,63.9 34.5,63.9 35.5,63.8C37.5,63.8 39.5,63.8 41.6,63.7C45.6,63.7 49.7,63.6 53.7,63.7C56.9,63.7 60.1,63.8 63.3,63.8C65.8,63.8 68.3,63.9 70.7,63.9C72.6,63.9 74.5,64 76.4,64C78.4,64 80.5,64.1 82.5,64.1C84.9,64.1 87.2,64.2 89.6,64.2L89.7,64.2L88.9,64.2C86.8,64.3 84.6,64.3 82.5,64.3C81.3,64.3 80.2,64.3 79,64.4C77.7,64.4 76.5,64.4 75.2,64.5C73.4,64.5 71.6,64.6 69.8,64.6C67.9,64.6 66,64.7 64.1,64.7C62.5,64.7 60.8,64.8 59.2,64.8L46.9,64.8C44,64.8 41.2,64.8 38.3,64.7C35.8,64.7 33.4,64.6 30.9,64.6C29.1,64.6 27.3,64.6 25.5,64.5C23.5,64.5 21.5,64.4 19.4,64.4C17.2,64.4 15,64.3 12.8,64.3C12.1,64.3 10.9,64.2 9.7,64.2Z" style="fill:rgb(0,114,161);fill-rule:nonzero;"/>
        </g>
        <g transform="matrix(0.111995,0,0,0.111079,281.045,76.8929)">
            <path d="M89.7,36.9C87.5,36.9 85.3,37 83.1,37C81.8,37 80.6,37 79.3,37.1C78.1,37.1 76.9,37.1 75.7,37.2C74,37.2 72.3,37.2 70.6,37.3C68.5,37.3 66.5,37.4 64.4,37.4C60,37.5 55.6,37.5 51.3,37.5L38.5,37.5C36.2,37.5 33.9,37.4 31.6,37.4C30.4,37.4 29.1,37.4 27.9,37.3C26.7,37.3 25.4,37.3 24.2,37.2C23,37.2 21.7,37.2 20.5,37.1C18.6,37.1 16.6,37 14.7,37C13.2,37 11.7,36.9 10.1,36.9L17,36.9C19,36.9 21,36.8 23,36.8C25.1,36.8 27.1,36.7 29.2,36.7C31.3,36.7 33.3,36.6 35.4,36.6C38.5,36.6 41.6,36.5 44.7,36.5L54,36.5C56.8,36.5 59.6,36.5 62.3,36.6C65,36.6 67.7,36.7 70.4,36.7C72.4,36.7 74.5,36.8 76.5,36.8C78.4,36.8 80.4,36.9 82.3,36.9C84.7,36.7 87.2,36.8 89.7,36.9C89.7,36.8 89.7,36.8 89.7,36.9Z" style="fill:rgb(0,114,161);fill-rule:nonzero;"/>
        </g>
        <g transform="matrix(0.111995,0,0,0.111079,281.045,76.8929)">
            <path d="M10.5,65.5L17.3,65.5C18.5,65.5 19.6,65.5 20.8,65.4C22.9,65.4 24.9,65.3 27,65.3C28.3,65.3 29.6,65.3 30.9,65.2L35,65.2C37.6,65.2 40.1,65.1 42.7,65.1L54.5,65.1C57.1,65.1 59.7,65.1 62.2,65.2C64.8,65.2 67.4,65.3 70,65.3C72,65.3 74,65.4 76,65.4C78,65.4 80,65.5 82.1,65.5C84.4,65.5 86.7,65.6 89,65.6L89.2,65.6L88.2,65.6C86.2,65.6 84.2,65.7 82.2,65.7C81,65.7 79.7,65.7 78.5,65.8C77,65.8 75.5,65.8 74,65.9C71.9,65.9 69.9,66 67.8,66C65.3,66 62.8,66.1 60.3,66.1C55.4,66.2 50.5,66.2 45.5,66.1L40.1,66.1C38.2,66.1 36.2,66.1 34.3,66C32,66 29.7,65.9 27.3,65.9C25,65.9 22.7,65.8 20.4,65.8C18,65.8 15.5,65.7 13.1,65.7C12.2,65.6 11.3,65.6 10.5,65.5Z" style="fill:rgb(0,114,161);fill-rule:nonzero;"/>
        </g>
        <g transform="matrix(0.111995,0,0,0.111079,281.045,76.8929)">
            <path d="M89.3,35.5L88.2,35.5C86.2,35.5 84.1,35.6 82.1,35.6C80.4,35.6 78.7,35.7 77,35.7C74.6,35.7 72.2,35.8 69.8,35.8C67.3,35.8 64.9,35.9 62.4,35.9C57.9,35.9 53.3,36 48.8,36L40,36C37.7,36 35.3,35.9 33,35.9C31,35.9 29,35.8 27,35.8C25.2,35.8 23.4,35.7 21.5,35.7C19.6,35.7 17.8,35.7 15.9,35.6C14.1,35.6 12.3,35.5 10.5,35.5L17.5,35.5C19.6,35.5 21.7,35.4 23.7,35.4C25.7,35.4 27.8,35.3 29.8,35.3C32.1,35.3 34.4,35.2 36.7,35.2C39.7,35.2 42.7,35.1 45.6,35.1L59.6,35.1C62.5,35.1 65.3,35.2 68.2,35.2C70.2,35.2 72.1,35.3 74.1,35.3C76.5,35.3 78.9,35.4 81.3,35.4C83.9,35.4 86.4,35.5 89,35.5C89.1,35.4 89.2,35.4 89.3,35.5Z" style="fill:rgb(0,114,161);fill-rule:nonzero;"/>
        </g>
        <g transform="matrix(0.111995,0,0,0.111079,281.045,76.8929)">
            <path d="M89,66.9C88.5,66.9 87.9,66.9 87.4,67C85.5,67 83.6,67.1 81.7,67.1C80.3,67.1 78.9,67.1 77.5,67.2L73.9,67.2C71.9,67.2 69.9,67.3 67.9,67.3C66,67.3 64.1,67.4 62.2,67.4C59.9,67.4 57.6,67.4 55.2,67.5L46.9,67.5C43.7,67.5 40.5,67.5 37.3,67.4C34.6,67.4 31.9,67.3 29.1,67.3C26.8,67.3 24.5,67.2 22.2,67.2C19.6,67.2 17,67.1 14.4,67.1C13.3,67.1 12.3,67 11.2,67L17.6,67C19.4,67 21.2,66.9 23.1,66.9C24.9,66.9 26.8,66.8 28.6,66.8C30.1,66.8 31.5,66.7 33,66.7L36.1,66.7C38.9,66.7 41.6,66.6 44.4,66.6L62,66.6C64,66.6 66,66.7 68.1,66.7C69.9,66.7 71.7,66.7 73.5,66.8C75.3,66.8 77.1,66.9 78.9,66.9C81.7,66.9 84.6,67 87.4,67C87.9,66.9 88.4,66.9 89,66.9Z" style="fill:rgb(0,114,161);fill-rule:nonzero;"/>
        </g>
        <g transform="matrix(0.111995,0,0,0.111079,281.045,76.8929)">
            <path d="M11.3,34.1L18.2,34.1C20.3,34.1 22.5,34 24.6,34C26.7,34 28.8,33.9 30.9,33.9C33.4,33.9 36,33.8 38.5,33.8C43.5,33.7 48.4,33.7 53.4,33.7L60.5,33.7C62.3,33.7 64.1,33.7 65.9,33.8C67.4,33.8 68.9,33.9 70.5,33.9L74.4,33.9C76.7,33.9 79,34 81.3,34C82.9,34 84.5,34 86,34.1C86.8,34.1 87.7,34.1 88.5,34.2L87.4,34.2C84.8,34.2 82.1,34.3 79.5,34.3C77.4,34.3 75.3,34.4 73.3,34.4C71,34.4 68.7,34.5 66.3,34.5C63.9,34.5 61.5,34.5 59.1,34.6C54.5,34.7 49.9,34.7 45.3,34.6C42.4,34.6 39.4,34.5 36.5,34.5C34.3,34.5 32.1,34.4 29.9,34.4L27.7,34.4C25.5,34.4 23.4,34.3 21.2,34.3C19,34.3 16.9,34.2 14.7,34.2C13.5,34.2 12.4,34.1 11.3,34.1Z" style="fill:rgb(0,114,161);fill-rule:nonzero;"/>
        </g>
        <g transform="matrix(0.111995,0,0,0.111079,281.045,76.8929)">
            <path d="M88.3,68.3C85.8,68.3 83.4,68.4 80.9,68.4C79.5,68.4 78.1,68.4 76.7,68.5L74.8,68.5C72,68.5 69.1,68.6 66.3,68.6C63.5,68.6 60.7,68.7 57.9,68.7C54.6,68.7 51.4,68.8 48.1,68.7C45,68.7 42,68.7 38.9,68.6L35.4,68.6C33.1,68.6 30.8,68.6 28.6,68.5C26.3,68.5 24,68.4 21.6,68.4C20.1,68.4 18.7,68.4 17.2,68.3C15.2,68.3 13.2,68.2 11.2,68.2L18,68.2C19.9,68.2 21.8,68.1 23.7,68.1C26.1,68.1 28.6,68 31,68C31.9,68 32.9,68 33.8,67.9L37.8,67.9C42.8,67.8 47.9,67.8 52.9,67.8L60,67.8C62.5,67.8 65.1,67.9 67.6,67.9C69.8,67.9 71.9,68 74.1,68C76.2,68 78.3,68.1 80.4,68.1C83.1,68.2 85.7,68.2 88.3,68.3Z" style="fill:rgb(0,114,161);fill-rule:nonzero;"/>
        </g>
        <g transform="matrix(0.111995,0,0,0.111079,281.045,76.8929)">
            <path d="M11.8,32.7L18.9,32.7C21,32.7 23.2,32.6 25.3,32.6C27.7,32.6 30.1,32.5 32.5,32.5C34.1,32.5 35.7,32.5 37.3,32.4C40,32.4 42.8,32.3 45.5,32.3L57.8,32.3C60.7,32.3 63.5,32.4 66.4,32.4C68.7,32.4 71,32.5 73.3,32.5C75.5,32.5 77.6,32.6 79.8,32.6C82.4,32.6 85,32.7 87.5,32.7L87.6,32.7L86.4,32.7C84.5,32.7 82.7,32.8 80.8,32.8C79.4,32.8 78.1,32.8 76.7,32.9L74.3,32.9C72.2,32.9 70.2,33 68.1,33L65,33C62.7,33 60.4,33.1 58,33.1L44.9,33.1C42.2,33.1 39.5,33.1 36.8,33C33.9,33 31,32.9 28.1,32.9C26,32.9 23.9,32.8 21.8,32.8C19.5,32.8 17.2,32.7 14.9,32.7C14.1,32.8 12.9,32.8 11.8,32.7Z" style="fill:rgb(0,114,161);fill-rule:nonzero;"/>
        </g>
        <g transform="matrix(0.111995,0,0,0.111079,281.045,76.8929)">
            <path d="M87.7,69.7L86.1,69.7C84.2,69.7 82.4,69.8 80.5,69.8C78.9,69.8 77.2,69.8 75.6,69.9L71.9,69.9C69.5,69.9 67,70 64.6,70C60.6,70 56.7,70.1 52.7,70.1L38,70.1C35.8,70.1 33.5,70.1 31.3,70C28.6,70 25.8,69.9 23.1,69.9C20.5,69.9 17.9,69.8 15.3,69.8C14.3,69.8 13.3,69.7 12.3,69.7L19.1,69.7C21.1,69.7 23.1,69.6 25.2,69.6C27.6,69.6 30.1,69.5 32.5,69.5C34.9,69.5 37.3,69.4 39.7,69.4C43.4,69.4 47,69.4 50.7,69.3L57.8,69.3C60,69.3 62.1,69.3 64.3,69.4C67,69.4 69.7,69.5 72.4,69.5C74.8,69.5 77.2,69.6 79.6,69.6C82.2,69.6 84.9,69.6 87.7,69.7Z" style="fill:rgb(0,114,161);fill-rule:nonzero;"/>
        </g>
        <g transform="matrix(0.111995,0,0,0.111079,281.045,76.8929)">
            <path d="M87.6,31.4C84.8,31.4 82,31.5 79.3,31.5C76.9,31.5 74.4,31.6 72,31.6C70,31.6 68,31.7 66,31.7C62.3,31.7 58.6,31.8 54.9,31.8L40.6,31.8C38.6,31.8 36.6,31.8 34.6,31.7L29.8,31.7C27.9,31.7 25.9,31.6 24,31.6C21.3,31.6 18.7,31.5 16,31.5C14.8,31.5 13.7,31.4 12.5,31.4L16,31.4C18,31.4 20,31.3 22,31.3L26.1,31.3C28.3,31.3 30.4,31.2 32.6,31.2C34.9,31.2 37.1,31.1 39.4,31.1L54,31.1C57.6,31.1 61.3,31.1 64.9,31.2C67.4,31.2 69.9,31.3 72.4,31.3C74.7,31.3 76.9,31.4 79.2,31.4C81.9,31.4 84.6,31.5 87.3,31.5C87.4,31.3 87.5,31.3 87.6,31.4C87.6,31.3 87.6,31.4 87.6,31.4Z" style="fill:rgb(0,114,161);fill-rule:nonzero;"/>
        </g>
        <g transform="matrix(0.111995,0,0,0.111079,281.045,76.8929)">
            <path d="M87,71.1C84.3,71.1 81.6,71.2 78.9,71.2C77.6,71.2 76.3,71.2 75.1,71.3C73.6,71.3 72.1,71.3 70.6,71.4C69,71.4 67.5,71.4 65.9,71.5L60.5,71.5C56.1,71.5 51.8,71.5 47.4,71.6L40.8,71.6C37.5,71.6 34.3,71.5 31,71.5C28.7,71.5 26.4,71.4 24.1,71.4C21.5,71.4 18.9,71.3 16.3,71.3C15.3,71.3 14.3,71.2 13.3,71.2L20.3,71.2C22.5,71.2 24.8,71.1 27,71.1C29.5,71.1 32.1,71 34.6,71C38.1,71 41.6,70.9 45.2,70.9L51.6,70.9C55,70.9 58.3,70.9 61.7,71L64.7,71C67.3,71 70,71.1 72.6,71.1C74.6,71.1 76.7,71.2 78.7,71.2C81.3,70.9 84.1,71 87,71.1C87,71 87,71 87,71.1Z" style="fill:rgb(0,114,161);fill-rule:nonzero;"/>
        </g>
        <g transform="matrix(0.111995,0,0,0.111079,281.045,76.8929)">
            <path d="M13.2,30L18.2,30C19.8,30 21.4,30 23,29.9L27.9,29.9C29.9,29.9 31.9,29.8 34,29.8C37.1,29.8 40.2,29.7 43.3,29.7L63.2,29.7C65.2,29.7 67.2,29.7 69.2,29.8C71.9,29.8 74.7,29.9 77.4,29.9C79.7,29.9 82,29.9 84.2,30C84.9,30 85.7,30 86.4,30.1L85.5,30.1C83.4,30.2 81.2,30.2 79.1,30.2C77.6,30.2 76,30.2 74.5,30.3L70.6,30.3C68.2,30.3 65.8,30.4 63.4,30.4C60.4,30.4 57.5,30.5 54.5,30.5L39.3,30.5C36.5,30.5 33.8,30.5 31,30.4C28.7,30.4 26.3,30.3 24,30.3C21.5,30.3 19,30.2 16.5,30.2C15.4,30.1 14.3,30 13.2,30Z" style="fill:rgb(0,114,161);fill-rule:nonzero;"/>
        </g>
        <g transform="matrix(0.111995,0,0,0.111079,281.045,76.8929)">
            <path d="M13.8,72.4L17.1,72.4C19.3,72.4 21.6,72.3 23.8,72.3L28.1,72.3C30.8,72.3 33.5,72.2 36.2,72.2C39.6,72.2 42.9,72.1 46.3,72.1L62.9,72.1C65,72.1 67.1,72.1 69.1,72.2C71.4,72.2 73.7,72.3 75.9,72.3C78.6,72.3 81.4,72.4 84.1,72.4L86.1,72.4L85,72.4C83.1,72.4 81.2,72.5 79.3,72.5L75.9,72.5C73.7,72.5 71.5,72.6 69.3,72.6C66.4,72.6 63.5,72.7 60.6,72.7L43.3,72.7C40.3,72.7 37.3,72.7 34.4,72.6C31.2,72.6 28.1,72.5 24.9,72.5C22.3,72.5 19.7,72.4 17.1,72.4C16.1,72.5 15,72.4 13.8,72.4Z" style="fill:rgb(0,114,161);fill-rule:nonzero;"/>
        </g>
        <g transform="matrix(0.111995,0,0,0.111079,281.045,76.8929)">
            <path d="M85.6,28.6C84.7,28.6 83.9,28.6 83,28.7C81.5,28.7 80.1,28.7 78.6,28.8C77,28.8 75.4,28.8 73.9,28.9C72.3,28.9 70.7,28.9 69.2,29C67.1,29 65.1,29 63,29.1L46,29.1C42.7,29.1 39.3,29 36,29L33.1,29C31.6,29 30.1,29 28.6,28.9L26.1,28.9C23.3,28.9 20.5,28.8 17.8,28.8C16.5,28.8 15.2,28.7 14,28.7L21.7,28.7C23.7,28.7 25.6,28.7 27.6,28.6C30.5,28.6 33.5,28.5 36.4,28.5C39,28.5 41.6,28.4 44.2,28.4L54.8,28.4C57.7,28.4 60.6,28.4 63.6,28.5C65.6,28.5 67.6,28.5 69.6,28.6C72.2,28.6 74.8,28.7 77.4,28.7C79.5,28.7 81.7,28.7 83.8,28.8C84.3,28.6 85,28.6 85.6,28.6Z" style="fill:rgb(0,114,161);fill-rule:nonzero;"/>
        </g>
        <g transform="matrix(0.111995,0,0,0.111079,281.045,76.8929)">
            <path d="M85.2,73.8L82.8,73.8C80.1,73.8 77.5,73.9 74.8,73.9C72.6,73.9 70.4,74 68.2,74C64.8,74 61.4,74.1 58,74.1L34.7,74.1C31.9,74.1 29.1,74 26.4,74C23.7,74 20.9,73.9 18.2,73.9C17,73.9 15.9,73.8 14.7,73.8L22.2,73.8C24.8,73.8 27.4,73.7 29.9,73.7C32.8,73.7 35.7,73.6 38.6,73.6C40.9,73.6 43.1,73.6 45.4,73.5L59.9,73.5C62.6,73.5 65.3,73.6 68.1,73.6C70.4,73.6 72.7,73.6 75,73.7C77.3,73.7 79.6,73.8 81.9,73.8C82.8,73.7 84,73.7 85.2,73.8C85.2,73.7 85.2,73.8 85.2,73.8Z" style="fill:rgb(0,114,161);fill-rule:nonzero;"/>
        </g>
        <g transform="matrix(0.111995,0,0,0.111079,281.045,76.8929)">
            <path d="M85.1,27.3L83,27.3C80.2,27.3 77.4,27.4 74.7,27.4C72,27.4 69.3,27.5 66.6,27.5C62.2,27.5 57.9,27.6 53.5,27.6L49,27.6C44.6,27.6 40.2,27.6 35.8,27.5C33.3,27.5 30.8,27.5 28.3,27.4C24.9,27.4 21.6,27.3 18.2,27.3C17.2,27.3 16.2,27.2 15.3,27.2L23,27.2C25,27.2 26.9,27.2 28.9,27.1C32.1,27.1 35.3,27 38.5,27C42.5,27 46.4,27 50.4,26.9L57.1,26.9C60.4,26.9 63.7,27 67,27C69.5,27 72,27.1 74.4,27.1C77.4,27.1 80.4,27.2 83.4,27.2C83.9,27.2 84.5,27.2 85.1,27.3Z" style="fill:rgb(0,114,161);fill-rule:nonzero;"/>
        </g>
        <g transform="matrix(0.111995,0,0,0.111079,281.045,76.8929)">
            <path d="M15.4,75.1L23.4,75.1C26.1,75.1 28.8,75 31.6,75C35.2,75 38.7,74.9 42.3,74.9L54.9,74.9C57.8,74.9 60.7,74.9 63.6,75L67.3,75C69.1,75 70.9,75 72.7,75.1C74.6,75.1 76.4,75.2 78.3,75.2L84.4,75.2C83.5,75.2 82.6,75.2 81.7,75.3C79.5,75.3 77.4,75.4 75.2,75.4C72.9,75.4 70.6,75.5 68.3,75.5L65.2,75.5C62.5,75.5 59.8,75.5 57.1,75.6L36.6,75.6C33.6,75.6 30.6,75.5 27.7,75.5C24.9,75.5 22,75.4 19.2,75.4C18,75.2 16.7,75.2 15.4,75.1Z" style="fill:rgb(0,114,161);fill-rule:nonzero;"/>
        </g>
        <g transform="matrix(0.111995,0,0,0.111079,281.045,76.8929)">
            <path d="M84.2,25.9L81.8,25.9C79.6,25.9 77.3,26 75.1,26C72.1,26 69,26.1 66,26.1C61,26.1 56,26.2 51.1,26.2L39.7,26.2C36.9,26.2 34.1,26.1 31.3,26.1L28.8,26.1C26,26.1 23.2,26 20.4,26C18.9,26 17.5,25.9 16,25.9L23.7,25.9C26.3,25.9 28.9,25.8 31.5,25.8C33.7,25.8 35.8,25.8 38,25.7L63.8,25.7C66.9,25.7 69.9,25.8 73,25.8C76.6,25.8 80.3,25.9 83.9,25.9L84.2,25.9Z" style="fill:rgb(0,114,161);fill-rule:nonzero;"/>
        </g>
        <g transform="matrix(0.111995,0,0,0.111079,281.045,76.8929)">
            <path d="M83.6,76.5C82.8,76.5 82,76.5 81.2,76.6C78.5,76.6 75.8,76.7 73.1,76.7C70.2,76.7 67.2,76.7 64.3,76.8C57.8,76.9 51.3,76.9 44.7,76.9L32.8,76.9C30.6,76.9 28.4,76.9 26.2,76.8C24.2,76.8 22.2,76.8 20.2,76.7C19,76.7 17.7,76.6 16.5,76.6L22.3,76.6C24.1,76.6 25.9,76.5 27.7,76.5L33.2,76.5C36.6,76.5 39.9,76.4 43.3,76.4L54.7,76.4C58.2,76.4 61.8,76.4 65.3,76.5C68.2,76.5 71,76.6 73.9,76.6C77,76.6 80.2,76.7 83.3,76.7C83.5,76.5 83.5,76.5 83.6,76.5Z" style="fill:rgb(0,114,161);fill-rule:nonzero;"/>
        </g>
        <g transform="matrix(0.111995,0,0,0.111079,281.045,76.8929)">
            <path d="M16.7,24.5L25.7,24.5C28.1,24.5 30.4,24.5 32.8,24.4C35.9,24.4 39,24.3 42.1,24.3L63.6,24.3C66.8,24.3 69.9,24.4 73.1,24.4C76.3,24.4 79.4,24.5 82.6,24.5L82.8,24.5L80.9,24.5C77.8,24.5 74.7,24.6 71.6,24.6C69.1,24.6 66.6,24.7 64,24.7C59.9,24.7 55.7,24.8 51.6,24.8L39.5,24.8C36.7,24.8 33.9,24.7 31.1,24.7C28.2,24.7 25.3,24.6 22.4,24.6C20.5,24.6 18.6,24.6 16.7,24.5Z" style="fill:rgb(0,114,161);fill-rule:nonzero;"/>
        </g>
        <g transform="matrix(0.111995,0,0,0.111079,281.045,76.8929)">
            <path d="M17.7,77.8L25.9,77.8C29.3,77.8 32.8,77.8 36.2,77.7C42.6,77.6 48.9,77.6 55.3,77.6L62.9,77.6C65.5,77.6 68.1,77.6 70.7,77.7C73.7,77.7 76.7,77.8 79.8,77.8L82.4,77.8C81.3,77.8 80.2,77.9 79,77.9C77.1,77.9 75.2,77.9 73.3,78C71.1,78 68.9,78.1 66.6,78.1L42.7,78.1C40.1,78.1 37.6,78.1 35,78C32.5,78 30.1,78 27.6,77.9L22.6,77.9C21,77.9 19.4,77.9 17.7,77.8C17.8,77.9 17.7,77.9 17.7,77.8Z" style="fill:rgb(0,114,161);fill-rule:nonzero;"/>
        </g>
        <g transform="matrix(0.111995,0,0,0.111079,281.045,76.8929)">
            <path d="M17.9,23.1L23.9,23.1C26.2,23.1 28.4,23 30.7,23L37.5,23C41,23 44.5,23 48,22.9L61.4,22.9C64.8,22.9 68.3,23 71.7,23C74.3,23 77,23.1 79.6,23.1L82.1,23.1C80.3,23.1 78.5,23.2 76.7,23.2C74.4,23.2 72.1,23.2 69.7,23.3C65.6,23.3 61.5,23.4 57.3,23.4L43.9,23.4C40.5,23.4 37.1,23.4 33.7,23.3C31,23.3 28.4,23.2 25.7,23.2L21.6,23.2C20.4,23.2 19.2,23.2 17.9,23.1Z" style="fill:rgb(0,114,161);fill-rule:nonzero;"/>
        </g>
        <g transform="matrix(0.111995,0,0,0.111079,281.045,76.8929)">
            <path d="M18.7,79.2L27.7,79.2C31.5,79.2 35.2,79.1 39,79.1L60.1,79.1C62.5,79.1 64.8,79.1 67.2,79.2C69.6,79.2 72,79.3 74.4,79.3L81.1,79.3L78.5,79.3C75,79.3 71.5,79.4 68,79.4C64.4,79.4 60.9,79.5 57.3,79.5L35.8,79.5C32.1,79.5 28.4,79.4 24.7,79.4C22.6,79.3 20.7,79.3 18.7,79.2Z" style="fill:rgb(0,114,161);fill-rule:nonzero;"/>
        </g>
        <g transform="matrix(0.111995,0,0,0.111079,281.045,76.8929)">
            <path d="M80.8,21.8C79.7,21.8 78.6,21.8 77.6,21.9C74.4,21.9 71.2,22 67.9,22C64.3,22 60.7,22.1 57.1,22.1L35.5,22.1C32.4,22.1 29.3,22.1 26.2,22C23.9,22 21.6,21.9 19.3,21.9L28.4,21.9C31.5,21.9 34.6,21.8 37.7,21.8L57.3,21.8C60.8,21.8 64.2,21.8 67.7,21.9C72,21.9 76.3,22 80.6,22C80.6,21.8 80.7,21.8 80.8,21.8Z" style="fill:rgb(0,114,161);fill-rule:nonzero;"/>
        </g>
        <g transform="matrix(0.111995,0,0,0.111079,281.045,76.8929)">
            <path d="M20,80.6L29.9,80.6C33.2,80.6 36.6,80.5 39.9,80.5L53.3,80.5C57.8,80.5 62.2,80.5 66.7,80.6C70.1,80.6 73.6,80.7 77,80.7C77.9,80.7 78.8,80.7 79.7,80.8L76.9,80.8C74,80.8 71.1,80.8 68.1,80.9C60.2,81 52.3,81 44.4,81L35.9,81C32.6,81 29.3,80.9 26,80.9C24,80.9 22,80.8 20,80.8C20.1,80.6 20,80.6 20,80.6Z" style="fill:rgb(0,114,161);fill-rule:nonzero;"/>
        </g>
        <g transform="matrix(0.111995,0,0,0.111079,281.045,76.8929)">
            <path d="M79.4,20.4L77,20.4C74.6,20.4 72.2,20.5 69.8,20.5L65,20.5C58.1,20.6 51.1,20.6 44.2,20.6L35.9,20.6C32.8,20.6 29.7,20.5 26.6,20.5C24.6,20.5 22.6,20.4 20.6,20.4L31.2,20.4C38.1,20.4 45,20.3 51.8,20.3L65.2,20.3C69.1,20.3 73,20.4 76.9,20.4L79.4,20.4Z" style="fill:rgb(0,114,161);fill-rule:nonzero;"/>
        </g>
        <g transform="matrix(0.111995,0,0,0.111079,281.045,76.8929)">
            <path d="M21.4,82L31.7,82C34.4,82 37.2,81.9 39.9,81.9L53,81.9C57.6,81.9 62.1,81.9 66.7,82C69.5,82 72.4,82 75.2,82.1C76.2,82.1 77.2,82.1 78.2,82.2C77.1,82.2 76,82.2 74.8,82.3C71.7,82.3 68.5,82.4 65.4,82.4C62.8,82.4 60.1,82.4 57.5,82.5L42.5,82.5C37.9,82.5 33.4,82.5 28.8,82.4C26.9,82.4 24.9,82.3 23,82.3C22.6,82 22,82 21.4,82Z" style="fill:rgb(0,114,161);fill-rule:nonzero;"/>
        </g>
        <g transform="matrix(0.111995,0,0,0.111079,281.045,76.8929)">
            <path d="M22.1,19C40.6,18.8 59.1,18.8 77.7,19L75.6,19C73,19 70.5,19.1 67.9,19.1L39.8,19.1C37,19.1 34.1,19.1 31.3,19L26.6,19C25,19.1 23.5,19.1 22.1,19Z" style="fill:rgb(0,114,161);fill-rule:nonzero;"/>
        </g>
        <g transform="matrix(0.111995,0,0,0.111079,281.045,76.8929)">
            <path d="M23.2,83.3C41.1,83.1 59,83.1 76.8,83.3L73.9,83.3C71.2,83.3 68.5,83.4 65.8,83.4L38.9,83.4C35.2,83.4 31.4,83.4 27.7,83.3C26.2,83.4 24.7,83.4 23.2,83.3Z" style="fill:rgb(0,114,161);fill-rule:nonzero;"/>
        </g>
        <g transform="matrix(0.111995,0,0,0.111079,281.045,76.8929)">
            <path d="M23.6,17.7C41.1,17.5 58.7,17.5 76.2,17.7L73.7,17.7C72.3,17.7 70.8,17.7 69.4,17.8L44.7,17.8C40.4,17.8 36.2,17.8 31.9,17.7C29.2,17.8 26.4,17.7 23.6,17.7Z" style="fill:rgb(0,114,161);fill-rule:nonzero;"/>
        </g>
        <g transform="matrix(0.111995,0,0,0.111079,281.045,76.8929)">
            <path d="M24.8,84.7C41.5,84.5 58.2,84.5 74.9,84.7L71.5,84.7C67.1,84.7 62.7,84.8 58.4,84.8L34,84.8C30.9,84.8 27.9,84.8 24.8,84.7Z" style="fill:rgb(0,114,161);fill-rule:nonzero;"/>
        </g>
        <g transform="matrix(0.111995,0,0,0.111079,281.045,76.8929)">
            <path d="M25.4,16.3C29.2,16.2 69.9,16.2 74.2,16.3L71.4,16.3C66.8,16.4 62.2,16.4 57.6,16.4L30.4,16.4C28.9,16.4 27.3,16.3 25.8,16.3L25.4,16.3Z" style="fill:rgb(0,114,161);fill-rule:nonzero;"/>
        </g>
        <g transform="matrix(0.111995,0,0,0.111079,281.045,76.8929)">
            <path d="M26.9,86.1C30.9,86 68,86 72.9,86.1L69.6,86.1C65.6,86.1 61.5,86.2 57.5,86.2L32.6,86.2C30.6,86.1 28.8,86.1 26.9,86.1Z" style="fill:rgb(0,114,161);fill-rule:nonzero;"/>
        </g>
        <g transform="matrix(0.111995,0,0,0.111079,281.045,76.8929)">
            <path d="M72.1,14.9L69.9,14.9C67.8,14.9 65.8,15 63.7,15L33,15C31.2,15 29.3,14.9 27.5,14.9C29.3,14.8 69.5,14.8 72.1,14.9Z" style="fill:rgb(0,114,161);fill-rule:nonzero;"/>
        </g>
        <g transform="matrix(0.111995,0,0,0.111079,281.045,76.8929)">
            <path d="M70.5,87.4C65.2,87.6 37.3,87.6 28.8,87.4C42.8,87.3 56.7,87.3 70.5,87.4Z" style="fill:rgb(0,114,161);fill-rule:nonzero;"/>
        </g>
        <g transform="matrix(0.111995,0,0,0.111079,281.045,76.8929)">
            <path d="M70,13.6C56.7,13.8 43.4,13.8 30.1,13.6C31.2,13.5 68,13.5 70,13.6Z" style="fill:rgb(0,114,161);fill-rule:nonzero;"/>
        </g>
        <g transform="matrix(0.111995,0,0,0.111079,281.045,76.8929)">
            <path d="M31.6,88.8C34.3,88.7 65.2,88.7 68,88.8L65.4,88.8C63.7,88.8 62,88.8 60.3,88.9L41.4,88.9C39.3,88.9 37.2,88.9 35.1,88.8L31.6,88.8Z" style="fill:rgb(0,114,161);fill-rule:nonzero;"/>
        </g>
        <g transform="matrix(0.111995,0,0,0.111079,281.045,76.8929)">
            <path d="M32.6,12.2C44.1,12.1 55.7,12.1 67.2,12.2C63.4,12.2 59.5,12.3 55.7,12.3L44.2,12.3C40.3,12.3 36.5,12.2 32.6,12.2Z" style="fill:rgb(0,114,161);fill-rule:nonzero;"/>
        </g>
        <g transform="matrix(0.111995,0,0,0.111079,281.045,76.8929)">
            <path d="M34.4,90.2C44.5,90.1 54.6,90.1 64.7,90.2C54.6,90.3 44.5,90.3 34.4,90.2Z" style="fill:rgb(0,114,161);fill-rule:nonzero;"/>
        </g>
        <g transform="matrix(0.111995,0,0,0.111079,281.045,76.8929)">
            <path d="M36.4,10.8L63.9,10.8C54.8,10.9 45.6,10.9 36.4,10.8Z" style="fill:rgb(0,114,161);fill-rule:nonzero;"/>
        </g>
        <g transform="matrix(0.111995,0,0,0.111079,281.045,76.8929)">
            <path d="M39.2,91.5L60.6,91.5C53.4,91.6 46.3,91.6 39.2,91.5Z" style="fill:rgb(0,114,161);fill-rule:nonzero;"/>
        </g>
        <g transform="matrix(0.111995,0,0,0.111079,281.045,76.8929)">
            <path d="M41.2,9.4L58.5,9.4C52.7,9.5 46.9,9.5 41.2,9.4Z" style="fill:rgb(0,114,161);fill-rule:nonzero;"/>
        </g>
        <g transform="matrix(0.111995,0,0,0.111079,281.045,76.8929)">
            <path d="M86.3,28.6L86.3,28.6Z" style="fill:rgb(0,114,161);fill-rule:nonzero;"/>
        </g>
        <g transform="matrix(0.111995,0,0,0.111079,281.045,76.8929)">
            <path d="M83.6,24.5L83.5,24.5L83.6,24.5Z" style="fill:rgb(0,114,161);fill-rule:nonzero;"/>
        </g>
        <g transform="matrix(0.111995,0,0,0.111079,281.045,76.8929)">
            <path d="M65.2,90.2L65.2,90.2Z" style="fill:rgb(0,114,161);fill-rule:nonzero;"/>
        </g>
        <g transform="matrix(0.111995,0,0,0.111079,281.045,76.8929)">
            <path d="M85.6,73.7L85.6,73.8L85.6,73.7Z" style="fill:rgb(0,114,161);fill-rule:nonzero;"/>
        </g>
        <g transform="matrix(0.111995,0,0,0.111079,281.045,76.8929)">
            <path d="M7.8,54.6L14,54.6C15.9,54.6 17.9,54.5 19.8,54.5C21.4,54.5 23,54.4 24.6,54.4C26.3,54.4 28.1,54.3 29.8,54.3C31.5,54.3 33.2,54.2 34.9,54.2C36.8,54.2 38.8,54.1 40.7,54.1C42.7,54.1 44.8,54 46.8,54L48.2,54L45.4,54C42.8,54 40.2,53.9 37.7,53.9C35.9,53.9 34.1,53.8 32.4,53.8C30.6,53.8 28.9,53.7 27.1,53.7C25.6,53.7 24.2,53.6 22.7,53.6C21,53.6 19.4,53.5 17.7,53.5C15.6,53.5 13.4,53.4 11.3,53.4C10.1,53.4 8.9,53.3 7.7,53.3L11.7,53.3C13.5,53.3 15.3,53.2 17.1,53.2L19.3,53.2C21.3,53.2 23.2,53.1 25.2,53.1L27.4,53.1C29,53.1 30.6,53 32.2,53C34.3,53 36.5,52.9 38.6,52.9C40.5,52.9 42.3,52.8 44.2,52.8C45,52.8 45.7,52.8 46.5,52.7L43.5,52.7C41.7,52.7 39.8,52.6 38,52.6C36.4,52.6 34.7,52.6 33.1,52.5C31.2,52.5 29.3,52.4 27.4,52.4C25.7,52.4 24,52.3 22.3,52.3C20.7,52.3 19.1,52.2 17.6,52.2C16,52.2 14.4,52.2 12.8,52.1C11.1,52.1 9.4,52 7.7,52L13.9,52C15.8,52 17.7,51.9 19.6,51.9C21.2,51.9 22.8,51.8 24.4,51.8C26.1,51.8 27.8,51.7 29.5,51.7C31.2,51.7 32.8,51.6 34.5,51.6C36.5,51.6 38.6,51.5 40.6,51.5C42.2,51.5 43.9,51.5 45.5,51.4L46.5,51.4C45.8,51.4 45.2,51.4 44.5,51.3C42.7,51.3 40.8,51.2 39,51.2C37.8,51.2 36.6,51.2 35.4,51.1L32,51.1C30.5,51.1 29,51 27.5,51C26,51 24.5,51 23,50.9C20.9,50.9 18.9,50.8 16.8,50.8C14.8,50.8 12.8,50.7 10.8,50.7C9.8,50.7 8.8,50.6 7.8,50.6L14.1,50.6C15.8,50.6 17.4,50.5 19.1,50.5C20.7,50.5 22.3,50.4 23.9,50.4C25.7,50.4 27.5,50.3 29.4,50.3C30.9,50.3 32.3,50.2 33.8,50.2C35.4,50.2 37.1,50.1 38.7,50.1C41.2,50.1 43.8,50 46.3,50L46.5,50L44.7,50C42.8,50 41,49.9 39.1,49.9C38,49.9 36.9,49.9 35.7,49.8L32.3,49.8C30.5,49.8 28.6,49.7 26.8,49.7C25.4,49.7 24,49.7 22.7,49.6C21.1,49.6 19.4,49.5 17.8,49.5C16.3,49.5 14.9,49.4 13.4,49.4C11.6,49.4 9.8,49.3 8,49.3L14,49.3C15.6,49.3 17.2,49.2 18.8,49.2C20.3,49.2 21.9,49.2 23.4,49.1C24.8,49.1 26.1,49 27.5,49C30,49 32.4,48.9 34.9,48.9C36.7,48.9 38.5,48.8 40.4,48.8C42.6,48.8 44.9,48.7 47.1,48.7L47.4,48.7C46.4,48.7 45.5,48.7 44.5,48.6C43,48.6 41.6,48.6 40.1,48.5C37.9,48.5 35.7,48.4 33.5,48.4C31.5,48.4 29.5,48.3 27.5,48.3C26.4,48.3 25.3,48.3 24.1,48.2C22.5,48.2 21,48.1 19.4,48.1L17.2,48.1C15.5,48.1 13.7,48.1 12,48C10.6,48 9.3,47.9 7.9,47.9L14.2,47.9C15.8,47.9 17.4,47.8 18.9,47.8C20.8,47.8 22.8,47.7 24.7,47.7C26.4,47.7 28.2,47.6 29.9,47.6C31.6,47.6 33.2,47.5 34.9,47.5C36.9,47.5 38.9,47.4 40.9,47.4C43.1,47.4 45.3,47.3 47.5,47.3L54.8,47.3C57.6,47.3 60.4,47.4 63.1,47.4C65.2,47.4 67.3,47.5 69.4,47.5C71.1,47.5 72.8,47.6 74.5,47.6C76.2,47.6 77.9,47.7 79.6,47.7C81.5,47.7 83.3,47.8 85.2,47.8C87.5,47.8 89.7,47.9 92,47.9L92.2,47.9C91.1,47.9 90.2,48 89.2,48C87.5,48 85.7,48 84,48.1C82.2,48.1 80.3,48.2 78.5,48.2C77,48.2 75.5,48.3 73.9,48.3C72.5,48.3 71,48.4 69.6,48.4C68.2,48.4 66.7,48.5 65.3,48.5C64.1,48.5 62.9,48.5 61.7,48.6L59.6,48.6C57.3,48.6 55.1,48.7 52.8,48.7L57.2,48.7C58.9,48.7 60.7,48.8 62.4,48.8C64.5,48.8 66.6,48.9 68.7,48.9C70.5,48.9 72.3,49 74,49C75.9,49 77.7,49.1 79.6,49.1C81.1,49.1 82.7,49.2 84.2,49.2C86.4,49.2 88.5,49.3 90.7,49.3L92.2,49.3C91.2,49.3 90.2,49.4 89.2,49.4C87.5,49.4 85.8,49.4 84,49.5C82.3,49.5 80.5,49.6 78.8,49.6C77,49.6 75.2,49.7 73.4,49.7C71.9,49.7 70.3,49.8 68.8,49.8C67.1,49.8 65.4,49.9 63.7,49.9C61.7,49.9 59.7,50 57.7,50C56.3,50 54.9,50.1 53.5,50.1L57.2,50.1C58.5,50.1 59.8,50.1 61,50.2C62.2,50.2 63.3,50.2 64.5,50.3C66,50.3 67.5,50.4 69.1,50.4C71,50.4 72.8,50.5 74.7,50.5C76.5,50.5 78.3,50.6 80,50.6C81.7,50.6 83.5,50.7 85.2,50.7C87.6,50.7 89.9,50.8 92.3,50.8L91.6,50.8C89.6,50.8 87.6,50.9 85.6,50.9C84.1,50.9 82.6,51 81,51C79,51 77,51.1 74.9,51.1C73.1,51.1 71.3,51.2 69.5,51.2C67.6,51.2 65.7,51.3 63.8,51.3C62.1,51.3 60.5,51.4 58.8,51.4C57.3,51.4 55.8,51.5 54.3,51.5L53.8,51.5L56.9,51.5C58.8,51.5 60.7,51.6 62.6,51.6L64.1,51.6C65.6,51.6 67.2,51.6 68.7,51.7C70.4,51.7 72.2,51.8 73.9,51.8C75.7,51.8 77.6,51.9 79.4,51.9C80.9,51.9 82.4,52 84,52C86.2,52 88.5,52.1 90.7,52.1L92.2,52.1C91.5,52.1 90.8,52.1 90.2,52.2C88.9,52.2 87.5,52.2 86.2,52.3C85,52.3 83.9,52.3 82.7,52.4C81.5,52.4 80.4,52.4 79.2,52.5C77.6,52.5 76,52.6 74.5,52.6C73.1,52.6 71.6,52.7 70.2,52.7C68.3,52.7 66.4,52.8 64.5,52.8C62.8,52.8 61.1,52.8 59.4,52.9C57.8,52.9 56.1,53 54.5,53L53.2,53L56.8,53C58.1,53 59.5,53 60.8,53.1C62.1,53.1 63.3,53.1 64.6,53.2C66.1,53.2 67.7,53.3 69.2,53.3C70.7,53.3 72.1,53.4 73.6,53.4C75.7,53.4 77.9,53.5 80,53.5C81.9,53.5 83.8,53.6 85.7,53.6C87.4,53.6 89.1,53.6 90.8,53.7C91.3,53.7 91.8,53.7 92.3,53.8C91.7,53.8 91,53.8 90.4,53.9C88.4,53.9 86.3,54 84.3,54C82.4,54 80.6,54.1 78.7,54.1C77,54.1 75.4,54.2 73.7,54.2C71.9,54.2 70.1,54.3 68.2,54.3L65.1,54.3C63.8,54.3 62.6,54.4 61.3,54.4L58.2,54.4C56.1,54.4 53.9,54.5 51.8,54.5L51.5,54.5L56.1,54.5C57.6,54.5 59.2,54.5 60.7,54.6L63.8,54.6C65.5,54.6 67.2,54.7 69,54.7C70.8,54.7 72.7,54.8 74.5,54.8C76.2,54.8 77.9,54.9 79.7,54.9C81.5,54.9 83.3,55 85.1,55C87.5,55 89.8,55.1 92.2,55.1C90.6,55.1 89,55.2 87.4,55.2C85.7,55.2 83.9,55.3 82.2,55.3L78.9,55.3C77.4,55.3 75.9,55.4 74.4,55.4C72.5,55.4 70.5,55.5 68.6,55.5C67,55.5 65.4,55.6 63.8,55.6C61.9,55.6 60.1,55.7 58.2,55.7C55.9,55.7 53.6,55.8 51.4,55.8L45,55.8C43,55.8 40.9,55.7 38.9,55.7C37.1,55.7 35.3,55.6 33.6,55.6C31.9,55.6 30.3,55.5 28.6,55.5C26.7,55.5 24.8,55.4 22.9,55.4C21.1,55.4 19.2,55.3 17.4,55.3C15.9,55.3 14.4,55.3 12.9,55.2C11,54.7 9.4,54.7 7.8,54.6ZM48.7,54L48.9,54L48.7,54Z" style="fill:rgb(0,114,161);fill-rule:nonzero;"/>
        </g>
        <g transform="matrix(0.111995,0,0,0.111079,281.045,76.8929)">
            <path d="M8.1,46.4L10.2,46.4C12.2,46.4 14.2,46.3 16.3,46.3L19.4,46.3C21,46.3 22.5,46.2 24.1,46.2C26,46.2 27.8,46.1 29.7,46.1C31.2,46.1 32.7,46 34.2,46C35.8,46 37.4,45.9 39,45.9C40.5,45.9 41.9,45.9 43.4,45.8L57.6,45.8C59.7,45.8 61.8,45.9 63.8,45.9C65.6,45.9 67.4,46 69.1,46C70.8,46 72.5,46.1 74.2,46.1C75.9,46.1 77.5,46.2 79.2,46.2C81.1,46.2 83,46.3 84.8,46.3C87.1,46.3 89.4,46.4 91.6,46.4L91.7,46.4C90.1,46.4 88.5,46.5 86.9,46.5C85.1,46.5 83.3,46.6 81.5,46.6L78.4,46.6C76.9,46.6 75.5,46.7 74,46.7C72.1,46.7 70.2,46.8 68.3,46.8C66.7,46.8 65.1,46.9 63.6,46.9C61.9,46.9 60.2,47 58.5,47C56.7,47 54.8,47.1 53,47.1L46,47.1C43.7,47.1 41.4,47 39,47C36.8,47 34.6,46.9 32.4,46.9C29.4,46.8 26.5,46.8 23.5,46.7C21.4,46.7 19.2,46.6 17.1,46.6C15,46.6 12.8,46.5 10.7,46.5C9.9,46.5 9,46.4 8.1,46.4Z" style="fill:rgb(0,114,161);fill-rule:nonzero;"/>
        </g>
        <g transform="matrix(0.111995,0,0,0.111079,281.045,76.8929)">
            <path d="M8.2,56C10.1,56 11.9,56 13.8,55.9C15.6,55.9 17.4,55.8 19.1,55.8C21,55.8 22.9,55.7 24.8,55.7C26.6,55.7 28.3,55.6 30.1,55.6C31.7,55.6 33.3,55.5 34.9,55.5C36.7,55.5 38.5,55.4 40.3,55.4C42,55.4 43.8,55.3 45.5,55.3L57.8,55.3C59.8,55.3 61.8,55.4 63.9,55.4C65.7,55.4 67.5,55.5 69.2,55.5C70.9,55.5 72.5,55.6 74.2,55.6C75.9,55.6 77.7,55.7 79.4,55.7C81.2,55.7 83,55.8 84.8,55.8C87.2,55.8 89.5,55.9 91.9,55.9L92.1,55.9C91.4,55.9 90.7,55.9 90.1,56C88.5,56 86.8,56.1 85.2,56.1C83.5,56.1 81.8,56.2 80.1,56.2L78.2,56.2C76.8,56.2 75.3,56.3 73.9,56.3C72.5,56.3 71.1,56.4 69.7,56.4C68.6,56.4 67.5,56.4 66.4,56.5L63.6,56.5C60.7,56.5 57.7,56.6 54.8,56.6L47.5,56.6C44.9,56.6 42.3,56.5 39.7,56.5C38,56.5 36.2,56.5 34.5,56.4C33.1,56.4 31.7,56.3 30.3,56.3C28.3,56.3 26.2,56.2 24.2,56.2C21.9,56.2 19.6,56.1 17.3,56.1C15.8,56.1 14.4,56.1 12.9,56C11.2,56.1 9.7,56 8.2,56Z" style="fill:rgb(0,114,161);fill-rule:nonzero;"/>
        </g>
        <g transform="matrix(0.111995,0,0,0.111079,281.045,76.8929)">
            <path d="M8.4,45L12.1,45C14,45 15.8,44.9 17.7,44.9C20.2,44.9 22.7,44.8 25.1,44.8C26.9,44.8 28.6,44.7 30.4,44.7C32.1,44.7 33.9,44.6 35.6,44.6C37.8,44.6 40.1,44.6 42.3,44.5C46.4,44.4 50.5,44.4 54.6,44.5C57.1,44.5 59.6,44.6 62,44.6C64.3,44.6 66.6,44.7 68.9,44.7C70.6,44.7 72.3,44.8 74,44.8C75.7,44.8 77.5,44.9 79.2,44.9C81.1,44.9 82.9,45 84.8,45C87.1,45 89.4,45.1 91.8,45.1L90.9,45.1C88.9,45.2 87,45.2 85,45.2C84,45.2 82.9,45.2 81.9,45.3C80.8,45.3 79.7,45.3 78.7,45.4C77.1,45.4 75.5,45.5 73.9,45.5C72,45.5 70,45.6 68.1,45.6C66.2,45.6 64.4,45.7 62.5,45.7C60,45.7 57.5,45.8 55,45.8C52,45.9 49,45.8 46.1,45.8C43.6,45.8 41.1,45.7 38.5,45.7C36.7,45.7 34.8,45.6 33,45.6C31.1,45.6 29.2,45.5 27.3,45.5L24.8,45.5C23.1,45.5 21.5,45.4 19.8,45.4C17.5,45.4 15.2,45.3 12.8,45.3C11.3,45.1 9.8,45.1 8.4,45Z" style="fill:rgb(0,114,161);fill-rule:nonzero;"/>
        </g>
        <g transform="matrix(0.111995,0,0,0.111079,281.045,76.8929)">
            <path d="M91.7,57.3C91.1,57.3 90.4,57.3 89.8,57.4C87.6,57.4 85.5,57.5 83.3,57.5C81.4,57.5 79.6,57.6 77.7,57.6C75.8,57.6 74,57.7 72.1,57.7C70.5,57.7 68.9,57.8 67.3,57.8C65.3,57.8 63.3,57.9 61.3,57.9C58.8,57.9 56.2,58 53.7,58L46.1,58C43.8,58 41.5,58 39.3,57.9C37.4,57.9 35.4,57.8 33.5,57.8C31.8,57.8 30.1,57.7 28.4,57.7C26.6,57.7 24.8,57.6 23.1,57.6C21.2,57.6 19.4,57.5 17.5,57.5C15.4,57.5 13.3,57.4 11.3,57.4C10.3,57.4 9.3,57.3 8.3,57.3L10.7,57.3C12.1,57.3 13.4,57.3 14.8,57.2C15.9,57.2 17,57.2 18.1,57.1C19.3,57.1 20.5,57.1 21.7,57C22.8,57 24,57 25.1,56.9C26.5,56.9 27.9,56.8 29.3,56.8C30.9,56.8 32.5,56.7 34.1,56.7C35.8,56.7 37.5,56.6 39.2,56.6L42.1,56.6C44.2,56.6 46.3,56.5 48.3,56.5L55.5,56.5C58.1,56.5 60.6,56.6 63.2,56.6C65.1,56.6 66.9,56.7 68.8,56.7C70.4,56.7 72.1,56.8 73.7,56.8C75.4,56.8 77.2,56.9 78.9,56.9C80.8,56.9 82.7,57 84.6,57C87.1,57.3 89.4,57.3 91.7,57.3Z" style="fill:rgb(0,114,161);fill-rule:nonzero;"/>
        </g>
        <g transform="matrix(0.111995,0,0,0.111079,281.045,76.8929)">
            <path d="M8.4,43.6L13.3,43.6C15.6,43.6 17.9,43.5 20.2,43.5C22,43.5 23.8,43.4 25.7,43.4C27.4,43.4 29.1,43.3 30.8,43.3C32.7,43.3 34.6,43.2 36.5,43.2C38.2,43.2 40,43.1 41.7,43.1C43.9,43.1 46,43 48.2,43L54.9,43C57.5,43 60.1,43.1 62.7,43.1C64.6,43.1 66.5,43.2 68.4,43.2C70.3,43.2 72.1,43.3 74,43.3C75.5,43.3 77.1,43.4 78.6,43.4C80.3,43.4 81.9,43.5 83.6,43.5C85.5,43.5 87.3,43.6 89.2,43.6L91.9,43.6C91.2,43.6 90.5,43.6 89.8,43.7C88.5,43.7 87.2,43.8 85.8,43.8C83.6,43.8 81.4,43.9 79.1,43.9C76.8,43.9 74.5,44 72.3,44C70.8,44 69.3,44 67.8,44.1C66.1,44.1 64.5,44.2 62.8,44.2C60.8,44.2 58.7,44.3 56.7,44.3C54.1,44.3 51.4,44.4 48.8,44.4C46,44.4 43.2,44.4 40.5,44.3C38.6,44.3 36.6,44.2 34.7,44.2C32.8,44.2 30.8,44.1 28.9,44.1C27,44.1 25.2,44 23.3,44C21.5,44 19.7,43.9 17.9,43.9C15.8,43.9 13.8,43.8 11.7,43.8C10.4,43.7 9.4,43.7 8.4,43.6Z" style="fill:rgb(0,114,161);fill-rule:nonzero;"/>
        </g>
        <g transform="matrix(0.111995,0,0,0.111079,281.045,76.8929)">
            <path d="M8.5,58.7L12.6,58.7C13.9,58.7 15.2,58.7 16.6,58.6C17.7,58.6 18.8,58.6 19.9,58.5C21.6,58.5 23.3,58.4 25,58.4C26.9,58.4 28.8,58.3 30.7,58.3C32.6,58.3 34.5,58.2 36.4,58.2C38.1,58.2 39.9,58.1 41.6,58.1C44.8,58.1 47.9,58 51.1,58L55.1,58C57.7,58 60.3,58.1 62.9,58.1C64.6,58.1 66.4,58.2 68.1,58.2C70.1,58.2 72.2,58.3 74.2,58.3C75.6,58.3 76.9,58.3 78.3,58.4C80,58.4 81.8,58.5 83.5,58.5C85.3,58.5 87,58.6 88.8,58.6C89.6,58.6 90.5,58.6 91.3,58.7L90.8,58.7C89.1,58.8 87.3,58.8 85.6,58.8C83.3,58.8 81,58.9 78.7,58.9C76.4,58.9 74.2,59 71.9,59C70.1,59 68.2,59.1 66.4,59.1C65.3,59.1 64.2,59.1 63.1,59.2C61.3,59.2 59.5,59.3 57.7,59.3L42.8,59.3C41.3,59.3 39.7,59.3 38.2,59.2L34.6,59.2C32.7,59.2 30.8,59.1 28.9,59.1C27.2,59.1 25.6,59 23.9,59C22.3,59 20.6,58.9 19,58.9C17.3,58.9 15.7,58.8 14,58.8L11.4,58.8C10.3,58.8 9.4,58.7 8.5,58.7Z" style="fill:rgb(0,114,161);fill-rule:nonzero;"/>
        </g>
        <g transform="matrix(0.111995,0,0,0.111079,281.045,76.8929)">
            <path d="M91.3,42.3C89.6,42.3 88,42.4 86.3,42.4C84.5,42.4 82.7,42.5 80.9,42.5L77.7,42.5C76.1,42.5 74.5,42.6 72.9,42.6C70.9,42.6 69,42.7 67,42.7C65.3,42.7 63.6,42.8 61.8,42.8C59.7,42.8 57.7,42.9 55.6,42.9L48,42.9C45.3,42.9 42.6,42.9 39.9,42.8C37.9,42.8 35.8,42.7 33.8,42.7C32,42.7 30.2,42.6 28.3,42.6C26.7,42.6 25,42.5 23.4,42.5C21.4,42.5 19.5,42.4 17.5,42.4C15.7,42.4 14,42.4 12.2,42.3C10.9,42.3 9.7,42.2 8.4,42.2L14.7,42.2C16.4,42.2 18.1,42.1 19.8,42.1C21.8,42.1 23.8,42 25.8,42C27.7,42 29.5,41.9 31.4,41.9C33.3,41.9 35.3,41.8 37.2,41.8C40.3,41.8 43.3,41.7 46.4,41.7L52.4,41.7C55,41.7 57.5,41.7 60.1,41.8C62.4,41.8 64.7,41.9 66.9,41.9C68.9,41.9 70.9,42 73,42C75,42 77.1,42.1 79.1,42.1L81.8,42.1C83.3,42.1 84.7,42.1 86.2,42.2C87.8,42.2 89.4,42.2 91,42.3L91.3,42.3Z" style="fill:rgb(0,114,161);fill-rule:nonzero;"/>
        </g>
        <g transform="matrix(0.111995,0,0,0.111079,281.045,76.8929)">
            <path d="M91.1,60.1C88.9,60.1 86.8,60.2 84.6,60.2C83.2,60.2 81.8,60.2 80.5,60.3L77.4,60.3C75.9,60.3 74.3,60.4 72.8,60.4C70.6,60.4 68.3,60.5 66.1,60.5C64.2,60.5 62.2,60.6 60.3,60.6C58.1,60.6 56,60.6 53.8,60.7L44.6,60.7C42.3,60.7 40.1,60.6 37.8,60.6L35.4,60.6C33.5,60.6 31.6,60.5 29.7,60.5C28.5,60.5 27.3,60.5 26.1,60.4C24.4,60.4 22.7,60.3 21,60.3L18.6,60.3C16.9,60.3 15.2,60.3 13.5,60.2C12,60.2 10.4,60.1 8.9,60.1C10.6,60.1 12.4,60.1 14.1,60C16.5,60 18.8,59.9 21.2,59.9C23,59.9 24.7,59.8 26.5,59.8C28.3,59.8 30,59.7 31.8,59.7C33.7,59.7 35.6,59.6 37.5,59.6C40.4,59.6 43.4,59.5 46.3,59.5L52.3,59.5C55,59.5 57.8,59.5 60.5,59.6C62.9,59.6 65.3,59.7 67.7,59.7C69.5,59.7 71.3,59.8 73.1,59.8C74.9,59.8 76.6,59.9 78.4,59.9C80.3,59.9 82.2,60 84.1,60C86.3,60 88.7,60 91.1,60.1Z" style="fill:rgb(0,114,161);fill-rule:nonzero;"/>
        </g>
        <g transform="matrix(0.111995,0,0,0.111079,281.045,76.8929)">
            <path d="M91,40.9L89.8,40.9C87.9,40.9 85.9,41 84,41C82.5,41 80.9,41.1 79.4,41.1C76.8,41.1 74.3,41.2 71.7,41.2C70.1,41.2 68.5,41.3 67,41.3C65.1,41.3 63.1,41.3 61.2,41.4C56.2,41.5 51.1,41.5 46.1,41.5L41.3,41.5C39.1,41.5 36.9,41.4 34.7,41.4C33.2,41.4 31.8,41.4 30.3,41.3C28.1,41.3 26,41.2 23.8,41.2C22,41.2 20.2,41.1 18.3,41.1C16.2,41.1 14,41 11.9,41C10.9,41 10,40.9 9,40.9L15.2,40.9C16.9,40.9 18.6,40.8 20.3,40.8C22.4,40.8 24.4,40.7 26.5,40.7L32,40.7C33.2,40.7 34.4,40.7 35.6,40.6C38.4,40.6 41.3,40.5 44.1,40.5L60.6,40.5C62.7,40.5 64.8,40.6 66.9,40.6C68.8,40.6 70.7,40.7 72.6,40.7C74.3,40.7 76.1,40.8 77.8,40.8C79.9,40.8 81.9,40.9 84,40.9C85.4,40.9 86.9,40.9 88.3,41C89.2,40.9 90.1,40.9 91,40.9Z" style="fill:rgb(0,114,161);fill-rule:nonzero;"/>
        </g>
        <g transform="matrix(0.111995,0,0,0.111079,281.045,76.8929)">
            <path d="M90.6,61.5C88.9,61.5 87.3,61.6 85.6,61.6C83.8,61.6 82,61.7 80.3,61.7C79.1,61.7 77.9,61.7 76.7,61.8C75,61.8 73.3,61.9 71.6,61.9C69.9,61.9 68.3,62 66.6,62C65.3,62 64.1,62 62.8,62.1C60.9,62.1 59,62.1 57.1,62.2L46.8,62.2C43.7,62.2 40.6,62.2 37.5,62.1C35.1,62.1 32.6,62 30.2,62C28.4,62 26.5,62 24.7,61.9C22.6,61.9 20.6,61.8 18.5,61.8C17.1,61.8 15.7,61.8 14.3,61.7C12.7,61.7 11,61.6 9.4,61.6L15.5,61.6C17.2,61.6 18.9,61.5 20.6,61.5C22.6,61.5 24.6,61.4 26.7,61.4C28.1,61.4 29.6,61.4 31,61.3C33.1,61.3 35.1,61.2 37.2,61.2C40.1,61.2 42.9,61.1 45.8,61.1L59.1,61.1C61.5,61.1 63.9,61.2 66.3,61.2C68.4,61.2 70.4,61.3 72.5,61.3C74.4,61.3 76.2,61.4 78.1,61.4C79.9,61.4 81.7,61.5 83.6,61.5C85.8,61.4 88.2,61.4 90.6,61.5C90.6,61.4 90.6,61.5 90.6,61.5Z" style="fill:rgb(0,114,161);fill-rule:nonzero;"/>
        </g>
        <g transform="matrix(0.111995,0,0,0.111079,281.045,76.8929)">
            <path d="M9.2,39.5C10.9,39.5 12.6,39.5 14.3,39.4C16.7,39.4 19.1,39.3 21.5,39.3C23.4,39.3 25.3,39.2 27.2,39.2C29.1,39.2 31.1,39.1 33,39.1C35.2,39.1 37.4,39 39.7,39L59,39C61.4,39 63.8,39.1 66.2,39.1C68.1,39.1 69.9,39.2 71.8,39.2C73.8,39.2 75.8,39.3 77.8,39.3C79.7,39.3 81.5,39.4 83.4,39.4C85.8,39.4 88.2,39.5 90.6,39.5C89,39.5 87.4,39.6 85.8,39.6L81.9,39.6C80,39.6 78.2,39.7 76.3,39.7C74.4,39.7 72.4,39.8 70.5,39.8C68.6,39.8 66.8,39.9 64.9,39.9C63.2,39.9 61.5,40 59.8,40C56.6,40 53.4,40.1 50.1,40.1L42.5,40.1C40.9,40.1 39.2,40.1 37.6,40C36.3,40 34.9,40 33.6,39.9C32.3,39.9 31.1,39.9 29.8,39.8C27.9,39.8 26,39.7 24.1,39.7C22.4,39.7 20.6,39.6 18.9,39.6C16.6,39.6 14.3,39.5 12,39.5C11.2,39.6 10.2,39.6 9.2,39.5C9.2,39.6 9.2,39.5 9.2,39.5Z" style="fill:rgb(0,114,161);fill-rule:nonzero;"/>
        </g>
        <g transform="matrix(0.111995,0,0,0.111079,281.045,76.8929)">
            <path d="M90.4,62.8C87.9,62.8 85.4,62.9 83,62.9C80.6,62.9 78.3,63 75.9,63C74,63 72,63.1 70.1,63.1C68,63.1 66,63.2 63.9,63.2C60.7,63.2 57.6,63.3 54.4,63.3L47.3,63.3C44.4,63.3 41.6,63.3 38.7,63.2C36.2,63.2 33.8,63.1 31.3,63.1C29.2,63.1 27.2,63 25.1,63C23.1,63 21.2,62.9 19.2,62.9C17,62.9 14.8,62.8 12.6,62.8C11.6,62.8 10.7,62.7 9.7,62.7L16.2,62.7C18.1,62.7 20,62.6 21.9,62.6C23.8,62.6 25.7,62.5 27.6,62.5C29.4,62.5 31.2,62.4 33,62.4C35.2,62.4 37.4,62.4 39.6,62.3C44.1,62.2 48.7,62.2 53.2,62.2L59.3,62.2C61.6,62.2 63.9,62.3 66.2,62.3C68,62.3 69.8,62.4 71.6,62.4C73.5,62.4 75.4,62.5 77.3,62.5C79.2,62.5 81,62.6 82.9,62.6C85.3,62.7 87.9,62.8 90.4,62.8Z" style="fill:rgb(0,114,161);fill-rule:nonzero;"/>
        </g>
        <g transform="matrix(0.111995,0,0,0.111079,281.045,76.8929)">
            <path d="M9.7,38.2L16.1,38.2C18.2,38.2 20.2,38.1 22.3,38.1C24.2,38.1 26.1,38 28,38C30,38 32,37.9 34.1,37.9C36.7,37.9 39.3,37.9 41.8,37.8C45.9,37.7 49.9,37.7 54,37.8C57.1,37.8 60.3,37.9 63.4,37.9C65.9,37.9 68.5,38 71,38C72.9,38 74.8,38.1 76.7,38.1C78.6,38.1 80.5,38.2 82.4,38.2C85,38.2 87.5,38.3 90.1,38.3L90.3,38.3L88.4,38.3C86.1,38.3 83.8,38.4 81.4,38.4C79.5,38.4 77.6,38.5 75.7,38.5C73.6,38.5 71.4,38.6 69.3,38.6C67.6,38.6 65.9,38.6 64.2,38.7C62.1,38.7 60.1,38.8 58,38.8L46.1,38.8C43.7,38.8 41.4,38.8 39,38.7C36.4,38.7 33.8,38.6 31.2,38.6C29.6,38.6 28,38.6 26.4,38.5C24.8,38.5 23.3,38.4 21.7,38.4C19.2,38.4 16.6,38.3 14.1,38.3C12.7,38.3 11.2,38.2 9.7,38.2Z" style="fill:rgb(0,114,161);fill-rule:nonzero;"/>
        </g>
        <g transform="matrix(0.111995,0,0,0.111079,281.045,76.8929)">
            <path d="M9.7,64.2L14.1,64.2C15.6,64.2 17.1,64.2 18.6,64.1L22.2,64.1C23.9,64.1 25.5,64 27.2,64C28.9,64 30.6,63.9 32.3,63.9C33.4,63.9 34.5,63.9 35.5,63.8C37.5,63.8 39.5,63.8 41.6,63.7C45.6,63.7 49.7,63.6 53.7,63.7C56.9,63.7 60.1,63.8 63.3,63.8C65.8,63.8 68.3,63.9 70.7,63.9C72.6,63.9 74.5,64 76.4,64C78.4,64 80.5,64.1 82.5,64.1C84.9,64.1 87.2,64.2 89.6,64.2L89.7,64.2L88.9,64.2C86.8,64.3 84.6,64.3 82.5,64.3C81.3,64.3 80.2,64.3 79,64.4C77.7,64.4 76.5,64.4 75.2,64.5C73.4,64.5 71.6,64.6 69.8,64.6C67.9,64.6 66,64.7 64.1,64.7C62.5,64.7 60.8,64.8 59.2,64.8L46.9,64.8C44,64.8 41.2,64.8 38.3,64.7C35.8,64.7 33.4,64.6 30.9,64.6C29.1,64.6 27.3,64.6 25.5,64.5C23.5,64.5 21.5,64.4 19.4,64.4C17.2,64.4 15,64.3 12.8,64.3C12.1,64.3 10.9,64.2 9.7,64.2Z" style="fill:rgb(0,114,161);fill-rule:nonzero;"/>
        </g>
        <g transform="matrix(0.111995,0,0,0.111079,281.045,76.8929)">
            <path d="M89.7,36.9C87.5,36.9 85.3,37 83.1,37C81.8,37 80.6,37 79.3,37.1C78.1,37.1 76.9,37.1 75.7,37.2C74,37.2 72.3,37.2 70.6,37.3C68.5,37.3 66.5,37.4 64.4,37.4C60,37.5 55.6,37.5 51.3,37.5L38.5,37.5C36.2,37.5 33.9,37.4 31.6,37.4C30.4,37.4 29.1,37.4 27.9,37.3C26.7,37.3 25.4,37.3 24.2,37.2C23,37.2 21.7,37.2 20.5,37.1C18.6,37.1 16.6,37 14.7,37C13.2,37 11.7,36.9 10.1,36.9L17,36.9C19,36.9 21,36.8 23,36.8C25.1,36.8 27.1,36.7 29.2,36.7C31.3,36.7 33.3,36.6 35.4,36.6C38.5,36.6 41.6,36.5 44.7,36.5L54,36.5C56.8,36.5 59.6,36.5 62.3,36.6C65,36.6 67.7,36.7 70.4,36.7C72.4,36.7 74.5,36.8 76.5,36.8C78.4,36.8 80.4,36.9 82.3,36.9C84.7,36.7 87.2,36.8 89.7,36.9C89.7,36.8 89.7,36.8 89.7,36.9Z" style="fill:rgb(0,114,161);fill-rule:nonzero;"/>
        </g>
        <g transform="matrix(0.111995,0,0,0.111079,281.045,76.8929)">
            <path d="M10.5,65.5L17.3,65.5C18.5,65.5 19.6,65.5 20.8,65.4C22.9,65.4 24.9,65.3 27,65.3C28.3,65.3 29.6,65.3 30.9,65.2L35,65.2C37.6,65.2 40.1,65.1 42.7,65.1L54.5,65.1C57.1,65.1 59.7,65.1 62.2,65.2C64.8,65.2 67.4,65.3 70,65.3C72,65.3 74,65.4 76,65.4C78,65.4 80,65.5 82.1,65.5C84.4,65.5 86.7,65.6 89,65.6L89.2,65.6L88.2,65.6C86.2,65.6 84.2,65.7 82.2,65.7C81,65.7 79.7,65.7 78.5,65.8C77,65.8 75.5,65.8 74,65.9C71.9,65.9 69.9,66 67.8,66C65.3,66 62.8,66.1 60.3,66.1C55.4,66.2 50.5,66.2 45.5,66.1L40.1,66.1C38.2,66.1 36.2,66.1 34.3,66C32,66 29.7,65.9 27.3,65.9C25,65.9 22.7,65.8 20.4,65.8C18,65.8 15.5,65.7 13.1,65.7C12.2,65.6 11.3,65.6 10.5,65.5Z" style="fill:rgb(0,114,161);fill-rule:nonzero;"/>
        </g>
        <g transform="matrix(0.111995,0,0,0.111079,281.045,76.8929)">
            <path d="M89.3,35.5L88.2,35.5C86.2,35.5 84.1,35.6 82.1,35.6C80.4,35.6 78.7,35.7 77,35.7C74.6,35.7 72.2,35.8 69.8,35.8C67.3,35.8 64.9,35.9 62.4,35.9C57.9,35.9 53.3,36 48.8,36L40,36C37.7,36 35.3,35.9 33,35.9C31,35.9 29,35.8 27,35.8C25.2,35.8 23.4,35.7 21.5,35.7C19.6,35.7 17.8,35.7 15.9,35.6C14.1,35.6 12.3,35.5 10.5,35.5L17.5,35.5C19.6,35.5 21.7,35.4 23.7,35.4C25.7,35.4 27.8,35.3 29.8,35.3C32.1,35.3 34.4,35.2 36.7,35.2C39.7,35.2 42.7,35.1 45.6,35.1L59.6,35.1C62.5,35.1 65.3,35.2 68.2,35.2C70.2,35.2 72.1,35.3 74.1,35.3C76.5,35.3 78.9,35.4 81.3,35.4C83.9,35.4 86.4,35.5 89,35.5C89.1,35.4 89.2,35.4 89.3,35.5Z" style="fill:rgb(0,114,161);fill-rule:nonzero;"/>
        </g>
        <g transform="matrix(0.111995,0,0,0.111079,281.045,76.8929)">
            <path d="M89,66.9C88.5,66.9 87.9,66.9 87.4,67C85.5,67 83.6,67.1 81.7,67.1C80.3,67.1 78.9,67.1 77.5,67.2L73.9,67.2C71.9,67.2 69.9,67.3 67.9,67.3C66,67.3 64.1,67.4 62.2,67.4C59.9,67.4 57.6,67.4 55.2,67.5L46.9,67.5C43.7,67.5 40.5,67.5 37.3,67.4C34.6,67.4 31.9,67.3 29.1,67.3C26.8,67.3 24.5,67.2 22.2,67.2C19.6,67.2 17,67.1 14.4,67.1C13.3,67.1 12.3,67 11.2,67L17.6,67C19.4,67 21.2,66.9 23.1,66.9C24.9,66.9 26.8,66.8 28.6,66.8C30.1,66.8 31.5,66.7 33,66.7L36.1,66.7C38.9,66.7 41.6,66.6 44.4,66.6L62,66.6C64,66.6 66,66.7 68.1,66.7C69.9,66.7 71.7,66.7 73.5,66.8C75.3,66.8 77.1,66.9 78.9,66.9C81.7,66.9 84.6,67 87.4,67C87.9,66.9 88.4,66.9 89,66.9Z" style="fill:rgb(0,114,161);fill-rule:nonzero;"/>
        </g>
        <g transform="matrix(0.111995,0,0,0.111079,281.045,76.8929)">
            <path d="M11.3,34.1L18.2,34.1C20.3,34.1 22.5,34 24.6,34C26.7,34 28.8,33.9 30.9,33.9C33.4,33.9 36,33.8 38.5,33.8C43.5,33.7 48.4,33.7 53.4,33.7L60.5,33.7C62.3,33.7 64.1,33.7 65.9,33.8C67.4,33.8 68.9,33.9 70.5,33.9L74.4,33.9C76.7,33.9 79,34 81.3,34C82.9,34 84.5,34 86,34.1C86.8,34.1 87.7,34.1 88.5,34.2L87.4,34.2C84.8,34.2 82.1,34.3 79.5,34.3C77.4,34.3 75.3,34.4 73.3,34.4C71,34.4 68.7,34.5 66.3,34.5C63.9,34.5 61.5,34.5 59.1,34.6C54.5,34.7 49.9,34.7 45.3,34.6C42.4,34.6 39.4,34.5 36.5,34.5C34.3,34.5 32.1,34.4 29.9,34.4L27.7,34.4C25.5,34.4 23.4,34.3 21.2,34.3C19,34.3 16.9,34.2 14.7,34.2C13.5,34.2 12.4,34.1 11.3,34.1Z" style="fill:rgb(0,114,161);fill-rule:nonzero;"/>
        </g>
        <g transform="matrix(0.111995,0,0,0.111079,281.045,76.8929)">
            <path d="M88.3,68.3C85.8,68.3 83.4,68.4 80.9,68.4C79.5,68.4 78.1,68.4 76.7,68.5L74.8,68.5C72,68.5 69.1,68.6 66.3,68.6C63.5,68.6 60.7,68.7 57.9,68.7C54.6,68.7 51.4,68.8 48.1,68.7C45,68.7 42,68.7 38.9,68.6L35.4,68.6C33.1,68.6 30.8,68.6 28.6,68.5C26.3,68.5 24,68.4 21.6,68.4C20.1,68.4 18.7,68.4 17.2,68.3C15.2,68.3 13.2,68.2 11.2,68.2L18,68.2C19.9,68.2 21.8,68.1 23.7,68.1C26.1,68.1 28.6,68 31,68C31.9,68 32.9,68 33.8,67.9L37.8,67.9C42.8,67.8 47.9,67.8 52.9,67.8L60,67.8C62.5,67.8 65.1,67.9 67.6,67.9C69.8,67.9 71.9,68 74.1,68C76.2,68 78.3,68.1 80.4,68.1C83.1,68.2 85.7,68.2 88.3,68.3Z" style="fill:rgb(0,114,161);fill-rule:nonzero;"/>
        </g>
        <g transform="matrix(0.111995,0,0,0.111079,281.045,76.8929)">
            <path d="M11.8,32.7L18.9,32.7C21,32.7 23.2,32.6 25.3,32.6C27.7,32.6 30.1,32.5 32.5,32.5C34.1,32.5 35.7,32.5 37.3,32.4C40,32.4 42.8,32.3 45.5,32.3L57.8,32.3C60.7,32.3 63.5,32.4 66.4,32.4C68.7,32.4 71,32.5 73.3,32.5C75.5,32.5 77.6,32.6 79.8,32.6C82.4,32.6 85,32.7 87.5,32.7L87.6,32.7L86.4,32.7C84.5,32.7 82.7,32.8 80.8,32.8C79.4,32.8 78.1,32.8 76.7,32.9L74.3,32.9C72.2,32.9 70.2,33 68.1,33L65,33C62.7,33 60.4,33.1 58,33.1L44.9,33.1C42.2,33.1 39.5,33.1 36.8,33C33.9,33 31,32.9 28.1,32.9C26,32.9 23.9,32.8 21.8,32.8C19.5,32.8 17.2,32.7 14.9,32.7C14.1,32.8 12.9,32.8 11.8,32.7Z" style="fill:rgb(0,114,161);fill-rule:nonzero;"/>
        </g>
        <g transform="matrix(0.111995,0,0,0.111079,281.045,76.8929)">
            <path d="M87.7,69.7L86.1,69.7C84.2,69.7 82.4,69.8 80.5,69.8C78.9,69.8 77.2,69.8 75.6,69.9L71.9,69.9C69.5,69.9 67,70 64.6,70C60.6,70 56.7,70.1 52.7,70.1L38,70.1C35.8,70.1 33.5,70.1 31.3,70C28.6,70 25.8,69.9 23.1,69.9C20.5,69.9 17.9,69.8 15.3,69.8C14.3,69.8 13.3,69.7 12.3,69.7L19.1,69.7C21.1,69.7 23.1,69.6 25.2,69.6C27.6,69.6 30.1,69.5 32.5,69.5C34.9,69.5 37.3,69.4 39.7,69.4C43.4,69.4 47,69.4 50.7,69.3L57.8,69.3C60,69.3 62.1,69.3 64.3,69.4C67,69.4 69.7,69.5 72.4,69.5C74.8,69.5 77.2,69.6 79.6,69.6C82.2,69.6 84.9,69.6 87.7,69.7Z" style="fill:rgb(0,114,161);fill-rule:nonzero;"/>
        </g>
        <g transform="matrix(0.111995,0,0,0.111079,281.045,76.8929)">
            <path d="M87.6,31.4C84.8,31.4 82,31.5 79.3,31.5C76.9,31.5 74.4,31.6 72,31.6C70,31.6 68,31.7 66,31.7C62.3,31.7 58.6,31.8 54.9,31.8L40.6,31.8C38.6,31.8 36.6,31.8 34.6,31.7L29.8,31.7C27.9,31.7 25.9,31.6 24,31.6C21.3,31.6 18.7,31.5 16,31.5C14.8,31.5 13.7,31.4 12.5,31.4L16,31.4C18,31.4 20,31.3 22,31.3L26.1,31.3C28.3,31.3 30.4,31.2 32.6,31.2C34.9,31.2 37.1,31.1 39.4,31.1L54,31.1C57.6,31.1 61.3,31.1 64.9,31.2C67.4,31.2 69.9,31.3 72.4,31.3C74.7,31.3 76.9,31.4 79.2,31.4C81.9,31.4 84.6,31.5 87.3,31.5C87.4,31.3 87.5,31.3 87.6,31.4C87.6,31.3 87.6,31.4 87.6,31.4Z" style="fill:rgb(0,114,161);fill-rule:nonzero;"/>
        </g>
        <g transform="matrix(0.111995,0,0,0.111079,281.045,76.8929)">
            <path d="M87,71.1C84.3,71.1 81.6,71.2 78.9,71.2C77.6,71.2 76.3,71.2 75.1,71.3C73.6,71.3 72.1,71.3 70.6,71.4C69,71.4 67.5,71.4 65.9,71.5L60.5,71.5C56.1,71.5 51.8,71.5 47.4,71.6L40.8,71.6C37.5,71.6 34.3,71.5 31,71.5C28.7,71.5 26.4,71.4 24.1,71.4C21.5,71.4 18.9,71.3 16.3,71.3C15.3,71.3 14.3,71.2 13.3,71.2L20.3,71.2C22.5,71.2 24.8,71.1 27,71.1C29.5,71.1 32.1,71 34.6,71C38.1,71 41.6,70.9 45.2,70.9L51.6,70.9C55,70.9 58.3,70.9 61.7,71L64.7,71C67.3,71 70,71.1 72.6,71.1C74.6,71.1 76.7,71.2 78.7,71.2C81.3,70.9 84.1,71 87,71.1C87,71 87,71 87,71.1Z" style="fill:rgb(0,114,161);fill-rule:nonzero;"/>
        </g>
        <g transform="matrix(0.111995,0,0,0.111079,281.045,76.8929)">
            <path d="M13.2,30L18.2,30C19.8,30 21.4,30 23,29.9L27.9,29.9C29.9,29.9 31.9,29.8 34,29.8C37.1,29.8 40.2,29.7 43.3,29.7L63.2,29.7C65.2,29.7 67.2,29.7 69.2,29.8C71.9,29.8 74.7,29.9 77.4,29.9C79.7,29.9 82,29.9 84.2,30C84.9,30 85.7,30 86.4,30.1L85.5,30.1C83.4,30.2 81.2,30.2 79.1,30.2C77.6,30.2 76,30.2 74.5,30.3L70.6,30.3C68.2,30.3 65.8,30.4 63.4,30.4C60.4,30.4 57.5,30.5 54.5,30.5L39.3,30.5C36.5,30.5 33.8,30.5 31,30.4C28.7,30.4 26.3,30.3 24,30.3C21.5,30.3 19,30.2 16.5,30.2C15.4,30.1 14.3,30 13.2,30Z" style="fill:rgb(0,114,161);fill-rule:nonzero;"/>
        </g>
        <g transform="matrix(0.111995,0,0,0.111079,281.045,76.8929)">
            <path d="M13.8,72.4L17.1,72.4C19.3,72.4 21.6,72.3 23.8,72.3L28.1,72.3C30.8,72.3 33.5,72.2 36.2,72.2C39.6,72.2 42.9,72.1 46.3,72.1L62.9,72.1C65,72.1 67.1,72.1 69.1,72.2C71.4,72.2 73.7,72.3 75.9,72.3C78.6,72.3 81.4,72.4 84.1,72.4L86.1,72.4L85,72.4C83.1,72.4 81.2,72.5 79.3,72.5L75.9,72.5C73.7,72.5 71.5,72.6 69.3,72.6C66.4,72.6 63.5,72.7 60.6,72.7L43.3,72.7C40.3,72.7 37.3,72.7 34.4,72.6C31.2,72.6 28.1,72.5 24.9,72.5C22.3,72.5 19.7,72.4 17.1,72.4C16.1,72.5 15,72.4 13.8,72.4Z" style="fill:rgb(0,114,161);fill-rule:nonzero;"/>
        </g>
        <g transform="matrix(0.111995,0,0,0.111079,281.045,76.8929)">
            <path d="M85.6,28.6C84.7,28.6 83.9,28.6 83,28.7C81.5,28.7 80.1,28.7 78.6,28.8C77,28.8 75.4,28.8 73.9,28.9C72.3,28.9 70.7,28.9 69.2,29C67.1,29 65.1,29 63,29.1L46,29.1C42.7,29.1 39.3,29 36,29L33.1,29C31.6,29 30.1,29 28.6,28.9L26.1,28.9C23.3,28.9 20.5,28.8 17.8,28.8C16.5,28.8 15.2,28.7 14,28.7L21.7,28.7C23.7,28.7 25.6,28.7 27.6,28.6C30.5,28.6 33.5,28.5 36.4,28.5C39,28.5 41.6,28.4 44.2,28.4L54.8,28.4C57.7,28.4 60.6,28.4 63.6,28.5C65.6,28.5 67.6,28.5 69.6,28.6C72.2,28.6 74.8,28.7 77.4,28.7C79.5,28.7 81.7,28.7 83.8,28.8C84.3,28.6 85,28.6 85.6,28.6Z" style="fill:rgb(0,114,161);fill-rule:nonzero;"/>
        </g>
        <g transform="matrix(0.111995,0,0,0.111079,281.045,76.8929)">
            <path d="M85.2,73.8L82.8,73.8C80.1,73.8 77.5,73.9 74.8,73.9C72.6,73.9 70.4,74 68.2,74C64.8,74 61.4,74.1 58,74.1L34.7,74.1C31.9,74.1 29.1,74 26.4,74C23.7,74 20.9,73.9 18.2,73.9C17,73.9 15.9,73.8 14.7,73.8L22.2,73.8C24.8,73.8 27.4,73.7 29.9,73.7C32.8,73.7 35.7,73.6 38.6,73.6C40.9,73.6 43.1,73.6 45.4,73.5L59.9,73.5C62.6,73.5 65.3,73.6 68.1,73.6C70.4,73.6 72.7,73.6 75,73.7C77.3,73.7 79.6,73.8 81.9,73.8C82.8,73.7 84,73.7 85.2,73.8C85.2,73.7 85.2,73.8 85.2,73.8Z" style="fill:rgb(0,114,161);fill-rule:nonzero;"/>
        </g>
        <g transform="matrix(0.111995,0,0,0.111079,281.045,76.8929)">
            <path d="M85.1,27.3L83,27.3C80.2,27.3 77.4,27.4 74.7,27.4C72,27.4 69.3,27.5 66.6,27.5C62.2,27.5 57.9,27.6 53.5,27.6L49,27.6C44.6,27.6 40.2,27.6 35.8,27.5C33.3,27.5 30.8,27.5 28.3,27.4C24.9,27.4 21.6,27.3 18.2,27.3C17.2,27.3 16.2,27.2 15.3,27.2L23,27.2C25,27.2 26.9,27.2 28.9,27.1C32.1,27.1 35.3,27 38.5,27C42.5,27 46.4,27 50.4,26.9L57.1,26.9C60.4,26.9 63.7,27 67,27C69.5,27 72,27.1 74.4,27.1C77.4,27.1 80.4,27.2 83.4,27.2C83.9,27.2 84.5,27.2 85.1,27.3Z" style="fill:rgb(0,114,161);fill-rule:nonzero;"/>
        </g>
        <g transform="matrix(0.111995,0,0,0.111079,281.045,76.8929)">
            <path d="M15.4,75.1L23.4,75.1C26.1,75.1 28.8,75 31.6,75C35.2,75 38.7,74.9 42.3,74.9L54.9,74.9C57.8,74.9 60.7,74.9 63.6,75L67.3,75C69.1,75 70.9,75 72.7,75.1C74.6,75.1 76.4,75.2 78.3,75.2L84.4,75.2C83.5,75.2 82.6,75.2 81.7,75.3C79.5,75.3 77.4,75.4 75.2,75.4C72.9,75.4 70.6,75.5 68.3,75.5L65.2,75.5C62.5,75.5 59.8,75.5 57.1,75.6L36.6,75.6C33.6,75.6 30.6,75.5 27.7,75.5C24.9,75.5 22,75.4 19.2,75.4C18,75.2 16.7,75.2 15.4,75.1Z" style="fill:rgb(0,114,161);fill-rule:nonzero;"/>
        </g>
        <g transform="matrix(0.111995,0,0,0.111079,281.045,76.8929)">
            <path d="M84.2,25.9L81.8,25.9C79.6,25.9 77.3,26 75.1,26C72.1,26 69,26.1 66,26.1C61,26.1 56,26.2 51.1,26.2L39.7,26.2C36.9,26.2 34.1,26.1 31.3,26.1L28.8,26.1C26,26.1 23.2,26 20.4,26C18.9,26 17.5,25.9 16,25.9L23.7,25.9C26.3,25.9 28.9,25.8 31.5,25.8C33.7,25.8 35.8,25.8 38,25.7L63.8,25.7C66.9,25.7 69.9,25.8 73,25.8C76.6,25.8 80.3,25.9 83.9,25.9L84.2,25.9Z" style="fill:rgb(0,114,161);fill-rule:nonzero;"/>
        </g>
        <g transform="matrix(0.111995,0,0,0.111079,281.045,76.8929)">
            <path d="M83.6,76.5C82.8,76.5 82,76.5 81.2,76.6C78.5,76.6 75.8,76.7 73.1,76.7C70.2,76.7 67.2,76.7 64.3,76.8C57.8,76.9 51.3,76.9 44.7,76.9L32.8,76.9C30.6,76.9 28.4,76.9 26.2,76.8C24.2,76.8 22.2,76.8 20.2,76.7C19,76.7 17.7,76.6 16.5,76.6L22.3,76.6C24.1,76.6 25.9,76.5 27.7,76.5L33.2,76.5C36.6,76.5 39.9,76.4 43.3,76.4L54.7,76.4C58.2,76.4 61.8,76.4 65.3,76.5C68.2,76.5 71,76.6 73.9,76.6C77,76.6 80.2,76.7 83.3,76.7C83.5,76.5 83.5,76.5 83.6,76.5Z" style="fill:rgb(0,114,161);fill-rule:nonzero;"/>
        </g>
        <g transform="matrix(0.111995,0,0,0.111079,281.045,76.8929)">
            <path d="M16.7,24.5L25.7,24.5C28.1,24.5 30.4,24.5 32.8,24.4C35.9,24.4 39,24.3 42.1,24.3L63.6,24.3C66.8,24.3 69.9,24.4 73.1,24.4C76.3,24.4 79.4,24.5 82.6,24.5L82.8,24.5L80.9,24.5C77.8,24.5 74.7,24.6 71.6,24.6C69.1,24.6 66.6,24.7 64,24.7C59.9,24.7 55.7,24.8 51.6,24.8L39.5,24.8C36.7,24.8 33.9,24.7 31.1,24.7C28.2,24.7 25.3,24.6 22.4,24.6C20.5,24.6 18.6,24.6 16.7,24.5Z" style="fill:rgb(0,114,161);fill-rule:nonzero;"/>
        </g>
        <g transform="matrix(0.111995,0,0,0.111079,281.045,76.8929)">
            <path d="M17.7,77.8L25.9,77.8C29.3,77.8 32.8,77.8 36.2,77.7C42.6,77.6 48.9,77.6 55.3,77.6L62.9,77.6C65.5,77.6 68.1,77.6 70.7,77.7C73.7,77.7 76.7,77.8 79.8,77.8L82.4,77.8C81.3,77.8 80.2,77.9 79,77.9C77.1,77.9 75.2,77.9 73.3,78C71.1,78 68.9,78.1 66.6,78.1L42.7,78.1C40.1,78.1 37.6,78.1 35,78C32.5,78 30.1,78 27.6,77.9L22.6,77.9C21,77.9 19.4,77.9 17.7,77.8C17.8,77.9 17.7,77.9 17.7,77.8Z" style="fill:rgb(0,114,161);fill-rule:nonzero;"/>
        </g>
        <g transform="matrix(0.111995,0,0,0.111079,281.045,76.8929)">
            <path d="M17.9,23.1L23.9,23.1C26.2,23.1 28.4,23 30.7,23L37.5,23C41,23 44.5,23 48,22.9L61.4,22.9C64.8,22.9 68.3,23 71.7,23C74.3,23 77,23.1 79.6,23.1L82.1,23.1C80.3,23.1 78.5,23.2 76.7,23.2C74.4,23.2 72.1,23.2 69.7,23.3C65.6,23.3 61.5,23.4 57.3,23.4L43.9,23.4C40.5,23.4 37.1,23.4 33.7,23.3C31,23.3 28.4,23.2 25.7,23.2L21.6,23.2C20.4,23.2 19.2,23.2 17.9,23.1Z" style="fill:rgb(0,114,161);fill-rule:nonzero;"/>
        </g>
        <g transform="matrix(0.111995,0,0,0.111079,281.045,76.8929)">
            <path d="M18.7,79.2L27.7,79.2C31.5,79.2 35.2,79.1 39,79.1L60.1,79.1C62.5,79.1 64.8,79.1 67.2,79.2C69.6,79.2 72,79.3 74.4,79.3L81.1,79.3L78.5,79.3C75,79.3 71.5,79.4 68,79.4C64.4,79.4 60.9,79.5 57.3,79.5L35.8,79.5C32.1,79.5 28.4,79.4 24.7,79.4C22.6,79.3 20.7,79.3 18.7,79.2Z" style="fill:rgb(0,114,161);fill-rule:nonzero;"/>
        </g>
        <g transform="matrix(0.111995,0,0,0.111079,281.045,76.8929)">
            <path d="M20,80.6L29.9,80.6C33.2,80.6 36.6,80.5 39.9,80.5L53.3,80.5C57.8,80.5 62.2,80.5 66.7,80.6C70.1,80.6 73.6,80.7 77,80.7C77.9,80.7 78.8,80.7 79.7,80.8L76.9,80.8C74,80.8 71.1,80.8 68.1,80.9C60.2,81 52.3,81 44.4,81L35.9,81C32.6,81 29.3,80.9 26,80.9C24,80.9 22,80.8 20,80.8C20.1,80.6 20,80.6 20,80.6Z" style="fill:rgb(0,114,161);fill-rule:nonzero;"/>
        </g>
        <g transform="matrix(0.111995,0,0,0.111079,281.045,76.8929)">
            <path d="M21.4,82L31.7,82C34.4,82 37.2,81.9 39.9,81.9L53,81.9C57.6,81.9 62.1,81.9 66.7,82C69.5,82 72.4,82 75.2,82.1C76.2,82.1 77.2,82.1 78.2,82.2C77.1,82.2 76,82.2 74.8,82.3C71.7,82.3 68.5,82.4 65.4,82.4C62.8,82.4 60.1,82.4 57.5,82.5L42.5,82.5C37.9,82.5 33.4,82.5 28.8,82.4C26.9,82.4 24.9,82.3 23,82.3C22.6,82 22,82 21.4,82Z" style="fill:rgb(0,114,161);fill-rule:nonzero;"/>
        </g>
        <g transform="matrix(0.111995,0,0,0.111079,281.045,76.8929)">
            <path d="M22.1,19C40.6,18.8 59.1,18.8 77.7,19L75.6,19C73,19 70.5,19.1 67.9,19.1L39.8,19.1C37,19.1 34.1,19.1 31.3,19L26.6,19C25,19.1 23.5,19.1 22.1,19Z" style="fill:rgb(0,114,161);fill-rule:nonzero;"/>
        </g>
        <g transform="matrix(0.111995,0,0,0.111079,281.045,76.8929)">
            <path d="M23.2,83.3C41.1,83.1 59,83.1 76.8,83.3L73.9,83.3C71.2,83.3 68.5,83.4 65.8,83.4L38.9,83.4C35.2,83.4 31.4,83.4 27.7,83.3C26.2,83.4 24.7,83.4 23.2,83.3Z" style="fill:rgb(0,114,161);fill-rule:nonzero;"/>
        </g>
        <g transform="matrix(0.111995,0,0,0.111079,281.045,76.8929)">
            <path d="M23.6,17.7C41.1,17.5 58.7,17.5 76.2,17.7L73.7,17.7C72.3,17.7 70.8,17.7 69.4,17.8L44.7,17.8C40.4,17.8 36.2,17.8 31.9,17.7C29.2,17.8 26.4,17.7 23.6,17.7Z" style="fill:rgb(0,114,161);fill-rule:nonzero;"/>
        </g>
        <g transform="matrix(0.111995,0,0,0.111079,281.045,76.8929)">
            <path d="M24.8,84.7C41.5,84.5 58.2,84.5 74.9,84.7L71.5,84.7C67.1,84.7 62.7,84.8 58.4,84.8L34,84.8C30.9,84.8 27.9,84.8 24.8,84.7Z" style="fill:rgb(0,114,161);fill-rule:nonzero;"/>
        </g>
        <g transform="matrix(0.111995,0,0,0.111079,281.045,76.8929)">
            <path d="M25.4,16.3C29.2,16.2 69.9,16.2 74.2,16.3L71.4,16.3C66.8,16.4 62.2,16.4 57.6,16.4L30.4,16.4C28.9,16.4 27.3,16.3 25.8,16.3L25.4,16.3Z" style="fill:rgb(0,114,161);fill-rule:nonzero;"/>
        </g>
        <g transform="matrix(0.111995,0,0,0.111079,281.045,76.8929)">
            <path d="M26.9,86.1C30.9,86 68,86 72.9,86.1L69.6,86.1C65.6,86.1 61.5,86.2 57.5,86.2L32.6,86.2C30.6,86.1 28.8,86.1 26.9,86.1Z" style="fill:rgb(0,114,161);fill-rule:nonzero;"/>
        </g>
        <g transform="matrix(0.111995,0,0,0.111079,281.045,76.8929)">
            <path d="M72.1,14.9L69.9,14.9C67.8,14.9 65.8,15 63.7,15L33,15C31.2,15 29.3,14.9 27.5,14.9C29.3,14.8 69.5,14.8 72.1,14.9Z" style="fill:rgb(0,114,161);fill-rule:nonzero;"/>
        </g>
        <g transform="matrix(0.111995,0,0,0.111079,281.045,76.8929)">
            <path d="M70.5,87.4C65.2,87.6 37.3,87.6 28.8,87.4C42.8,87.3 56.7,87.3 70.5,87.4Z" style="fill:rgb(0,114,161);fill-rule:nonzero;"/>
        </g>
        <g transform="matrix(0.111995,0,0,0.111079,281.045,76.8929)">
            <path d="M70,13.6C56.7,13.8 43.4,13.8 30.1,13.6C31.2,13.5 68,13.5 70,13.6Z" style="fill:rgb(0,114,161);fill-rule:nonzero;"/>
        </g>
        <g transform="matrix(0.111995,0,0,0.111079,281.045,76.8929)">
            <path d="M31.6,88.8C34.3,88.7 65.2,88.7 68,88.8L65.4,88.8C63.7,88.8 62,88.8 60.3,88.9L41.4,88.9C39.3,88.9 37.2,88.9 35.1,88.8L31.6,88.8Z" style="fill:rgb(0,114,161);fill-rule:nonzero;"/>
        </g>
        <g transform="matrix(0.111995,0,0,0.111079,281.045,76.8929)">
            <path d="M32.6,12.2C44.1,12.1 55.7,12.1 67.2,12.2C63.4,12.2 59.5,12.3 55.7,12.3L44.2,12.3C40.3,12.3 36.5,12.2 32.6,12.2Z" style="fill:rgb(0,114,161);fill-rule:nonzero;"/>
        </g>
        <g transform="matrix(0.111995,0,0,0.111079,281.045,76.8929)">
            <path d="M34.4,90.2C44.5,90.1 54.6,90.1 64.7,90.2C54.6,90.3 44.5,90.3 34.4,90.2Z" style="fill:rgb(0,114,161);fill-rule:nonzero;"/>
        </g>
        <g transform="matrix(0.111995,0,0,0.111079,281.045,76.8929)">
            <path d="M36.4,10.8L63.9,10.8C54.8,10.9 45.6,10.9 36.4,10.8Z" style="fill:rgb(0,114,161);fill-rule:nonzero;"/>
        </g>
        <g transform="matrix(0.111995,0,0,0.111079,281.045,76.8929)">
            <path d="M39.2,91.5L60.6,91.5C53.4,91.6 46.3,91.6 39.2,91.5Z" style="fill:rgb(0,114,161);fill-rule:nonzero;"/>
        </g>
        <g transform="matrix(0.111995,0,0,0.111079,281.045,76.8929)">
            <path d="M41.2,9.4L58.5,9.4C52.7,9.5 46.9,9.5 41.2,9.4Z" style="fill:rgb(0,114,161);fill-rule:nonzero;"/>
        </g>
        <g transform="matrix(0.111995,0,0,0.111079,281.045,76.8929)">
            <path d="M65.2,90.2L65.2,90.2Z" style="fill:rgb(0,114,161);fill-rule:nonzero;"/>
        </g>
    </g>
    <g transform="matrix(-0.153431,-0.0551207,-0.0538348,0.149852,34.4338,4.29896)">
        <path d="M64.627,124.712C60.468,124.962 56.578,126.867 53.832,130C48.103,136.495 48.728,146.442 55.224,152.17C58.088,154.699 61.782,156.092 65.603,156.086C69.957,156.086 74.294,154.291 77.394,150.776C80.157,147.658 81.561,143.56 81.288,139.403C81.038,135.244 79.133,131.354 76,128.608C72.856,125.835 68.817,124.47 64.627,124.712ZM77.471,139.642C77.678,142.787 76.617,145.887 74.526,148.246C70.192,153.161 62.665,153.634 57.753,149.302C52.839,144.968 52.365,137.444 56.7,132.529C58.952,129.96 62.212,128.491 65.628,128.506C68.521,128.506 71.282,129.547 73.47,131.476C75.84,133.553 77.282,136.496 77.471,139.642Z" style="fill:rgb(0,114,161);fill-rule:nonzero;"/>
    </g>
    <g transform="matrix(1.1455,0,0,1.1455,-43.0282,-12.7612)">
        <circle cx="52.236" cy="30.101" r="1.705" style="fill:white;"/>
    </g>
    <g transform="matrix(0.922979,-0.38485,0.666314,1.59801,-39.5457,-77.9259)">
        <path d="M10.756,51.542C10.756,57.78 10.756,57.755 10.756,57.755" style="fill:rgb(0,114,161);stroke:rgb(0,114,161);stroke-width:0.42px;"/>
    </g>
    <g transform="matrix(0.922979,-0.38485,0.554344,1.32947,-34.4429,-61.4729)">
        <path d="M10.756,51.542C10.756,57.78 10.756,57.755 10.756,57.755" style="fill:rgb(0,114,161);stroke:rgb(0,114,161);stroke-width:0.48px;"/>
    </g>
    <g transform="matrix(0.922979,-0.38485,0.554344,1.32947,-31.4117,-62.6824)">
        <path d="M10.756,51.542C10.756,57.78 10.756,57.755 10.756,57.755" style="fill:rgb(0,114,161);stroke:rgb(0,114,161);stroke-width:0.48px;"/>
    </g>
    <g transform="matrix(0.922979,-0.38485,0.413845,0.992517,-27.7686,-41.3373)">
        <path d="M10.756,51.542C10.756,57.78 10.756,57.755 10.756,57.755" style="fill:rgb(0,114,161);stroke:rgb(0,114,161);stroke-width:0.58px;"/>
    </g>
    <g transform="matrix(-0.153431,-0.0551207,-0.0538348,0.149852,27.7751,-4.21603)">
        <path d="M64.627,124.712C60.468,124.962 56.578,126.867 53.832,130C48.103,136.495 48.728,146.442 55.224,152.17C58.088,154.699 61.782,156.092 65.603,156.086C69.957,156.086 74.294,154.291 77.394,150.776C80.157,147.658 81.561,143.56 81.288,139.403C81.038,135.244 79.133,131.354 76,128.608C72.856,125.835 68.817,124.47 64.627,124.712ZM77.471,139.642C77.678,142.787 76.617,145.887 74.526,148.246C70.192,153.161 62.665,153.634 57.753,149.302C52.839,144.968 52.365,137.444 56.7,132.529C58.952,129.96 62.212,128.491 65.628,128.506C68.521,128.506 71.282,129.547 73.47,131.476C75.84,133.553 77.282,136.496 77.471,139.642Z" style="fill:white;fill-rule:nonzero;"/>
    </g>
    <g transform="matrix(1,0,0,1,-269.655,-44.8724)">
        <g transform="matrix(0.922979,-0.38485,0.666314,1.59801,230.109,-33.0535)">
            <path d="M10.756,51.542C10.756,57.78 10.756,57.755 10.756,57.755" style="fill:rgb(0,114,161);stroke:rgb(0,114,161);stroke-width:0.42px;"/>
        </g>
        <g transform="matrix(0.922979,-0.38485,0.554344,1.32947,235.212,-16.6005)">
            <path d="M10.756,51.542C10.756,57.78 10.756,57.755 10.756,57.755" style="fill:rgb(0,114,161);stroke:rgb(0,114,161);stroke-width:0.48px;"/>
        </g>
        <g transform="matrix(0.922979,-0.38485,0.554344,1.32947,238.243,-17.81)">
            <path d="M10.756,51.542C10.756,57.78 10.756,57.755 10.756,57.755" style="fill:rgb(0,114,161);stroke:rgb(0,114,161);stroke-width:0.48px;"/>
        </g>
    </g>
    <g transform="matrix(1,0,0,1,-269.655,-44.8724)">
        <path d="M278.856,48.146C278.844,48.116 278.838,48.084 278.838,48.05C278.838,47.901 278.959,47.779 279.109,47.779C279.219,47.779 279.313,47.845 279.356,47.94C279.361,47.942 279.365,47.946 279.367,47.951L283.058,56.84C283.796,58.637 282.916,60.665 281.097,61.362C280.295,61.67 279.401,61.678 278.584,61.384C277.653,61.049 276.861,60.341 276.462,59.368L272.937,50.781C272.895,50.728 272.869,50.661 272.869,50.589C272.869,50.419 273.007,50.282 273.176,50.282C273.322,50.282 273.445,50.385 273.475,50.522C273.476,50.523 273.477,50.524 273.478,50.526L277.019,59.155C277.312,59.874 277.884,60.453 278.608,60.762C279.329,61.074 280.145,61.092 280.871,60.812C282.382,60.233 283.113,58.547 282.501,57.054L278.857,48.155C278.855,48.153 278.855,48.15 278.856,48.146Z" style="fill:rgb(0,114,161);"/>
    </g>
    <g transform="matrix(1.1455,0,0,1.1455,-49.6868,-21.2762)">
        <circle cx="52.236" cy="30.101" r="1.705" style="fill:rgb(0,114,161);"/>
    </g>
</svg>
