<?xml version="1.0" encoding="UTF-8"?>
<svg data-bbox="-0.748 0.299 47.813 27.515" xmlns="http://www.w3.org/2000/svg" viewBox="0 0 49 27" fill-rule="evenodd" clip-rule="evenodd" stroke-linecap="round" stroke-linejoin="round" stroke-miterlimit="1.5" data-type="ugc">
    <g>
        <g transform="translate(-48.389 -20.67)">
            <text y="37.359" x="47.65" font-family="'Futura-Medium','Futura',sans-serif" font-weight="500" font-size="10" fill="#0072a1">F   RMING</text>
            <text y="46.359" x="48.389" font-family="'Futura-Bold','Futura',sans-serif" font-weight="700" font-size="10" fill="#ffffff">W   RLDS</text>
        </g>
        <path d="M12.083 22.176h.694c.213 0 .437-.011.65-.011.179 0 .358-.011.537-.011.19 0 .392-.011.583-.011.19 0 .38-.011.57-.011.214 0 .438-.012.65-.012.224 0 .46-.01.684-.01h.156-.313c-.291 0-.583-.012-.863-.012-.201 0-.403-.01-.593-.01-.202 0-.392-.012-.594-.012-.168 0-.325-.011-.493-.011-.19 0-.37-.011-.56-.011-.235 0-.481-.011-.716-.011-.135 0-.27-.011-.404-.011h.448c.202 0 .404-.012.605-.012h.247c.224 0 .436-.01.66-.01h.247c.179 0 .358-.012.537-.012.236 0 .482-.01.717-.01.213 0 .415-.012.627-.012.09 0 .168 0 .258-.011h-.336c-.202 0-.414-.011-.616-.011-.18 0-.37 0-.549-.011-.213 0-.425-.011-.638-.011-.19 0-.381-.012-.571-.012-.18 0-.359-.01-.527-.01-.179 0-.358 0-.537-.012-.19 0-.381-.01-.572-.01h.695c.213 0 .425-.012.638-.012.18 0 .359-.011.538-.011.19 0 .38-.011.571-.011.19 0 .37-.011.56-.011.224 0 .46-.011.683-.011.18 0 .37 0 .549-.011h.112c-.078 0-.146 0-.224-.012-.202 0-.414-.01-.616-.01-.134 0-.269 0-.403-.012h-.381c-.168 0-.336-.01-.504-.01-.168 0-.336 0-.504-.012-.235 0-.46-.011-.694-.011-.224 0-.448-.011-.672-.011-.112 0-.224-.011-.336-.011h.705c.19 0 .37-.011.56-.011.18 0 .359-.012.538-.012.201 0 .403-.01.616-.01.168 0 .325-.012.493-.012.179 0 .37-.01.548-.01.28 0 .572-.012.852-.012h.022-.202c-.212 0-.414-.011-.627-.011-.123 0-.246 0-.38-.011h-.381c-.202 0-.415-.011-.616-.011-.157 0-.314 0-.46-.011-.179 0-.37-.012-.548-.012-.168 0-.325-.01-.493-.01-.202 0-.403-.012-.605-.012h.672c.18 0 .358-.01.538-.01.168 0 .347 0 .515-.012.157 0 .302-.011.459-.011.28 0 .549-.011.829-.011.201 0 .403-.011.616-.011.246 0 .504-.011.75-.011h.034c-.112 0-.213 0-.325-.012-.168 0-.325 0-.493-.01-.246 0-.493-.012-.739-.012-.224 0-.448-.01-.672-.01-.123 0-.246 0-.38-.012-.18 0-.348-.011-.527-.011h-.247c-.19 0-.392 0-.582-.011-.157 0-.302-.011-.46-.011h.706c.18 0 .359-.011.527-.011.213 0 .437-.011.65-.011.19 0 .391-.012.582-.012.19 0 .37-.01.56-.01.224 0 .448-.012.672-.012.246 0 .493-.01.739-.01h.818c.313 0 .627.01.93.01.234 0 .47.011.705.011.19 0 .38.011.571.011.19 0 .38.012.571.012.213 0 .415.01.627.01.258 0 .504.012.762.012h.022c-.123 0-.224.01-.336.01-.19 0-.392 0-.582.012-.202 0-.414.011-.616.011-.168 0-.336.011-.515.011-.157 0-.325.011-.482.011-.157 0-.325.011-.481.011-.135 0-.27 0-.404.011h-.235c-.257 0-.504.012-.761.012h.492c.19 0 .392.01.583.01.235 0 .47.012.705.012.202 0 .404.01.594.01.213 0 .414.012.627.012.168 0 .347.011.515.011.247 0 .482.011.728.011h.168c-.112 0-.224.011-.336.011-.19 0-.38 0-.582.011-.19 0-.392.012-.582.012-.202 0-.404.01-.605.01-.168 0-.347.012-.515.012-.19 0-.381.01-.572.01-.224 0-.448.012-.672.012-.156 0-.313.011-.47.011h.414c.146 0 .292 0 .426.011.134 0 .258 0 .392.011.168 0 .336.011.515.011.213 0 .415.012.627.012.202 0 .404.01.594.01.19 0 .392.012.582.012.27 0 .527.01.796.01h-.079c-.224 0-.448.012-.672.012-.168 0-.336.011-.515.011-.224 0-.448.011-.683.011-.202 0-.403.011-.605.011-.213 0-.426.011-.638.011-.19 0-.37.012-.56.012-.168 0-.336.01-.504.01h-.056.347c.213 0 .425.012.638.012h.168c.168 0 .347 0 .515.01.19 0 .392.012.583.012.201 0 .414.011.616.011.168 0 .336.011.515.011.246 0 .504.011.75.011h.168c-.078 0-.156 0-.224.011-.145 0-.302 0-.448.011-.134 0-.257 0-.392.012-.134 0-.257 0-.392.01-.179 0-.358.012-.526.012-.157 0-.325.01-.482.01-.212 0-.425.012-.638.012-.19 0-.38 0-.571.011-.18 0-.37.011-.549.011h-.146.404c.145 0 .302 0 .448.011.145 0 .28 0 .425.011.168 0 .347.012.515.012.168 0 .325.01.493.01.235 0 .482.012.717.012.213 0 .426.01.638.01.19 0 .381 0 .572.012.056 0 .112 0 .168.011-.068 0-.146 0-.213.011-.224 0-.46.011-.683.011-.213 0-.415.011-.628.011-.19 0-.37.012-.56.012-.201 0-.403.01-.616.01H18.5c-.145 0-.28.012-.425.012h-.348c-.235 0-.481.01-.716.01h-.034.515c.168 0 .347 0 .515.012h.348c.19 0 .38.011.582.011.202 0 .414.011.616.011.19 0 .38.011.582.011.202 0 .404.011.605.011.269 0 .527.012.795.012-.179 0-.358.01-.537.01-.19 0-.392.012-.583.012h-.37c-.167 0-.335.01-.503.01-.213 0-.437.012-.65.012-.179 0-.358.011-.537.011-.213 0-.415.011-.628.011-.257 0-.515.011-.761.011h-.717c-.224 0-.46-.01-.683-.01-.202 0-.403-.012-.594-.012-.19 0-.37-.011-.56-.011-.213 0-.425-.011-.638-.011-.202 0-.415-.011-.616-.011-.168 0-.336 0-.504-.011-.213-.056-.392-.056-.571-.067zm4.58-.067h.023-.023z" fill="#0072a1" fill-rule="nonzero"/>
        <path d="M12.116 21.265h.235c.224 0 .448-.011.684-.011h.347c.179 0 .347-.011.526-.011.213 0 .415-.011.627-.011.168 0 .336-.011.504-.011.18 0 .359-.011.538-.011.168 0 .325 0 .493-.012h1.59c.235 0 .47.012.695.012.201 0 .403.01.593.01.19 0 .381.012.571.012.19 0 .37.01.56.01.213 0 .426.012.628.012.257 0 .515.011.761.011h.011c-.179 0-.358.011-.537.011-.202 0-.403.011-.605.011h-.347c-.168 0-.325.011-.493.011-.213 0-.426.012-.638.012-.18 0-.359.01-.527.01-.19 0-.38.012-.571.012-.202 0-.414.01-.616.01h-.784c-.258 0-.515-.01-.784-.01-.246 0-.493-.011-.74-.011-.335-.011-.66-.011-.996-.023-.235 0-.482-.01-.717-.01s-.481-.012-.717-.012c-.09 0-.19-.01-.29-.01z" fill="#0072a1" fill-rule="nonzero"/>
        <path d="M12.127 22.331c.213 0 .415 0 .628-.01.201 0 .403-.012.593-.012.213 0 .426-.01.639-.01.201 0 .392-.012.593-.012.18 0 .359-.011.538-.011.201 0 .403-.011.605-.011.19 0 .392-.011.582-.011h1.378c.224 0 .448.01.683.01.201 0 .403.012.593.012.19 0 .37.011.56.011.19 0 .392.011.583.011.201 0 .403.011.605.011.268 0 .526.011.795.011h.022c-.078 0-.157 0-.224.011-.179 0-.37.012-.549.012-.19 0-.38.01-.57.01h-.214c-.156 0-.324.012-.481.012-.157 0-.314.01-.47.01-.124 0-.247 0-.37.012h-.314c-.325 0-.66.011-.985.011h-.818c-.291 0-.582-.011-.874-.011-.19 0-.392 0-.582-.011-.157 0-.314-.011-.47-.011-.224 0-.46-.011-.684-.011-.257 0-.515-.011-.772-.011-.168 0-.325 0-.493-.012-.19.012-.359 0-.527 0z" fill="#0072a1" fill-rule="nonzero"/>
        <path d="M12.15 21.11h.414c.213 0 .415-.012.627-.012.28 0 .56-.01.83-.01.2 0 .391-.012.593-.012.19 0 .392-.01.582-.01.247 0 .504 0 .75-.012.46-.011.919-.011 1.378 0 .28 0 .56.011.829.011.258 0 .515.011.773.011.19 0 .38.011.571.011.19 0 .392.011.582.011.213 0 .415.012.628.012.257 0 .515.01.784.01h-.101c-.224.012-.437.012-.661.012-.112 0-.235 0-.347.01-.123 0-.247 0-.359.012-.179 0-.358.011-.537.011-.213 0-.437.011-.65.011-.213 0-.414.011-.627.011-.28 0-.56.011-.84.011-.336.012-.672 0-.997 0-.28 0-.56-.01-.851-.01-.202 0-.414-.012-.616-.012-.213 0-.426-.01-.638-.01h-.28c-.19 0-.37-.012-.56-.012-.258 0-.516-.011-.784-.011-.168-.022-.336-.022-.493-.033z" fill="#0072a1" fill-rule="nonzero"/>
        <path d="M21.48 22.476c-.068 0-.146 0-.213.011-.247 0-.482.011-.728.011-.213 0-.415.011-.628.011-.212 0-.414.011-.627.011-.179 0-.358.011-.537.011-.224 0-.448.012-.672.012-.28 0-.572.01-.852.01h-.85c-.258 0-.516 0-.762-.01-.213 0-.437-.012-.65-.012-.19 0-.38-.01-.571-.01-.202 0-.403-.012-.594-.012-.213 0-.414-.01-.627-.01-.235 0-.47-.012-.694-.012-.112 0-.224-.011-.336-.011h.268c.157 0 .303 0 .46-.011.123 0 .246 0 .37-.011.134 0 .268 0 .402-.011.124 0 .258 0 .381-.012.157 0 .314-.01.47-.01.18 0 .359-.012.538-.012.19 0 .381-.01.571-.01h.325c.235 0 .47-.012.695-.012h.806c.291 0 .571.011.862.011.213 0 .415.011.628.011.179 0 .37.011.548.011.19 0 .392.011.583.011.213 0 .425.012.638.012.28.033.538.033.795.033z" fill="#0072a1" fill-rule="nonzero"/>
        <path d="M12.15 20.954h.549c.257 0 .515-.011.772-.011.202 0 .404-.011.616-.011.19 0 .381-.011.572-.011.212 0 .425-.011.638-.011.19 0 .392-.011.582-.011.247 0 .482-.012.728-.012h.75c.292 0 .583.012.874.012.213 0 .426.01.639.01.213 0 .414.012.627.012.168 0 .347.01.515.01.19 0 .37.012.56.012.213 0 .415.011.627.011h.303c-.079 0-.157 0-.235.011-.146 0-.292.011-.448.011-.247 0-.493.011-.75.011-.258 0-.516.012-.762.012-.168 0-.336 0-.504.01-.19 0-.37.012-.56.012-.224 0-.46.01-.684.01-.29 0-.593.012-.884.012-.314 0-.628 0-.93-.011-.213 0-.437-.011-.65-.011-.212 0-.436-.011-.65-.011-.212 0-.414-.011-.626-.011-.202 0-.404-.012-.605-.012-.235 0-.46-.01-.695-.01-.145-.012-.257-.012-.37-.023z" fill="#0072a1" fill-rule="nonzero"/>
        <path d="M12.161 22.631h.46c.145 0 .29 0 .447-.01.123 0 .247 0 .37-.012.19 0 .38-.01.571-.01.213 0 .426-.012.638-.012.213 0 .426-.011.639-.011.19 0 .392-.011.582-.011.359 0 .706-.011 1.064-.011h.448c.291 0 .583.01.874.01.19 0 .392.012.582.012.224 0 .46.011.683.011.157 0 .303 0 .46.011.19 0 .392.011.582.011.202 0 .392.011.594.011.09 0 .19 0 .28.011h-.056c-.19.012-.392.012-.583.012-.257 0-.515.01-.773.01-.257 0-.504.012-.761.012-.202 0-.415.01-.616.01-.123 0-.247 0-.37.012-.201 0-.403.011-.605.011h-1.668c-.168 0-.348 0-.516-.011h-.403c-.213 0-.425-.011-.638-.011-.19 0-.37-.011-.56-.011-.18 0-.37-.011-.549-.011-.19 0-.37-.011-.56-.011h-.291c-.123 0-.224-.012-.325-.012z" fill="#0072a1" fill-rule="nonzero"/>
        <path d="M21.435 20.81c-.19 0-.37.01-.56.01-.202 0-.404.012-.605.012h-.359c-.179 0-.358.011-.537.011-.224 0-.437.011-.661.011-.19 0-.38.011-.582.011-.236 0-.46.011-.695.011h-.851c-.302 0-.605 0-.907-.01-.224 0-.46-.012-.683-.012-.202 0-.404-.011-.616-.011-.18 0-.37-.011-.55-.011-.223 0-.436-.011-.66-.011-.202 0-.392 0-.594-.011-.145 0-.28-.011-.425-.011h.705c.19 0 .381-.012.572-.012.224 0 .448-.01.672-.01.212 0 .414-.012.627-.012.213 0 .437-.01.65-.01.347 0 .683-.012 1.03-.012h.672c.291 0 .571 0 .862.011.258 0 .515.011.762.011.224 0 .448.011.683.011.224 0 .46.011.683.011h.303c.168 0 .324 0 .492.012.18 0 .359 0 .538.01h.034z" fill="#0072a1" fill-rule="nonzero"/>
        <path d="M21.412 22.787c-.246 0-.481.011-.728.011-.157 0-.313 0-.459.011h-.347c-.168 0-.347.011-.515.011-.247 0-.504.011-.75.011-.214 0-.438.011-.65.011-.247 0-.482 0-.728.012h-1.03c-.258 0-.505-.012-.762-.012h-.27c-.212 0-.425-.01-.638-.01-.134 0-.268 0-.403-.012-.19 0-.38-.01-.571-.01h-.269c-.19 0-.38 0-.571-.012-.168 0-.347-.011-.515-.011.19 0 .392 0 .582-.011.269 0 .527-.011.795-.011.202 0 .392-.011.594-.011.202 0 .392-.012.594-.012.212 0 .425-.01.638-.01.325 0 .66-.012.986-.012h.672c.302 0 .616 0 .918.011.269 0 .538.011.806.011.202 0 .404.012.605.012.202 0 .392.01.594.01.213 0 .425.012.638.012.247 0 .515 0 .784.01z" fill="#0072a1" fill-rule="nonzero"/>
        <path d="M21.401 20.654h-.134c-.213 0-.437.011-.65.011-.168 0-.347.011-.515.011-.291 0-.571.011-.863.011-.179 0-.358.012-.526.012-.213 0-.437 0-.65.01-.56.012-1.13.012-1.69.012h-.538c-.247 0-.493-.011-.74-.011-.168 0-.324 0-.492-.011-.247 0-.482-.012-.728-.012-.202 0-.404-.01-.616-.01-.236 0-.482-.012-.717-.012-.112 0-.213-.01-.325-.01h.694c.19 0 .381-.012.572-.012.235 0 .459-.011.694-.011h.616c.134 0 .269 0 .403-.011.314 0 .639-.011.952-.011h1.848c.235 0 .47.01.706.01.213 0 .425.012.638.012.19 0 .392.011.583.011.235 0 .459.011.694.011.157 0 .325 0 .482.011.1-.01.201-.01.302-.01z" fill="#0072a1" fill-rule="nonzero"/>
        <path d="M21.356 22.942c-.19 0-.37.012-.56.012-.201 0-.403.01-.593.01-.135 0-.27 0-.404.012-.19 0-.38.01-.57.01-.191 0-.37.012-.56.012-.146 0-.28 0-.426.011-.213 0-.426 0-.639.011h-1.153c-.348 0-.695 0-1.042-.01-.269 0-.549-.012-.818-.012-.201 0-.414 0-.616-.011-.235 0-.459-.011-.694-.011-.157 0-.314 0-.47-.011-.18 0-.37-.011-.55-.011h.684c.19 0 .38-.012.571-.012.224 0 .448-.01.683-.01.157 0 .325 0 .482-.012.235 0 .46-.01.694-.01.325 0 .639-.012.964-.012h1.49c.268 0 .537.011.806.011.235 0 .459.011.694.011.213 0 .414.011.627.011.202 0 .403.011.616.011.247-.01.515-.01.784 0 0-.01 0 0 0 0z" fill="#0072a1" fill-rule="nonzero"/>
        <path d="M12.24 20.499c.19 0 .38 0 .57-.011.27 0 .538-.012.807-.012.213 0 .426-.01.638-.01.213 0 .437-.012.65-.012.246 0 .493-.01.75-.01h2.162c.269 0 .538.01.806.01.213 0 .415.011.628.011.224 0 .448.011.672.011.212 0 .414.012.627.012.269 0 .537.01.806.01-.179 0-.358.012-.537.012h-.437c-.213 0-.415.01-.627.01-.213 0-.437.012-.65.012-.213 0-.414.011-.627.011-.19 0-.381.011-.571.011-.359 0-.717.011-1.087.011h-.851c-.18 0-.37 0-.549-.01-.145 0-.302 0-.448-.012-.145 0-.28 0-.425-.011-.213 0-.426-.011-.639-.011-.19 0-.392-.011-.582-.011-.258 0-.515-.011-.773-.011-.09.01-.202.01-.314 0 0 .01 0 0 0 0z" fill="#0072a1" fill-rule="nonzero"/>
        <path d="M21.334 23.087c-.28 0-.56.01-.829.01-.269 0-.526.012-.795.012-.213 0-.437.011-.65.011-.235 0-.459.011-.694.011-.359 0-.706.011-1.064.011h-.795c-.325 0-.639 0-.964-.01-.28 0-.548-.012-.828-.012-.236 0-.46-.011-.695-.011-.224 0-.437-.011-.66-.011-.247 0-.493-.011-.74-.011-.112 0-.213-.011-.325-.011h.728c.213 0 .426-.011.639-.011.213 0 .425-.012.638-.012.202 0 .403-.01.605-.01.246 0 .493 0 .74-.012.503-.01 1.018-.01 1.522-.01h.684c.257 0 .515.01.772.01.202 0 .404.011.605.011.213 0 .426.011.639.011.212 0 .414.012.627.012.269.01.56.022.84.022z" fill="#0072a1" fill-rule="nonzero"/>
        <path d="M12.295 20.354h.717c.235 0 .46-.01.695-.01.212 0 .425-.012.638-.012.224 0 .448-.011.683-.011.291 0 .583 0 .863-.011.459-.011.907-.011 1.366 0 .347 0 .706.01 1.053.01.28 0 .571.012.851.012.213 0 .426.011.638.011.213 0 .426.011.639.011.291 0 .571.011.862.011h.023-.213c-.258 0-.515.011-.784.011-.213 0-.426.012-.639.012-.235 0-.481.01-.716.01-.19 0-.381 0-.572.012-.235 0-.459.01-.694.01h-1.333c-.269 0-.526 0-.795-.01-.291 0-.582-.011-.874-.011-.179 0-.358 0-.537-.011-.18 0-.347-.012-.527-.012-.28 0-.57-.01-.85-.01-.158 0-.326-.012-.494-.012z" fill="#0072a1" fill-rule="nonzero"/>
        <path d="M12.295 23.242h.493c.168 0 .336 0 .504-.01h.403c.19 0 .37-.012.56-.012.19 0 .381-.011.572-.011.123 0 .246 0 .358-.011.224 0 .448 0 .683-.011.448 0 .907-.011 1.355 0 .359 0 .717.01 1.076.01.28 0 .56.012.828.012.213 0 .426.011.639.011.224 0 .459.011.683.011.269 0 .526.011.795.011h.011-.09c-.234.011-.48.011-.716.011-.134 0-.258 0-.392.012-.146 0-.28 0-.426.01-.201 0-.403.012-.604.012-.213 0-.426.01-.639.01-.179 0-.37.012-.549.012h-1.377c-.325 0-.639 0-.963-.011-.28 0-.55-.011-.83-.011-.2 0-.402 0-.604-.011-.224 0-.448-.011-.683-.011-.247 0-.493-.012-.74-.012-.078 0-.212-.01-.347-.01z" fill="#0072a1" fill-rule="nonzero"/>
        <path d="M21.255 20.21c-.246 0-.492.011-.739.011-.145 0-.28 0-.425.011-.135 0-.27 0-.404.011-.19 0-.38 0-.57.011-.236 0-.46.011-.695.011-.493.011-.986.011-1.467.011H15.52c-.258 0-.515-.01-.773-.01-.134 0-.28 0-.414-.012-.135 0-.28 0-.415-.01-.134 0-.28 0-.414-.012-.213 0-.437-.011-.65-.011-.168 0-.336-.011-.515-.011h.773c.224 0 .448-.011.672-.011.235 0 .46-.011.694-.011.236 0 .46-.011.695-.011.347 0 .694-.012 1.041-.012h1.042c.314 0 .627 0 .93.012.302 0 .604.01.907.01.224 0 .459.012.683.012.213 0 .437.01.65.01.268-.021.548-.01.828 0 0-.01 0-.01 0 0z" fill="#0072a1" fill-rule="nonzero"/>
        <path d="M12.385 23.387h.762c.134 0 .257 0 .392-.011.235 0 .459-.011.694-.011.146 0 .291 0 .437-.012h.459c.291 0 .571-.01.862-.01h1.322c.291 0 .582 0 .862.01.292 0 .583.012.874.012.224 0 .448.01.672.01.224 0 .448.012.683.012.258 0 .515.01.773.01h.022-.112c-.224 0-.448.012-.672.012-.134 0-.28 0-.414.011-.168 0-.336 0-.504.011-.235 0-.46.011-.694.011-.28 0-.56.011-.84.011a41.23 41.23 0 0 1-1.658 0H15.7c-.213 0-.437 0-.65-.01-.257 0-.515-.012-.783-.012-.258 0-.516-.01-.773-.01-.269 0-.549-.012-.818-.012-.1-.011-.201-.011-.291-.022z" fill="#0072a1" fill-rule="nonzero"/>
        <path d="M21.21 20.054h-.123c-.224 0-.459.011-.683.011-.19 0-.38.012-.571.012-.269 0-.538.01-.806.01-.28 0-.55.012-.83.012-.503 0-1.018.01-1.522.01h-.986c-.258 0-.526-.01-.784-.01-.224 0-.448-.011-.672-.011-.202 0-.403-.011-.616-.011-.213 0-.414 0-.627-.012-.202 0-.403-.01-.605-.01h.784c.235 0 .47-.012.694-.012.224 0 .46-.01.684-.01.257 0 .515-.012.772-.012.336 0 .672-.011.997-.011h1.568c.325 0 .639.011.963.011.224 0 .437.011.661.011.269 0 .538.011.807.011.29 0 .57.011.862.011.011-.01.022-.01.034 0z" fill="#0072a1" fill-rule="nonzero"/>
        <path d="M21.177 23.542c-.056 0-.123 0-.18.011-.212 0-.425.011-.638.011-.156 0-.313 0-.47.012h-.403c-.224 0-.448.01-.672.01-.213 0-.426.012-.639.012-.257 0-.515 0-.784.01h-.93c-.358 0-.716 0-1.074-.01-.303 0-.605-.011-.919-.011-.257 0-.515-.011-.773-.011-.29 0-.582-.012-.873-.012-.123 0-.235-.01-.359-.01h.717c.202 0 .403-.012.616-.012.202 0 .415-.01.616-.01.168 0 .325-.012.493-.012h.347c.314 0 .616-.011.93-.011h1.971c.224 0 .448.011.683.011.202 0 .403 0 .605.011.202 0 .403.011.605.011.313 0 .638.011.952.011.056-.01.112-.01.179-.01z" fill="#0072a1" fill-rule="nonzero"/>
        <path d="M12.475 19.899h.772c.236 0 .482-.011.717-.011s.47-.011.706-.011c.28 0 .571-.011.851-.011.56-.012 1.109-.012 1.669-.012h.795c.202 0 .403 0 .605.012.168 0 .336.01.515.01h.437c.257 0 .515.012.773.012.179 0 .358 0 .526.01.09 0 .19 0 .28.012h-.123c-.291 0-.594.011-.885.011-.235 0-.47.011-.694.011-.258 0-.516.011-.784.011-.27 0-.538 0-.807.011-.515.011-1.03.011-1.545 0-.325 0-.661-.01-.986-.01-.246 0-.493-.012-.74-.012h-.246c-.246 0-.481-.011-.728-.011-.246 0-.481-.011-.728-.011-.134 0-.257-.011-.38-.011z" fill="#0072a1" fill-rule="nonzero"/>
        <path d="M21.099 23.698c-.28 0-.55.01-.83.01-.156 0-.313 0-.47.012h-.212c-.314 0-.639.011-.952.011-.314 0-.628.011-.941.011-.37 0-.728.011-1.098 0-.347 0-.683 0-1.03-.01h-.392c-.258 0-.515 0-.762-.012-.257 0-.515-.011-.784-.011-.168 0-.325 0-.493-.011-.224 0-.448-.011-.672-.011h.762c.213 0 .426-.011.638-.011.27 0 .55-.012.818-.012.1 0 .213 0 .314-.01h.448c.56-.012 1.13-.012 1.69-.012h.796c.28 0 .571.011.851.011.247 0 .482.011.728.011.235 0 .47.012.706.012.302.01.593.01.885.022z" fill="#0072a1" fill-rule="nonzero"/>
        <path d="M12.53 19.743h.796c.235 0 .481-.01.717-.01.268 0 .537-.012.806-.012.18 0 .358 0 .538-.011.302 0 .616-.011.918-.011h1.378c.324 0 .638.011.963.011.257 0 .515.011.773.011.246 0 .481.011.728.011.29 0 .582.011.862.011h.011-.134c-.213 0-.415.011-.627.011-.157 0-.303 0-.46.012h-.268c-.236 0-.46.01-.695.01h-.347c-.258 0-.515.012-.784.012h-1.467c-.303 0-.605 0-.907-.011-.325 0-.65-.011-.975-.011-.235 0-.47-.012-.705-.012-.258 0-.516-.01-.773-.01a2 2 0 0 1-.347 0z" fill="#0072a1" fill-rule="nonzero"/>
        <path d="M21.031 23.853h-.179c-.213 0-.414.011-.627.011-.18 0-.37 0-.549.011h-.414c-.269 0-.549.012-.818.012-.448 0-.885.01-1.333.01h-1.646c-.246 0-.504 0-.75-.01-.303 0-.616-.012-.919-.012-.291 0-.582-.01-.873-.01-.112 0-.224-.012-.336-.012h.761c.224 0 .448-.01.683-.01.27 0 .55-.012.818-.012.269 0 .538-.011.806-.011.415 0 .818 0 1.232-.011h.796c.246 0 .481 0 .728.011.302 0 .604.011.907.011.269 0 .537.011.806.011.291 0 .594 0 .907.011z" fill="#0072a1" fill-rule="nonzero"/>
        <path d="M21.02 19.599c-.313 0-.627.011-.93.011-.268 0-.548.011-.817.011-.224 0-.448.011-.672.011-.414 0-.829.011-1.243.011h-1.602c-.224 0-.448 0-.672-.01h-.537c-.213 0-.437-.012-.65-.012-.302 0-.594-.011-.896-.011-.134 0-.258-.011-.392-.011h.392c.224 0 .448-.011.672-.011h.46c.246 0 .48-.011.727-.011.258 0 .504-.011.762-.011h1.635c.403 0 .818 0 1.22.01.28 0 .56.012.84.012.258 0 .505.01.762.01.303 0 .605.012.908.012.01-.022.022-.022.033-.011 0-.011 0 0 0 0z" fill="#0072a1" fill-rule="nonzero"/>
        <path d="M20.953 24.009c-.302 0-.605.01-.907.01-.146 0-.291 0-.426.012-.168 0-.336 0-.504.011-.179 0-.347 0-.526.011h-.605c-.493 0-.974 0-1.467.011h-.74c-.369 0-.727-.01-1.097-.01-.258 0-.515-.012-.773-.012-.291 0-.582-.011-.873-.011-.112 0-.224-.011-.336-.011h.784c.246 0 .504-.011.75-.011.28 0 .571-.011.851-.011.392 0 .784-.011 1.187-.011h.717c.381 0 .75 0 1.131.01h.336c.292 0 .594.012.885.012.224 0 .46.01.683.01.292-.032.605-.021.93-.01 0-.011 0-.011 0 0z" fill="#0072a1" fill-rule="nonzero"/>
        <path d="M12.687 19.443h.56c.18 0 .359 0 .538-.01h.549c.224 0 .448-.012.683-.012.347 0 .694-.01 1.042-.01h2.228c.224 0 .448 0 .672.01.303 0 .616.011.919.011.257 0 .515 0 .761.011.079 0 .168 0 .247.012h-.101c-.235.01-.482.01-.717.01-.168 0-.347 0-.515.012h-.437c-.269 0-.537.01-.806.01-.336 0-.661.012-.997.012h-1.702c-.314 0-.616 0-.93-.011-.258 0-.526-.011-.784-.011-.28 0-.56-.011-.84-.011a4.124 4.124 0 0 0-.37-.023z" fill="#0072a1" fill-rule="nonzero"/>
        <path d="M12.755 24.153h.37c.246 0 .503-.01.75-.01h.481c.303 0 .605-.012.907-.012.381 0 .75-.011 1.132-.011h1.859c.235 0 .47 0 .694.011.258 0 .515.011.762.011.302 0 .616.011.918.011h.224-.123c-.213 0-.426.011-.638.011h-.381c-.247 0-.493.011-.74.011-.324 0-.649.012-.974.012H16.06c-.336 0-.672 0-.997-.012-.359 0-.706-.01-1.064-.01-.291 0-.583-.012-.874-.012-.112.011-.235 0-.37 0z" fill="#0072a1" fill-rule="nonzero"/>
        <path d="M20.796 19.288c-.1 0-.19 0-.291.011-.168 0-.325 0-.493.011-.179 0-.358 0-.526.011-.18 0-.359 0-.527.011-.235 0-.459 0-.694.011h-1.904c-.37 0-.75-.01-1.12-.01h-.325c-.168 0-.336 0-.504-.012h-.28c-.313 0-.627-.01-.93-.01-.145 0-.29-.012-.425-.012h.862c.224 0 .437 0 .661-.011.325 0 .661-.011.986-.011.291 0 .582-.011.873-.011h1.188c.324 0 .65 0 .985.01.224 0 .448 0 .672.012.291 0 .583.011.874.011.235 0 .481 0 .717.011.056-.022.134-.022.201-.022z" fill="#0072a1" fill-rule="nonzero"/>
        <path d="M20.751 24.309h-.268c-.303 0-.594.01-.896.01-.247 0-.493.012-.74.012-.38 0-.761.011-1.142.011h-2.61c-.313 0-.627-.011-.93-.011-.302 0-.615-.011-.918-.011-.134 0-.257-.011-.392-.011h.84c.292 0 .583-.011.863-.011.325 0 .65-.012.974-.012.258 0 .504 0 .762-.01h1.624c.302 0 .605.01.918.01.258 0 .515 0 .773.012.258 0 .515.01.773.01.1-.01.235-.01.37 0 0-.01 0 0 0 0z" fill="#0072a1" fill-rule="nonzero"/>
        <path d="M20.74 19.143h-.235c-.314 0-.627.012-.93.012-.302 0-.604.01-.907.01-.493 0-.974.012-1.467.012h-.504c-.493 0-.986 0-1.478-.011-.28 0-.56 0-.84-.011-.381 0-.75-.012-1.132-.012-.112 0-.224-.01-.324-.01h.862c.224 0 .437 0 .66-.012.36 0 .718-.01 1.076-.01.448 0 .885 0 1.333-.012h.75c.37 0 .74.011 1.109.011.28 0 .56.011.829.011.336 0 .672.011 1.008.011.056 0 .123 0 .19.011z" fill="#0072a1" fill-rule="nonzero"/>
        <path d="M12.934 24.453h.896c.302 0 .605-.011.918-.011.403 0 .795-.011 1.199-.011h1.41c.326 0 .65 0 .975.011h.415c.201 0 .403 0 .604.011.213 0 .415.011.628.011h.683c-.101 0-.202 0-.303.011-.246 0-.481.011-.728.011-.257 0-.515.012-.772.012h-.348c-.302 0-.604 0-.907.01h-2.296c-.336 0-.672-.01-.997-.01-.313 0-.638-.012-.952-.012-.134-.022-.28-.022-.425-.033z" fill="#0072a1" fill-rule="nonzero"/>
        <path d="M20.64 18.988h-.27c-.246 0-.503.011-.75.011-.336 0-.683.011-1.019.011-.56 0-1.12.011-1.669.011h-1.277c-.313 0-.627-.01-.94-.01h-.28c-.314 0-.628-.012-.941-.012-.168 0-.325-.011-.493-.011h.862c.292 0 .583-.011.874-.011.246 0 .482 0 .728-.011h2.89c.347 0 .683.01 1.03.01.403 0 .818.012 1.22.012h.034z" fill="#0072a1" fill-rule="nonzero"/>
        <path d="M20.572 24.609c-.09 0-.179 0-.269.01-.302 0-.604.012-.907.012-.325 0-.66 0-.985.01-.728.012-1.456.012-2.196.012h-1.332c-.247 0-.493 0-.74-.011-.224 0-.448 0-.672-.011-.134 0-.28-.011-.414-.011h.65c.201 0 .403-.011.604-.011h.616c.381 0 .75-.011 1.132-.011h1.276c.392 0 .796 0 1.188.01.324 0 .638.012.963.012.347 0 .705.01 1.053.01.022-.021.022-.021.033-.021z" fill="#0072a1" fill-rule="nonzero"/>
        <path d="M13.08 18.832h1.007c.27 0 .527 0 .796-.01.347 0 .694-.012 1.041-.012h2.408c.359 0 .706.011 1.064.011.359 0 .706.011 1.064.011h.023-.213c-.347 0-.695.012-1.042.012-.28 0-.56.01-.851.01-.46 0-.93.012-1.389.012h-1.355c-.314 0-.627-.011-.94-.011-.326 0-.65-.011-.975-.011-.213 0-.426 0-.639-.012z" fill="#0072a1" fill-rule="nonzero"/>
        <path d="M13.191 24.753h.919c.38 0 .773 0 1.153-.011.717-.011 1.423-.011 2.14-.011h.85c.292 0 .583 0 .874.01.336 0 .672.012 1.02.012h.29c-.122 0-.246.011-.38.011-.213 0-.426 0-.638.011-.247 0-.493.011-.75.011H15.99c-.29 0-.57 0-.862-.01-.28 0-.549 0-.829-.012h-.56c-.179 0-.358 0-.549-.011.012.011 0 .011 0 0z" fill="#0072a1" fill-rule="nonzero"/>
        <path d="M13.214 18.677h.672c.257 0 .504-.011.761-.011h.762c.392 0 .784 0 1.176-.011h1.5c.382 0 .774.01 1.154.01.292 0 .594.012.885.012h.28c-.201 0-.403.011-.605.011-.257 0-.515 0-.784.011-.459 0-.918.011-1.388.011h-1.501c-.381 0-.762 0-1.143-.01-.302 0-.593-.012-.896-.012h-.459c-.134 0-.269 0-.414-.011z" fill="#0072a1" fill-rule="nonzero"/>
        <path d="M13.303 24.909h1.008c.426 0 .84-.012 1.266-.012h2.363c.269 0 .527 0 .795.012.27 0 .538.01.807.01h.75-.291c-.392 0-.784.012-1.176.012-.403 0-.795.01-1.198.01h-2.408c-.415 0-.83-.01-1.244-.01-.235-.011-.448-.011-.672-.022z" fill="#0072a1" fill-rule="nonzero"/>
        <path d="M20.259 18.533c-.124 0-.247 0-.359.01-.358 0-.717.012-1.086.012-.403 0-.807.01-1.21.01h-2.419c-.347 0-.694 0-1.042-.01-.257 0-.515-.011-.772-.011h1.019c.347 0 .694-.011 1.041-.011h2.196c.392 0 .772 0 1.164.01.482 0 .964.012 1.445.012 0-.022.011-.022.023-.022z" fill="#0072a1" fill-rule="nonzero"/>
        <path d="M13.449 25.064h1.109c.37 0 .75-.011 1.12-.011h1.5c.505 0 .997 0 1.501.011.381 0 .773.011 1.154.011.1 0 .202 0 .302.011h-.313c-.325 0-.65 0-.986.011-.885.011-1.77.011-2.654.011h-.952c-.37 0-.74-.01-1.109-.01-.224 0-.448-.012-.672-.012.011-.022 0-.022 0-.022z" fill="#0072a1" fill-rule="nonzero"/>
        <path d="M20.102 18.377h-.269c-.269 0-.538.011-.806.011h-.538c-.773.011-1.557.011-2.33.011h-.93c-.346 0-.694-.01-1.04-.01-.225 0-.449-.012-.673-.012h1.187c.773 0 1.546-.011 2.308-.011h1.5c.437 0 .874.011 1.31.011h.28z" fill="#0072a1" fill-rule="nonzero"/>
        <path d="M13.606 25.22h1.153c.303 0 .616-.012.919-.012h1.467c.515 0 1.02 0 1.534.012.314 0 .639 0 .952.01.112 0 .224 0 .336.012-.123 0-.246 0-.38.01-.348 0-.706.012-1.053.012-.291 0-.594 0-.885.011h-1.68c-.515 0-1.02 0-1.534-.011-.213 0-.437-.011-.65-.011-.045-.033-.112-.033-.18-.033z" fill="#0072a1" fill-rule="nonzero"/>
        <path d="M13.684 18.222a280.99 280.99 0 0 1 6.227 0h-.235c-.291 0-.571.01-.862.01h-3.147c-.314 0-.639 0-.952-.01h-.527c-.179.01-.347.01-.504 0z" fill="#0072a1" fill-rule="nonzero"/>
        <path d="M13.807 25.364c2.005-.022 4.01-.022 6.004 0h-.325c-.303 0-.605.011-.907.011h-3.013c-.415 0-.84 0-1.255-.011a3.815 3.815 0 0 1-.504 0z" fill="#0072a1" fill-rule="nonzero"/>
        <path d="M13.852 18.077c1.96-.022 3.931-.022 5.891 0h-.28c-.156 0-.324 0-.481.011h-2.767c-.481 0-.952 0-1.433-.01-.303.01-.616 0-.93 0z" fill="#0072a1" fill-rule="nonzero"/>
        <path d="M13.987 25.52c1.87-.023 3.74-.023 5.61 0h-.38c-.493 0-.986.01-1.467.01h-2.733c-.347 0-.683 0-1.03-.01z" fill="#0072a1" fill-rule="nonzero"/>
        <path d="M14.054 17.922c.425-.012 4.984-.012 5.465 0h-.313c-.515.01-1.03.01-1.546.01h-3.046c-.168 0-.347-.01-.515-.01h-.045z" fill="#0072a1" fill-rule="nonzero"/>
        <path d="M14.222 25.675c.448-.011 4.603-.011 5.152 0h-.37c-.448 0-.907.011-1.355.011H14.86c-.224-.011-.425-.011-.638-.011z" fill="#0072a1" fill-rule="nonzero"/>
        <path d="M19.284 17.766h-.246c-.235 0-.46.011-.695.011h-3.438c-.202 0-.414-.01-.616-.01a346.47 346.47 0 0 1 4.995 0z" fill="#0072a1" fill-rule="nonzero"/>
        <path d="M19.105 25.82c-.594.022-3.718.022-4.67 0 1.568-.012 3.124-.012 4.67 0z" fill="#0072a1" fill-rule="nonzero"/>
        <path d="M19.049 17.622c-1.49.022-2.98.022-4.469 0 .123-.011 4.245-.011 4.469 0z" fill="#0072a1" fill-rule="nonzero"/>
        <path d="M14.748 25.975a251.85 251.85 0 0 1 4.077 0h-.291c-.19 0-.381 0-.571.011h-2.117c-.235 0-.47 0-.706-.011h-.392z" fill="#0072a1" fill-rule="nonzero"/>
        <path d="M14.86 17.466c1.288-.01 2.587-.01 3.875 0-.425 0-.862.011-1.288.011H16.16c-.436 0-.862-.01-1.299-.01z" fill="#0072a1" fill-rule="nonzero"/>
        <path d="M15.062 26.13a172.8 172.8 0 0 1 3.393 0 172.8 172.8 0 0 1-3.393 0z" fill="#0072a1" fill-rule="nonzero"/>
        <path d="M15.286 17.31h3.08c-1.02.012-2.05.012-3.08 0z" fill="#0072a1" fill-rule="nonzero"/>
        <path d="M15.6 26.275h2.396c-.806.01-1.601.01-2.397 0z" fill="#0072a1" fill-rule="nonzero"/>
        <path d="M15.823 17.155h1.938c-.65.011-1.3.011-1.938 0z" fill="#0072a1" fill-rule="nonzero"/>
        <path d="M20.875 19.288z" fill="#0072a1" fill-rule="nonzero"/>
        <path d="M20.572 18.832h-.011.011z" fill="#0072a1" fill-rule="nonzero"/>
        <path d="M18.511 26.13z" fill="#0072a1" fill-rule="nonzero"/>
        <path d="M20.796 24.298v.01-.01z" fill="#0072a1" fill-rule="nonzero"/>
        <path d="M12.083 22.176h.694c.213 0 .437-.011.65-.011.179 0 .358-.011.537-.011.19 0 .392-.011.583-.011.19 0 .38-.011.57-.011.214 0 .438-.012.65-.012.224 0 .46-.01.684-.01h.156-.313c-.291 0-.583-.012-.863-.012-.201 0-.403-.01-.593-.01-.202 0-.392-.012-.594-.012-.168 0-.325-.011-.493-.011-.19 0-.37-.011-.56-.011-.235 0-.481-.011-.716-.011-.135 0-.27-.011-.404-.011h.448c.202 0 .404-.012.605-.012h.247c.224 0 .436-.01.66-.01h.247c.179 0 .358-.012.537-.012.236 0 .482-.01.717-.01.213 0 .415-.012.627-.012.09 0 .168 0 .258-.011h-.336c-.202 0-.414-.011-.616-.011-.18 0-.37 0-.549-.011-.213 0-.425-.011-.638-.011-.19 0-.381-.012-.571-.012-.18 0-.359-.01-.527-.01-.179 0-.358 0-.537-.012-.19 0-.381-.01-.572-.01h.695c.213 0 .425-.012.638-.012.18 0 .359-.011.538-.011.19 0 .38-.011.571-.011.19 0 .37-.011.56-.011.224 0 .46-.011.683-.011.18 0 .37 0 .549-.011h.112c-.078 0-.146 0-.224-.012-.202 0-.414-.01-.616-.01-.134 0-.269 0-.403-.012h-.381c-.168 0-.336-.01-.504-.01-.168 0-.336 0-.504-.012-.235 0-.46-.011-.694-.011-.224 0-.448-.011-.672-.011-.112 0-.224-.011-.336-.011h.705c.19 0 .37-.011.56-.011.18 0 .359-.012.538-.012.201 0 .403-.01.616-.01.168 0 .325-.012.493-.012.179 0 .37-.01.548-.01.28 0 .572-.012.852-.012h.022-.202c-.212 0-.414-.011-.627-.011-.123 0-.246 0-.38-.011h-.381c-.202 0-.415-.011-.616-.011-.157 0-.314 0-.46-.011-.179 0-.37-.012-.548-.012-.168 0-.325-.01-.493-.01-.202 0-.403-.012-.605-.012h.672c.18 0 .358-.01.538-.01.168 0 .347 0 .515-.012.157 0 .302-.011.459-.011.28 0 .549-.011.829-.011.201 0 .403-.011.616-.011.246 0 .504-.011.75-.011h.034c-.112 0-.213 0-.325-.012-.168 0-.325 0-.493-.01-.246 0-.493-.012-.739-.012-.224 0-.448-.01-.672-.01-.123 0-.246 0-.38-.012-.18 0-.348-.011-.527-.011h-.247c-.19 0-.392 0-.582-.011-.157 0-.302-.011-.46-.011h.706c.18 0 .359-.011.527-.011.213 0 .437-.011.65-.011.19 0 .391-.012.582-.012.19 0 .37-.01.56-.01.224 0 .448-.012.672-.012.246 0 .493-.01.739-.01h.818c.313 0 .627.01.93.01.234 0 .47.011.705.011.19 0 .38.011.571.011.19 0 .38.012.571.012.213 0 .415.01.627.01.258 0 .504.012.762.012h.022c-.123 0-.224.01-.336.01-.19 0-.392 0-.582.012-.202 0-.414.011-.616.011-.168 0-.336.011-.515.011-.157 0-.325.011-.482.011-.157 0-.325.011-.481.011-.135 0-.27 0-.404.011h-.235c-.257 0-.504.012-.761.012h.492c.19 0 .392.01.583.01.235 0 .47.012.705.012.202 0 .404.01.594.01.213 0 .414.012.627.012.168 0 .347.011.515.011.247 0 .482.011.728.011h.168c-.112 0-.224.011-.336.011-.19 0-.38 0-.582.011-.19 0-.392.012-.582.012-.202 0-.404.01-.605.01-.168 0-.347.012-.515.012-.19 0-.381.01-.572.01-.224 0-.448.012-.672.012-.156 0-.313.011-.47.011h.414c.146 0 .292 0 .426.011.134 0 .258 0 .392.011.168 0 .336.011.515.011.213 0 .415.012.627.012.202 0 .404.01.594.01.19 0 .392.012.582.012.27 0 .527.01.796.01h-.079c-.224 0-.448.012-.672.012-.168 0-.336.011-.515.011-.224 0-.448.011-.683.011-.202 0-.403.011-.605.011-.213 0-.426.011-.638.011-.19 0-.37.012-.56.012-.168 0-.336.01-.504.01h-.056.347c.213 0 .425.012.638.012h.168c.168 0 .347 0 .515.01.19 0 .392.012.583.012.201 0 .414.011.616.011.168 0 .336.011.515.011.246 0 .504.011.75.011h.168c-.078 0-.156 0-.224.011-.145 0-.302 0-.448.011-.134 0-.257 0-.392.012-.134 0-.257 0-.392.01-.179 0-.358.012-.526.012-.157 0-.325.01-.482.01-.212 0-.425.012-.638.012-.19 0-.38 0-.571.011-.18 0-.37.011-.549.011h-.146.404c.145 0 .302 0 .448.011.145 0 .28 0 .425.011.168 0 .347.012.515.012.168 0 .325.01.493.01.235 0 .482.012.717.012.213 0 .426.01.638.01.19 0 .381 0 .572.012.056 0 .112 0 .168.011-.068 0-.146 0-.213.011-.224 0-.46.011-.683.011-.213 0-.415.011-.628.011-.19 0-.37.012-.56.012-.201 0-.403.01-.616.01H18.5c-.145 0-.28.012-.425.012h-.348c-.235 0-.481.01-.716.01h-.034.515c.168 0 .347 0 .515.012h.348c.19 0 .38.011.582.011.202 0 .414.011.616.011.19 0 .38.011.582.011.202 0 .404.011.605.011.269 0 .527.012.795.012-.179 0-.358.01-.537.01-.19 0-.392.012-.583.012h-.37c-.167 0-.335.01-.503.01-.213 0-.437.012-.65.012-.179 0-.358.011-.537.011-.213 0-.415.011-.628.011-.257 0-.515.011-.761.011h-.717c-.224 0-.46-.01-.683-.01-.202 0-.403-.012-.594-.012-.19 0-.37-.011-.56-.011-.213 0-.425-.011-.638-.011-.202 0-.415-.011-.616-.011-.168 0-.336 0-.504-.011-.213-.056-.392-.056-.571-.067zm4.58-.067h.023-.023z" fill="#0072a1" fill-rule="nonzero"/>
        <path d="M12.116 21.265h.235c.224 0 .448-.011.684-.011h.347c.179 0 .347-.011.526-.011.213 0 .415-.011.627-.011.168 0 .336-.011.504-.011.18 0 .359-.011.538-.011.168 0 .325 0 .493-.012h1.59c.235 0 .47.012.695.012.201 0 .403.01.593.01.19 0 .381.012.571.012.19 0 .37.01.56.01.213 0 .426.012.628.012.257 0 .515.011.761.011h.011c-.179 0-.358.011-.537.011-.202 0-.403.011-.605.011h-.347c-.168 0-.325.011-.493.011-.213 0-.426.012-.638.012-.18 0-.359.01-.527.01-.19 0-.38.012-.571.012-.202 0-.414.01-.616.01h-.784c-.258 0-.515-.01-.784-.01-.246 0-.493-.011-.74-.011-.335-.011-.66-.011-.996-.023-.235 0-.482-.01-.717-.01s-.481-.012-.717-.012c-.09 0-.19-.01-.29-.01z" fill="#0072a1" fill-rule="nonzero"/>
        <path d="M12.127 22.331c.213 0 .415 0 .628-.01.201 0 .403-.012.593-.012.213 0 .426-.01.639-.01.201 0 .392-.012.593-.012.18 0 .359-.011.538-.011.201 0 .403-.011.605-.011.19 0 .392-.011.582-.011h1.378c.224 0 .448.01.683.01.201 0 .403.012.593.012.19 0 .37.011.56.011.19 0 .392.011.583.011.201 0 .403.011.605.011.268 0 .526.011.795.011h.022c-.078 0-.157 0-.224.011-.179 0-.37.012-.549.012-.19 0-.38.01-.57.01h-.214c-.156 0-.324.012-.481.012-.157 0-.314.01-.47.01-.124 0-.247 0-.37.012h-.314c-.325 0-.66.011-.985.011h-.818c-.291 0-.582-.011-.874-.011-.19 0-.392 0-.582-.011-.157 0-.314-.011-.47-.011-.224 0-.46-.011-.684-.011-.257 0-.515-.011-.772-.011-.168 0-.325 0-.493-.012-.19.012-.359 0-.527 0z" fill="#0072a1" fill-rule="nonzero"/>
        <path d="M12.15 21.11h.414c.213 0 .415-.012.627-.012.28 0 .56-.01.83-.01.2 0 .391-.012.593-.012.19 0 .392-.01.582-.01.247 0 .504 0 .75-.012.46-.011.919-.011 1.378 0 .28 0 .56.011.829.011.258 0 .515.011.773.011.19 0 .38.011.571.011.19 0 .392.011.582.011.213 0 .415.012.628.012.257 0 .515.01.784.01h-.101c-.224.012-.437.012-.661.012-.112 0-.235 0-.347.01-.123 0-.247 0-.359.012-.179 0-.358.011-.537.011-.213 0-.437.011-.65.011-.213 0-.414.011-.627.011-.28 0-.56.011-.84.011-.336.012-.672 0-.997 0-.28 0-.56-.01-.851-.01-.202 0-.414-.012-.616-.012-.213 0-.426-.01-.638-.01h-.28c-.19 0-.37-.012-.56-.012-.258 0-.516-.011-.784-.011-.168-.022-.336-.022-.493-.033z" fill="#0072a1" fill-rule="nonzero"/>
        <path d="M21.48 22.476c-.068 0-.146 0-.213.011-.247 0-.482.011-.728.011-.213 0-.415.011-.628.011-.212 0-.414.011-.627.011-.179 0-.358.011-.537.011-.224 0-.448.012-.672.012-.28 0-.572.01-.852.01h-.85c-.258 0-.516 0-.762-.01-.213 0-.437-.012-.65-.012-.19 0-.38-.01-.571-.01-.202 0-.403-.012-.594-.012-.213 0-.414-.01-.627-.01-.235 0-.47-.012-.694-.012-.112 0-.224-.011-.336-.011h.268c.157 0 .303 0 .46-.011.123 0 .246 0 .37-.011.134 0 .268 0 .402-.011.124 0 .258 0 .381-.012.157 0 .314-.01.47-.01.18 0 .359-.012.538-.012.19 0 .381-.01.571-.01h.325c.235 0 .47-.012.695-.012h.806c.291 0 .571.011.862.011.213 0 .415.011.628.011.179 0 .37.011.548.011.19 0 .392.011.583.011.213 0 .425.012.638.012.28.033.538.033.795.033z" fill="#0072a1" fill-rule="nonzero"/>
        <path d="M12.15 20.954h.549c.257 0 .515-.011.772-.011.202 0 .404-.011.616-.011.19 0 .381-.011.572-.011.212 0 .425-.011.638-.011.19 0 .392-.011.582-.011.247 0 .482-.012.728-.012h.75c.292 0 .583.012.874.012.213 0 .426.01.639.01.213 0 .414.012.627.012.168 0 .347.01.515.01.19 0 .37.012.56.012.213 0 .415.011.627.011h.303c-.079 0-.157 0-.235.011-.146 0-.292.011-.448.011-.247 0-.493.011-.75.011-.258 0-.516.012-.762.012-.168 0-.336 0-.504.01-.19 0-.37.012-.56.012-.224 0-.46.01-.684.01-.29 0-.593.012-.884.012-.314 0-.628 0-.93-.011-.213 0-.437-.011-.65-.011-.212 0-.436-.011-.65-.011-.212 0-.414-.011-.626-.011-.202 0-.404-.012-.605-.012-.235 0-.46-.01-.695-.01-.145-.012-.257-.012-.37-.023z" fill="#0072a1" fill-rule="nonzero"/>
        <path d="M12.161 22.631h.46c.145 0 .29 0 .447-.01.123 0 .247 0 .37-.012.19 0 .38-.01.571-.01.213 0 .426-.012.638-.012.213 0 .426-.011.639-.011.19 0 .392-.011.582-.011.359 0 .706-.011 1.064-.011h.448c.291 0 .583.01.874.01.19 0 .392.012.582.012.224 0 .46.011.683.011.157 0 .303 0 .46.011.19 0 .392.011.582.011.202 0 .392.011.594.011.09 0 .19 0 .28.011h-.056c-.19.012-.392.012-.583.012-.257 0-.515.01-.773.01-.257 0-.504.012-.761.012-.202 0-.415.01-.616.01-.123 0-.247 0-.37.012-.201 0-.403.011-.605.011h-1.668c-.168 0-.348 0-.516-.011h-.403c-.213 0-.425-.011-.638-.011-.19 0-.37-.011-.56-.011-.18 0-.37-.011-.549-.011-.19 0-.37-.011-.56-.011h-.291c-.123 0-.224-.012-.325-.012z" fill="#0072a1" fill-rule="nonzero"/>
        <path d="M21.435 20.81c-.19 0-.37.01-.56.01-.202 0-.404.012-.605.012h-.359c-.179 0-.358.011-.537.011-.224 0-.437.011-.661.011-.19 0-.38.011-.582.011-.236 0-.46.011-.695.011h-.851c-.302 0-.605 0-.907-.01-.224 0-.46-.012-.683-.012-.202 0-.404-.011-.616-.011-.18 0-.37-.011-.55-.011-.223 0-.436-.011-.66-.011-.202 0-.392 0-.594-.011-.145 0-.28-.011-.425-.011h.705c.19 0 .381-.012.572-.012.224 0 .448-.01.672-.01.212 0 .414-.012.627-.012.213 0 .437-.01.65-.01.347 0 .683-.012 1.03-.012h.672c.291 0 .571 0 .862.011.258 0 .515.011.762.011.224 0 .448.011.683.011.224 0 .46.011.683.011h.303c.168 0 .324 0 .492.012.18 0 .359 0 .538.01h.034z" fill="#0072a1" fill-rule="nonzero"/>
        <path d="M21.412 22.787c-.246 0-.481.011-.728.011-.157 0-.313 0-.459.011h-.347c-.168 0-.347.011-.515.011-.247 0-.504.011-.75.011-.214 0-.438.011-.65.011-.247 0-.482 0-.728.012h-1.03c-.258 0-.505-.012-.762-.012h-.27c-.212 0-.425-.01-.638-.01-.134 0-.268 0-.403-.012-.19 0-.38-.01-.571-.01h-.269c-.19 0-.38 0-.571-.012-.168 0-.347-.011-.515-.011.19 0 .392 0 .582-.011.269 0 .527-.011.795-.011.202 0 .392-.011.594-.011.202 0 .392-.012.594-.012.212 0 .425-.01.638-.01.325 0 .66-.012.986-.012h.672c.302 0 .616 0 .918.011.269 0 .538.011.806.011.202 0 .404.012.605.012.202 0 .392.01.594.01.213 0 .425.012.638.012.247 0 .515 0 .784.01z" fill="#0072a1" fill-rule="nonzero"/>
        <path d="M21.401 20.654h-.134c-.213 0-.437.011-.65.011-.168 0-.347.011-.515.011-.291 0-.571.011-.863.011-.179 0-.358.012-.526.012-.213 0-.437 0-.65.01-.56.012-1.13.012-1.69.012h-.538c-.247 0-.493-.011-.74-.011-.168 0-.324 0-.492-.011-.247 0-.482-.012-.728-.012-.202 0-.404-.01-.616-.01-.236 0-.482-.012-.717-.012-.112 0-.213-.01-.325-.01h.694c.19 0 .381-.012.572-.012.235 0 .459-.011.694-.011h.616c.134 0 .269 0 .403-.011.314 0 .639-.011.952-.011h1.848c.235 0 .47.01.706.01.213 0 .425.012.638.012.19 0 .392.011.583.011.235 0 .459.011.694.011.157 0 .325 0 .482.011.1-.01.201-.01.302-.01z" fill="#0072a1" fill-rule="nonzero"/>
        <path d="M21.356 22.942c-.19 0-.37.012-.56.012-.201 0-.403.01-.593.01-.135 0-.27 0-.404.012-.19 0-.38.01-.57.01-.191 0-.37.012-.56.012-.146 0-.28 0-.426.011-.213 0-.426 0-.639.011h-1.153c-.348 0-.695 0-1.042-.01-.269 0-.549-.012-.818-.012-.201 0-.414 0-.616-.011-.235 0-.459-.011-.694-.011-.157 0-.314 0-.47-.011-.18 0-.37-.011-.55-.011h.684c.19 0 .38-.012.571-.012.224 0 .448-.01.683-.01.157 0 .325 0 .482-.012.235 0 .46-.01.694-.01.325 0 .639-.012.964-.012h1.49c.268 0 .537.011.806.011.235 0 .459.011.694.011.213 0 .414.011.627.011.202 0 .403.011.616.011.247-.01.515-.01.784 0 0-.01 0 0 0 0z" fill="#0072a1" fill-rule="nonzero"/>
        <path d="M12.24 20.499c.19 0 .38 0 .57-.011.27 0 .538-.012.807-.012.213 0 .426-.01.638-.01.213 0 .437-.012.65-.012.246 0 .493-.01.75-.01h2.162c.269 0 .538.01.806.01.213 0 .415.011.628.011.224 0 .448.011.672.011.212 0 .414.012.627.012.269 0 .537.01.806.01-.179 0-.358.012-.537.012h-.437c-.213 0-.415.01-.627.01-.213 0-.437.012-.65.012-.213 0-.414.011-.627.011-.19 0-.381.011-.571.011-.359 0-.717.011-1.087.011h-.851c-.18 0-.37 0-.549-.01-.145 0-.302 0-.448-.012-.145 0-.28 0-.425-.011-.213 0-.426-.011-.639-.011-.19 0-.392-.011-.582-.011-.258 0-.515-.011-.773-.011-.09.01-.202.01-.314 0 0 .01 0 0 0 0z" fill="#0072a1" fill-rule="nonzero"/>
        <path d="M21.334 23.087c-.28 0-.56.01-.829.01-.269 0-.526.012-.795.012-.213 0-.437.011-.65.011-.235 0-.459.011-.694.011-.359 0-.706.011-1.064.011h-.795c-.325 0-.639 0-.964-.01-.28 0-.548-.012-.828-.012-.236 0-.46-.011-.695-.011-.224 0-.437-.011-.66-.011-.247 0-.493-.011-.74-.011-.112 0-.213-.011-.325-.011h.728c.213 0 .426-.011.639-.011.213 0 .425-.012.638-.012.202 0 .403-.01.605-.01.246 0 .493 0 .74-.012.503-.01 1.018-.01 1.522-.01h.684c.257 0 .515.01.772.01.202 0 .404.011.605.011.213 0 .426.011.639.011.212 0 .414.012.627.012.269.01.56.022.84.022z" fill="#0072a1" fill-rule="nonzero"/>
        <path d="M12.295 20.354h.717c.235 0 .46-.01.695-.01.212 0 .425-.012.638-.012.224 0 .448-.011.683-.011.291 0 .583 0 .863-.011.459-.011.907-.011 1.366 0 .347 0 .706.01 1.053.01.28 0 .571.012.851.012.213 0 .426.011.638.011.213 0 .426.011.639.011.291 0 .571.011.862.011h.023-.213c-.258 0-.515.011-.784.011-.213 0-.426.012-.639.012-.235 0-.481.01-.716.01-.19 0-.381 0-.572.012-.235 0-.459.01-.694.01h-1.333c-.269 0-.526 0-.795-.01-.291 0-.582-.011-.874-.011-.179 0-.358 0-.537-.011-.18 0-.347-.012-.527-.012-.28 0-.57-.01-.85-.01-.158 0-.326-.012-.494-.012z" fill="#0072a1" fill-rule="nonzero"/>
        <path d="M12.295 23.242h.493c.168 0 .336 0 .504-.01h.403c.19 0 .37-.012.56-.012.19 0 .381-.011.572-.011.123 0 .246 0 .358-.011.224 0 .448 0 .683-.011.448 0 .907-.011 1.355 0 .359 0 .717.01 1.076.01.28 0 .56.012.828.012.213 0 .426.011.639.011.224 0 .459.011.683.011.269 0 .526.011.795.011h.011-.09c-.234.011-.48.011-.716.011-.134 0-.258 0-.392.012-.146 0-.28 0-.426.01-.201 0-.403.012-.604.012-.213 0-.426.01-.639.01-.179 0-.37.012-.549.012h-1.377c-.325 0-.639 0-.963-.011-.28 0-.55-.011-.83-.011-.2 0-.402 0-.604-.011-.224 0-.448-.011-.683-.011-.247 0-.493-.012-.74-.012-.078 0-.212-.01-.347-.01z" fill="#0072a1" fill-rule="nonzero"/>
        <path d="M21.255 20.21c-.246 0-.492.011-.739.011-.145 0-.28 0-.425.011-.135 0-.27 0-.404.011-.19 0-.38 0-.57.011-.236 0-.46.011-.695.011-.493.011-.986.011-1.467.011H15.52c-.258 0-.515-.01-.773-.01-.134 0-.28 0-.414-.012-.135 0-.28 0-.415-.01-.134 0-.28 0-.414-.012-.213 0-.437-.011-.65-.011-.168 0-.336-.011-.515-.011h.773c.224 0 .448-.011.672-.011.235 0 .46-.011.694-.011.236 0 .46-.011.695-.011.347 0 .694-.012 1.041-.012h1.042c.314 0 .627 0 .93.012.302 0 .604.01.907.01.224 0 .459.012.683.012.213 0 .437.01.65.01.268-.021.548-.01.828 0 0-.01 0-.01 0 0z" fill="#0072a1" fill-rule="nonzero"/>
        <path d="M12.385 23.387h.762c.134 0 .257 0 .392-.011.235 0 .459-.011.694-.011.146 0 .291 0 .437-.012h.459c.291 0 .571-.01.862-.01h1.322c.291 0 .582 0 .862.01.292 0 .583.012.874.012.224 0 .448.01.672.01.224 0 .448.012.683.012.258 0 .515.01.773.01h.022-.112c-.224 0-.448.012-.672.012-.134 0-.28 0-.414.011-.168 0-.336 0-.504.011-.235 0-.46.011-.694.011-.28 0-.56.011-.84.011a41.23 41.23 0 0 1-1.658 0H15.7c-.213 0-.437 0-.65-.01-.257 0-.515-.012-.783-.012-.258 0-.516-.01-.773-.01-.269 0-.549-.012-.818-.012-.1-.011-.201-.011-.291-.022z" fill="#0072a1" fill-rule="nonzero"/>
        <path d="M21.21 20.054h-.123c-.224 0-.459.011-.683.011-.19 0-.38.012-.571.012-.269 0-.538.01-.806.01-.28 0-.55.012-.83.012-.503 0-1.018.01-1.522.01h-.986c-.258 0-.526-.01-.784-.01-.224 0-.448-.011-.672-.011-.202 0-.403-.011-.616-.011-.213 0-.414 0-.627-.012-.202 0-.403-.01-.605-.01h.784c.235 0 .47-.012.694-.012.224 0 .46-.01.684-.01.257 0 .515-.012.772-.012.336 0 .672-.011.997-.011h1.568c.325 0 .639.011.963.011.224 0 .437.011.661.011.269 0 .538.011.807.011.29 0 .57.011.862.011.011-.01.022-.01.034 0z" fill="#0072a1" fill-rule="nonzero"/>
        <path d="M21.177 23.542c-.056 0-.123 0-.18.011-.212 0-.425.011-.638.011-.156 0-.313 0-.47.012h-.403c-.224 0-.448.01-.672.01-.213 0-.426.012-.639.012-.257 0-.515 0-.784.01h-.93c-.358 0-.716 0-1.074-.01-.303 0-.605-.011-.919-.011-.257 0-.515-.011-.773-.011-.29 0-.582-.012-.873-.012-.123 0-.235-.01-.359-.01h.717c.202 0 .403-.012.616-.012.202 0 .415-.01.616-.01.168 0 .325-.012.493-.012h.347c.314 0 .616-.011.93-.011h1.971c.224 0 .448.011.683.011.202 0 .403 0 .605.011.202 0 .403.011.605.011.313 0 .638.011.952.011.056-.01.112-.01.179-.01z" fill="#0072a1" fill-rule="nonzero"/>
        <path d="M12.475 19.899h.772c.236 0 .482-.011.717-.011s.47-.011.706-.011c.28 0 .571-.011.851-.011.56-.012 1.109-.012 1.669-.012h.795c.202 0 .403 0 .605.012.168 0 .336.01.515.01h.437c.257 0 .515.012.773.012.179 0 .358 0 .526.01.09 0 .19 0 .28.012h-.123c-.291 0-.594.011-.885.011-.235 0-.47.011-.694.011-.258 0-.516.011-.784.011-.27 0-.538 0-.807.011-.515.011-1.03.011-1.545 0-.325 0-.661-.01-.986-.01-.246 0-.493-.012-.74-.012h-.246c-.246 0-.481-.011-.728-.011-.246 0-.481-.011-.728-.011-.134 0-.257-.011-.38-.011z" fill="#0072a1" fill-rule="nonzero"/>
        <path d="M21.099 23.698c-.28 0-.55.01-.83.01-.156 0-.313 0-.47.012h-.212c-.314 0-.639.011-.952.011-.314 0-.628.011-.941.011-.37 0-.728.011-1.098 0-.347 0-.683 0-1.03-.01h-.392c-.258 0-.515 0-.762-.012-.257 0-.515-.011-.784-.011-.168 0-.325 0-.493-.011-.224 0-.448-.011-.672-.011h.762c.213 0 .426-.011.638-.011.27 0 .55-.012.818-.012.1 0 .213 0 .314-.01h.448c.56-.012 1.13-.012 1.69-.012h.796c.28 0 .571.011.851.011.247 0 .482.011.728.011.235 0 .47.012.706.012.302.01.593.01.885.022z" fill="#0072a1" fill-rule="nonzero"/>
        <path d="M12.53 19.743h.796c.235 0 .481-.01.717-.01.268 0 .537-.012.806-.012.18 0 .358 0 .538-.011.302 0 .616-.011.918-.011h1.378c.324 0 .638.011.963.011.257 0 .515.011.773.011.246 0 .481.011.728.011.29 0 .582.011.862.011h.011-.134c-.213 0-.415.011-.627.011-.157 0-.303 0-.46.012h-.268c-.236 0-.46.01-.695.01h-.347c-.258 0-.515.012-.784.012h-1.467c-.303 0-.605 0-.907-.011-.325 0-.65-.011-.975-.011-.235 0-.47-.012-.705-.012-.258 0-.516-.01-.773-.01a2 2 0 0 1-.347 0z" fill="#0072a1" fill-rule="nonzero"/>
        <path d="M21.031 23.853h-.179c-.213 0-.414.011-.627.011-.18 0-.37 0-.549.011h-.414c-.269 0-.549.012-.818.012-.448 0-.885.01-1.333.01h-1.646c-.246 0-.504 0-.75-.01-.303 0-.616-.012-.919-.012-.291 0-.582-.01-.873-.01-.112 0-.224-.012-.336-.012h.761c.224 0 .448-.01.683-.01.27 0 .55-.012.818-.012.269 0 .538-.011.806-.011.415 0 .818 0 1.232-.011h.796c.246 0 .481 0 .728.011.302 0 .604.011.907.011.269 0 .537.011.806.011.291 0 .594 0 .907.011z" fill="#0072a1" fill-rule="nonzero"/>
        <path d="M21.02 19.599c-.313 0-.627.011-.93.011-.268 0-.548.011-.817.011-.224 0-.448.011-.672.011-.414 0-.829.011-1.243.011h-1.602c-.224 0-.448 0-.672-.01h-.537c-.213 0-.437-.012-.65-.012-.302 0-.594-.011-.896-.011-.134 0-.258-.011-.392-.011h.392c.224 0 .448-.011.672-.011h.46c.246 0 .48-.011.727-.011.258 0 .504-.011.762-.011h1.635c.403 0 .818 0 1.22.01.28 0 .56.012.84.012.258 0 .505.01.762.01.303 0 .605.012.908.012.01-.022.022-.022.033-.011 0-.011 0 0 0 0z" fill="#0072a1" fill-rule="nonzero"/>
        <path d="M20.953 24.009c-.302 0-.605.01-.907.01-.146 0-.291 0-.426.012-.168 0-.336 0-.504.011-.179 0-.347 0-.526.011h-.605c-.493 0-.974 0-1.467.011h-.74c-.369 0-.727-.01-1.097-.01-.258 0-.515-.012-.773-.012-.291 0-.582-.011-.873-.011-.112 0-.224-.011-.336-.011h.784c.246 0 .504-.011.75-.011.28 0 .571-.011.851-.011.392 0 .784-.011 1.187-.011h.717c.381 0 .75 0 1.131.01h.336c.292 0 .594.012.885.012.224 0 .46.01.683.01.292-.032.605-.021.93-.01 0-.011 0-.011 0 0z" fill="#0072a1" fill-rule="nonzero"/>
        <path d="M12.687 19.443h.56c.18 0 .359 0 .538-.01h.549c.224 0 .448-.012.683-.012.347 0 .694-.01 1.042-.01h2.228c.224 0 .448 0 .672.01.303 0 .616.011.919.011.257 0 .515 0 .761.011.079 0 .168 0 .247.012h-.101c-.235.01-.482.01-.717.01-.168 0-.347 0-.515.012h-.437c-.269 0-.537.01-.806.01-.336 0-.661.012-.997.012h-1.702c-.314 0-.616 0-.93-.011-.258 0-.526-.011-.784-.011-.28 0-.56-.011-.84-.011a4.124 4.124 0 0 0-.37-.023z" fill="#0072a1" fill-rule="nonzero"/>
        <path d="M12.755 24.153h.37c.246 0 .503-.01.75-.01h.481c.303 0 .605-.012.907-.012.381 0 .75-.011 1.132-.011h1.859c.235 0 .47 0 .694.011.258 0 .515.011.762.011.302 0 .616.011.918.011h.224-.123c-.213 0-.426.011-.638.011h-.381c-.247 0-.493.011-.74.011-.324 0-.649.012-.974.012H16.06c-.336 0-.672 0-.997-.012-.359 0-.706-.01-1.064-.01-.291 0-.583-.012-.874-.012-.112.011-.235 0-.37 0z" fill="#0072a1" fill-rule="nonzero"/>
        <path d="M20.796 19.288c-.1 0-.19 0-.291.011-.168 0-.325 0-.493.011-.179 0-.358 0-.526.011-.18 0-.359 0-.527.011-.235 0-.459 0-.694.011h-1.904c-.37 0-.75-.01-1.12-.01h-.325c-.168 0-.336 0-.504-.012h-.28c-.313 0-.627-.01-.93-.01-.145 0-.29-.012-.425-.012h.862c.224 0 .437 0 .661-.011.325 0 .661-.011.986-.011.291 0 .582-.011.873-.011h1.188c.324 0 .65 0 .985.01.224 0 .448 0 .672.012.291 0 .583.011.874.011.235 0 .481 0 .717.011.056-.022.134-.022.201-.022z" fill="#0072a1" fill-rule="nonzero"/>
        <path d="M20.751 24.309h-.268c-.303 0-.594.01-.896.01-.247 0-.493.012-.74.012-.38 0-.761.011-1.142.011h-2.61c-.313 0-.627-.011-.93-.011-.302 0-.615-.011-.918-.011-.134 0-.257-.011-.392-.011h.84c.292 0 .583-.011.863-.011.325 0 .65-.012.974-.012.258 0 .504 0 .762-.01h1.624c.302 0 .605.01.918.01.258 0 .515 0 .773.012.258 0 .515.01.773.01.1-.01.235-.01.37 0 0-.01 0 0 0 0z" fill="#0072a1" fill-rule="nonzero"/>
        <path d="M20.74 19.143h-.235c-.314 0-.627.012-.93.012-.302 0-.604.01-.907.01-.493 0-.974.012-1.467.012h-.504c-.493 0-.986 0-1.478-.011-.28 0-.56 0-.84-.011-.381 0-.75-.012-1.132-.012-.112 0-.224-.01-.324-.01h.862c.224 0 .437 0 .66-.012.36 0 .718-.01 1.076-.01.448 0 .885 0 1.333-.012h.75c.37 0 .74.011 1.109.011.28 0 .56.011.829.011.336 0 .672.011 1.008.011.056 0 .123 0 .19.011z" fill="#0072a1" fill-rule="nonzero"/>
        <path d="M12.934 24.453h.896c.302 0 .605-.011.918-.011.403 0 .795-.011 1.199-.011h1.41c.326 0 .65 0 .975.011h.415c.201 0 .403 0 .604.011.213 0 .415.011.628.011h.683c-.101 0-.202 0-.303.011-.246 0-.481.011-.728.011-.257 0-.515.012-.772.012h-.348c-.302 0-.604 0-.907.01h-2.296c-.336 0-.672-.01-.997-.01-.313 0-.638-.012-.952-.012-.134-.022-.28-.022-.425-.033z" fill="#0072a1" fill-rule="nonzero"/>
        <path d="M20.64 18.988h-.27c-.246 0-.503.011-.75.011-.336 0-.683.011-1.019.011-.56 0-1.12.011-1.669.011h-1.277c-.313 0-.627-.01-.94-.01h-.28c-.314 0-.628-.012-.941-.012-.168 0-.325-.011-.493-.011h.862c.292 0 .583-.011.874-.011.246 0 .482 0 .728-.011h2.89c.347 0 .683.01 1.03.01.403 0 .818.012 1.22.012h.034z" fill="#0072a1" fill-rule="nonzero"/>
        <path d="M20.572 24.609c-.09 0-.179 0-.269.01-.302 0-.604.012-.907.012-.325 0-.66 0-.985.01-.728.012-1.456.012-2.196.012h-1.332c-.247 0-.493 0-.74-.011-.224 0-.448 0-.672-.011-.134 0-.28-.011-.414-.011h.65c.201 0 .403-.011.604-.011h.616c.381 0 .75-.011 1.132-.011h1.276c.392 0 .796 0 1.188.01.324 0 .638.012.963.012.347 0 .705.01 1.053.01.022-.021.022-.021.033-.021z" fill="#0072a1" fill-rule="nonzero"/>
        <path d="M13.08 18.832h1.007c.27 0 .527 0 .796-.01.347 0 .694-.012 1.041-.012h2.408c.359 0 .706.011 1.064.011.359 0 .706.011 1.064.011h.023-.213c-.347 0-.695.012-1.042.012-.28 0-.56.01-.851.01-.46 0-.93.012-1.389.012h-1.355c-.314 0-.627-.011-.94-.011-.326 0-.65-.011-.975-.011-.213 0-.426 0-.639-.012z" fill="#0072a1" fill-rule="nonzero"/>
        <path d="M13.191 24.753h.919c.38 0 .773 0 1.153-.011.717-.011 1.423-.011 2.14-.011h.85c.292 0 .583 0 .874.01.336 0 .672.012 1.02.012h.29c-.122 0-.246.011-.38.011-.213 0-.426 0-.638.011-.247 0-.493.011-.75.011H15.99c-.29 0-.57 0-.862-.01-.28 0-.549 0-.829-.012h-.56c-.179 0-.358 0-.549-.011.012.011 0 .011 0 0z" fill="#0072a1" fill-rule="nonzero"/>
        <path d="M13.214 18.677h.672c.257 0 .504-.011.761-.011h.762c.392 0 .784 0 1.176-.011h1.5c.382 0 .774.01 1.154.01.292 0 .594.012.885.012h.28c-.201 0-.403.011-.605.011-.257 0-.515 0-.784.011-.459 0-.918.011-1.388.011h-1.501c-.381 0-.762 0-1.143-.01-.302 0-.593-.012-.896-.012h-.459c-.134 0-.269 0-.414-.011z" fill="#0072a1" fill-rule="nonzero"/>
        <path d="M13.303 24.909h1.008c.426 0 .84-.012 1.266-.012h2.363c.269 0 .527 0 .795.012.27 0 .538.01.807.01h.75-.291c-.392 0-.784.012-1.176.012-.403 0-.795.01-1.198.01h-2.408c-.415 0-.83-.01-1.244-.01-.235-.011-.448-.011-.672-.022z" fill="#0072a1" fill-rule="nonzero"/>
        <path d="M13.449 25.064h1.109c.37 0 .75-.011 1.12-.011h1.5c.505 0 .997 0 1.501.011.381 0 .773.011 1.154.011.1 0 .202 0 .302.011h-.313c-.325 0-.65 0-.986.011-.885.011-1.77.011-2.654.011h-.952c-.37 0-.74-.01-1.109-.01-.224 0-.448-.012-.672-.012.011-.022 0-.022 0-.022z" fill="#0072a1" fill-rule="nonzero"/>
        <path d="M13.606 25.22h1.153c.303 0 .616-.012.919-.012h1.467c.515 0 1.02 0 1.534.012.314 0 .639 0 .952.01.112 0 .224 0 .336.012-.123 0-.246 0-.38.01-.348 0-.706.012-1.053.012-.291 0-.594 0-.885.011h-1.68c-.515 0-1.02 0-1.534-.011-.213 0-.437-.011-.65-.011-.045-.033-.112-.033-.18-.033z" fill="#0072a1" fill-rule="nonzero"/>
        <path d="M13.684 18.222a280.99 280.99 0 0 1 6.227 0h-.235c-.291 0-.571.01-.862.01h-3.147c-.314 0-.639 0-.952-.01h-.527c-.179.01-.347.01-.504 0z" fill="#0072a1" fill-rule="nonzero"/>
        <path d="M13.807 25.364c2.005-.022 4.01-.022 6.004 0h-.325c-.303 0-.605.011-.907.011h-3.013c-.415 0-.84 0-1.255-.011a3.815 3.815 0 0 1-.504 0z" fill="#0072a1" fill-rule="nonzero"/>
        <path d="M13.852 18.077c1.96-.022 3.931-.022 5.891 0h-.28c-.156 0-.324 0-.481.011h-2.767c-.481 0-.952 0-1.433-.01-.303.01-.616 0-.93 0z" fill="#0072a1" fill-rule="nonzero"/>
        <path d="M13.987 25.52c1.87-.023 3.74-.023 5.61 0h-.38c-.493 0-.986.01-1.467.01h-2.733c-.347 0-.683 0-1.03-.01z" fill="#0072a1" fill-rule="nonzero"/>
        <path d="M14.054 17.922c.425-.012 4.984-.012 5.465 0h-.313c-.515.01-1.03.01-1.546.01h-3.046c-.168 0-.347-.01-.515-.01h-.045z" fill="#0072a1" fill-rule="nonzero"/>
        <path d="M14.222 25.675c.448-.011 4.603-.011 5.152 0h-.37c-.448 0-.907.011-1.355.011H14.86c-.224-.011-.425-.011-.638-.011z" fill="#0072a1" fill-rule="nonzero"/>
        <path d="M19.284 17.766h-.246c-.235 0-.46.011-.695.011h-3.438c-.202 0-.414-.01-.616-.01a346.47 346.47 0 0 1 4.995 0z" fill="#0072a1" fill-rule="nonzero"/>
        <path d="M19.105 25.82c-.594.022-3.718.022-4.67 0 1.568-.012 3.124-.012 4.67 0z" fill="#0072a1" fill-rule="nonzero"/>
        <path d="M19.049 17.622c-1.49.022-2.98.022-4.469 0 .123-.011 4.245-.011 4.469 0z" fill="#0072a1" fill-rule="nonzero"/>
        <path d="M14.748 25.975a251.85 251.85 0 0 1 4.077 0h-.291c-.19 0-.381 0-.571.011h-2.117c-.235 0-.47 0-.706-.011h-.392z" fill="#0072a1" fill-rule="nonzero"/>
        <path d="M14.86 17.466c1.288-.01 2.587-.01 3.875 0-.425 0-.862.011-1.288.011H16.16c-.436 0-.862-.01-1.299-.01z" fill="#0072a1" fill-rule="nonzero"/>
        <path d="M15.062 26.13a172.8 172.8 0 0 1 3.393 0 172.8 172.8 0 0 1-3.393 0z" fill="#0072a1" fill-rule="nonzero"/>
        <path d="M15.286 17.31h3.08c-1.02.012-2.05.012-3.08 0z" fill="#0072a1" fill-rule="nonzero"/>
        <path d="M15.6 26.275h2.396c-.806.01-1.601.01-2.397 0z" fill="#0072a1" fill-rule="nonzero"/>
        <path d="M15.823 17.155h1.938c-.65.011-1.3.011-1.938 0z" fill="#0072a1" fill-rule="nonzero"/>
        <path d="M18.511 26.13z" fill="#0072a1" fill-rule="nonzero"/>
        <path d="M17.805 19.425a2.567 2.567 0 0 1 1.372 1.387 2.463 2.463 0 0 1-1.407 3.246 2.586 2.586 0 0 1-1.804.014 2.583 2.583 0 0 1-1.523-1.445 2.463 2.463 0 0 1 1.407-3.245 2.597 2.597 0 0 1 1.955.043zm-2.774 1.53a1.852 1.852 0 0 0-.012 1.45c.4.976 1.53 1.462 2.517 1.084a1.864 1.864 0 0 0 1.064-2.456 1.946 1.946 0 0 0-1.153-1.095 1.95 1.95 0 0 0-1.363.013 1.86 1.86 0 0 0-1.053 1.003z" fill="#0072a1" fill-rule="nonzero"/>
        <path fill="#ffffff" d="M18.761 21.72a1.953 1.953 0 1 1-3.906 0 1.953 1.953 0 0 1 3.906 0z"/>
        <path d="M10.756 51.542v6.213" fill="#0072a1" stroke="#0072a1" stroke-width=".42" transform="matrix(.92298 -.38485 .66631 1.59801 -39.546 -77.926)"/>
        <path d="M10.756 51.542v6.213" fill="#0072a1" stroke="#0072a1" stroke-width=".48" transform="matrix(.92298 -.38485 .55434 1.32947 -34.443 -61.473)"/>
        <path d="M10.756 51.542v6.213" fill="#0072a1" stroke="#0072a1" stroke-width=".48" transform="matrix(.92298 -.38485 .55434 1.32947 -31.412 -62.682)"/>
        <path d="M10.756 51.542v6.213" fill="#0072a1" stroke="#0072a1" stroke-width=".58" transform="matrix(.92298 -.38485 .41385 .99252 -27.769 -41.337)"/>
        <path d="M11.146 10.91a2.567 2.567 0 0 1 1.372 1.387 2.463 2.463 0 0 1-1.407 3.246 2.586 2.586 0 0 1-1.804.014 2.583 2.583 0 0 1-1.523-1.445 2.463 2.463 0 0 1 1.407-3.245 2.597 2.597 0 0 1 1.955.043zm-2.774 1.53a1.852 1.852 0 0 0-.012 1.45c.4.976 1.53 1.462 2.517 1.084a1.864 1.864 0 0 0 1.064-2.456 1.946 1.946 0 0 0-1.153-1.095 1.95 1.95 0 0 0-1.363.013 1.86 1.86 0 0 0-1.053 1.003z" fill="#ffffff" fill-rule="nonzero"/>
        <path d="M10.756 51.542v6.213" fill="#0072a1" stroke="#0072a1" stroke-width=".42" transform="matrix(.92298 -.38485 .66631 1.59801 -39.546 -77.926)"/>
        <path d="M10.756 51.542v6.213" fill="#0072a1" stroke="#0072a1" stroke-width=".48" transform="matrix(.92298 -.38485 .55434 1.32947 -34.443 -61.473)"/>
        <path d="M10.756 51.542v6.213" fill="#0072a1" stroke="#0072a1" stroke-width=".48" transform="matrix(.92298 -.38485 .55434 1.32947 -31.412 -62.682)"/>
        <path d="M9.201 3.274a.271.271 0 0 1 .5-.206.02.02 0 0 1 .011.011l3.691 8.889a3.431 3.431 0 0 1-1.961 4.522 3.61 3.61 0 0 1-2.513.022 3.6 3.6 0 0 1-2.122-2.016L3.282 5.909a.307.307 0 1 1 .538-.259l.003.004 3.541 8.629a2.974 2.974 0 0 0 1.589 1.607c.721.312 1.537.33 2.263.05a2.853 2.853 0 0 0 1.63-3.758L9.202 3.283c-.002-.002-.002-.005-.001-.009z" fill="#0072a1"/>
        <path fill="#0072a1" d="M12.102 13.205a1.953 1.953 0 1 1-3.906 0 1.953 1.953 0 0 1 3.906 0z"/>
    </g>
</svg>
